<?xml version="1.0" encoding="UTF-8" ?>
<svg version="1.1" width="64" height="16" xmlns="http://www.w3.org/2000/svg" shape-rendering="crispEdges">
<rect x="45" y="2" width="1" height="1" fill="#FBF236" opacity="0.003922" />
<rect x="46" y="2" width="1" height="1" fill="#FBF236" opacity="0.003922" />
<rect x="47" y="2" width="1" height="1" fill="#FBF236" opacity="0.003922" />
<rect x="48" y="2" width="1" height="1" fill="#FBF236" opacity="0.007843" />
<rect x="49" y="2" width="1" height="1" fill="#FBF236" opacity="0.007843" />
<rect x="50" y="2" width="1" height="1" fill="#FBF236" opacity="0.007843" />
<rect x="51" y="2" width="1" height="1" fill="#FBF236" opacity="0.003922" />
<rect x="52" y="2" width="1" height="1" fill="#FBF236" opacity="0.003922" />
<rect x="53" y="2" width="1" height="1" fill="#FBF236" opacity="0.003922" />
<rect x="27" y="3" width="1" height="1" fill="#FF8F99" opacity="0.007843" />
<rect x="28" y="3" width="1" height="1" fill="#FF8F99" opacity="0.023529" />
<rect x="29" y="3" width="1" height="1" fill="#FF8F99" opacity="0.035294" />
<rect x="30" y="3" width="1" height="1" fill="#FF8F99" opacity="0.035294" />
<rect x="31" y="3" width="1" height="1" fill="#FF8F99" opacity="0.027451" />
<rect x="32" y="3" width="1" height="1" fill="#FF8F99" opacity="0.027451" />
<rect x="33" y="3" width="1" height="1" fill="#FF8F99" opacity="0.035294" />
<rect x="34" y="3" width="1" height="1" fill="#FF8F99" opacity="0.035294" />
<rect x="35" y="3" width="1" height="1" fill="#FF8F99" opacity="0.023529" />
<rect x="36" y="3" width="1" height="1" fill="#FF8F99" opacity="0.007843" />
<rect x="43" y="3" width="1" height="1" fill="#FBF236" opacity="0.003922" />
<rect x="44" y="3" width="1" height="1" fill="#FBF236" opacity="0.011765" />
<rect x="45" y="3" width="1" height="1" fill="#FBF236" opacity="0.015686" />
<rect x="46" y="3" width="1" height="1" fill="#FBF236" opacity="0.019608" />
<rect x="47" y="3" width="1" height="1" fill="#FBF236" opacity="0.023529" />
<rect x="48" y="3" width="1" height="1" fill="#FBF236" opacity="0.023529" />
<rect x="49" y="3" width="1" height="1" fill="#FBF236" opacity="0.027451" />
<rect x="50" y="3" width="1" height="1" fill="#FBF236" opacity="0.023529" />
<rect x="51" y="3" width="1" height="1" fill="#FBF236" opacity="0.023529" />
<rect x="52" y="3" width="1" height="1" fill="#FBF236" opacity="0.019608" />
<rect x="53" y="3" width="1" height="1" fill="#FBF236" opacity="0.015686" />
<rect x="54" y="3" width="1" height="1" fill="#FBF236" opacity="0.007843" />
<rect x="55" y="3" width="1" height="1" fill="#FBF236" opacity="0.003922" />
<rect x="7" y="4" width="1" height="1" fill="#FFF979" opacity="0.019608" />
<rect x="8" y="4" width="1" height="1" fill="#FFF979" opacity="0.027451" />
<rect x="9" y="4" width="1" height="1" fill="#FFF979" opacity="0.019608" />
<rect x="10" y="4" width="1" height="1" fill="#FFF979" opacity="0.019608" />
<rect x="11" y="4" width="1" height="1" fill="#FFF979" opacity="0.019608" />
<rect x="12" y="4" width="1" height="1" fill="#FFF979" opacity="0.035294" />
<rect x="13" y="4" width="1" height="1" fill="#FFF979" opacity="0.043137" />
<rect x="14" y="4" width="1" height="1" fill="#FFF979" opacity="0.047059" />
<rect x="15" y="4" width="1" height="1" fill="#FFF979" opacity="0.043137" />
<rect x="16" y="4" width="1" height="1" fill="#FFF979" opacity="0.035294" />
<rect x="17" y="4" width="1" height="1" fill="#FFF979" opacity="0.019608" />
<rect x="18" y="4" width="1" height="1" fill="#FFF979" opacity="0.007843" />
<rect x="26" y="4" width="1" height="1" fill="#FF8F99" opacity="0.007843" />
<rect x="27" y="4" width="1" height="1" fill="#FF8F99" opacity="0.035294" />
<rect x="28" y="4" width="1" height="1" fill="#FF8F99" opacity="0.125490" />
<rect x="29" y="4" width="1" height="1" fill="#FF8F99" opacity="0.207843" />
<rect x="30" y="4" width="1" height="1" fill="#FF8F99" opacity="0.215686" />
<rect x="31" y="4" width="1" height="1" fill="#FF8F99" opacity="0.164706" />
<rect x="32" y="4" width="1" height="1" fill="#FF8F99" opacity="0.164706" />
<rect x="33" y="4" width="1" height="1" fill="#FF8F99" opacity="0.215686" />
<rect x="34" y="4" width="1" height="1" fill="#FF8F99" opacity="0.207843" />
<rect x="35" y="4" width="1" height="1" fill="#FF8F99" opacity="0.125490" />
<rect x="36" y="4" width="1" height="1" fill="#FF8F99" opacity="0.035294" />
<rect x="37" y="4" width="1" height="1" fill="#FF8F99" opacity="0.007843" />
<rect x="42" y="4" width="1" height="1" fill="#FBF236" opacity="0.007843" />
<rect x="43" y="4" width="1" height="1" fill="#FBF236" opacity="0.015686" />
<rect x="44" y="4" width="1" height="1" fill="#FBF236" opacity="0.031373" />
<rect x="45" y="4" width="1" height="1" fill="#FBF236" opacity="0.043137" />
<rect x="46" y="4" width="1" height="1" fill="#FBF236" opacity="0.050980" />
<rect x="47" y="4" width="1" height="1" fill="#FBF236" opacity="0.054902" />
<rect x="48" y="4" width="1" height="1" fill="#FBF236" opacity="0.058824" />
<rect x="49" y="4" width="1" height="1" fill="#FBF236" opacity="0.058824" />
<rect x="50" y="4" width="1" height="1" fill="#FBF236" opacity="0.058824" />
<rect x="51" y="4" width="1" height="1" fill="#FBF236" opacity="0.058824" />
<rect x="52" y="4" width="1" height="1" fill="#FBF236" opacity="0.050980" />
<rect x="53" y="4" width="1" height="1" fill="#FBF236" opacity="0.039216" />
<rect x="54" y="4" width="1" height="1" fill="#FBF236" opacity="0.027451" />
<rect x="55" y="4" width="1" height="1" fill="#FBF236" opacity="0.015686" />
<rect x="56" y="4" width="1" height="1" fill="#FBF236" opacity="0.011765" />
<rect x="7" y="5" width="1" height="1" fill="#FFF979" opacity="0.054902" />
<rect x="8" y="5" width="1" height="1" fill="#FFF979" opacity="0.070588" />
<rect x="9" y="5" width="1" height="1" fill="#FFF979" opacity="0.058824" />
<rect x="10" y="5" width="1" height="1" fill="#FFF979" opacity="0.043137" />
<rect x="11" y="5" width="1" height="1" fill="#FFF979" opacity="0.062745" />
<rect x="12" y="5" width="1" height="1" fill="#FFF979" opacity="0.094118" />
<rect x="13" y="5" width="1" height="1" fill="#FFF979" opacity="0.121569" />
<rect x="14" y="5" width="1" height="1" fill="#FFF979" opacity="0.117647" />
<rect x="15" y="5" width="1" height="1" fill="#FFF979" opacity="0.121569" />
<rect x="16" y="5" width="1" height="1" fill="#FFF979" opacity="0.094118" />
<rect x="17" y="5" width="1" height="1" fill="#FFF979" opacity="0.058824" />
<rect x="18" y="5" width="1" height="1" fill="#FFF979" opacity="0.019608" />
<rect x="19" y="5" width="1" height="1" fill="#FFF979" opacity="0.003922" />
<rect x="26" y="5" width="1" height="1" fill="#FF8F99" opacity="0.023529" />
<rect x="27" y="5" width="1" height="1" fill="#FF8F99" opacity="0.125490" />
<rect x="28" y="5" width="1" height="1" fill="#FF8F99" opacity="0.313725" />
<rect x="29" y="5" width="1" height="1" fill="#FB4859" />
<rect x="30" y="5" width="1" height="1" fill="#FB4859" />
<rect x="31" y="5" width="1" height="1" fill="#FF8F99" opacity="0.443137" />
<rect x="32" y="5" width="1" height="1" fill="#FF8F99" opacity="0.443137" />
<rect x="33" y="5" width="1" height="1" fill="#FB4859" />
<rect x="34" y="5" width="1" height="1" fill="#FB4859" />
<rect x="35" y="5" width="1" height="1" fill="#FF8F99" opacity="0.313725" />
<rect x="36" y="5" width="1" height="1" fill="#FF8F99" opacity="0.125490" />
<rect x="37" y="5" width="1" height="1" fill="#FF8F99" opacity="0.023529" />
<rect x="41" y="5" width="1" height="1" fill="#FBF236" opacity="0.007843" />
<rect x="42" y="5" width="1" height="1" fill="#FBF236" opacity="0.019608" />
<rect x="43" y="5" width="1" height="1" fill="#FBF236" opacity="0.039216" />
<rect x="44" y="5" width="1" height="1" fill="#FBF236" opacity="0.062745" />
<rect x="45" y="5" width="1" height="1" fill="#FBF236" opacity="0.082353" />
<rect x="46" y="5" width="1" height="1" fill="#FBF236" opacity="0.094118" />
<rect x="47" y="5" width="1" height="1" fill="#FBF236" opacity="0.098039" />
<rect x="48" y="5" width="1" height="1" fill="#FBF236" opacity="0.101961" />
<rect x="49" y="5" width="1" height="1" fill="#FBF236" opacity="0.105882" />
<rect x="50" y="5" width="1" height="1" fill="#FBF236" opacity="0.105882" />
<rect x="51" y="5" width="1" height="1" fill="#FBF236" opacity="0.101961" />
<rect x="52" y="5" width="1" height="1" fill="#FBF236" opacity="0.094118" />
<rect x="53" y="5" width="1" height="1" fill="#FBF236" opacity="0.078431" />
<rect x="54" y="5" width="1" height="1" fill="#FBF236" opacity="0.058824" />
<rect x="55" y="5" width="1" height="1" fill="#FBF236" opacity="0.035294" />
<rect x="56" y="5" width="1" height="1" fill="#FBF236" opacity="0.023529" />
<rect x="7" y="6" width="1" height="1" fill="#FFF979" opacity="0.086275" />
<rect x="8" y="6" width="1" height="1" fill="#FBF9CF" />
<rect x="9" y="6" width="1" height="1" fill="#FFF979" opacity="0.094118" />
<rect x="10" y="6" width="1" height="1" fill="#FFF979" opacity="0.074510" />
<rect x="11" y="6" width="1" height="1" fill="#FFF979" opacity="0.101961" />
<rect x="12" y="6" width="1" height="1" fill="#FBF9CF" />
<rect x="13" y="6" width="1" height="1" fill="#FFF979" opacity="0.188235" />
<rect x="14" y="6" width="1" height="1" fill="#FBF9CF" />
<rect x="15" y="6" width="1" height="1" fill="#FFF979" opacity="0.188235" />
<rect x="16" y="6" width="1" height="1" fill="#FBF9CF" />
<rect x="17" y="6" width="1" height="1" fill="#FFF979" opacity="0.094118" />
<rect x="18" y="6" width="1" height="1" fill="#FFF979" opacity="0.035294" />
<rect x="19" y="6" width="1" height="1" fill="#FFF979" opacity="0.003922" />
<rect x="26" y="6" width="1" height="1" fill="#FF8F99" opacity="0.043137" />
<rect x="27" y="6" width="1" height="1" fill="#FF8F99" opacity="0.223529" />
<rect x="28" y="6" width="1" height="1" fill="#FB4859" />
<rect x="29" y="6" width="1" height="1" fill="#FF6876" />
<rect x="30" y="6" width="1" height="1" fill="#FF6876" />
<rect x="31" y="6" width="1" height="1" fill="#FB4859" />
<rect x="32" y="6" width="1" height="1" fill="#FB4859" />
<rect x="33" y="6" width="1" height="1" fill="#FF6876" />
<rect x="34" y="6" width="1" height="1" fill="#FF6876" />
<rect x="35" y="6" width="1" height="1" fill="#FB4859" />
<rect x="36" y="6" width="1" height="1" fill="#FF8F99" opacity="0.223529" />
<rect x="37" y="6" width="1" height="1" fill="#FF8F99" opacity="0.043137" />
<rect x="41" y="6" width="1" height="1" fill="#FBF236" opacity="0.015686" />
<rect x="42" y="6" width="1" height="1" fill="#FBF236" opacity="0.035294" />
<rect x="43" y="6" width="1" height="1" fill="#FBF236" opacity="0.066667" />
<rect x="44" y="6" width="1" height="1" fill="#FBF236" opacity="0.101961" />
<rect x="45" y="6" width="1" height="1" fill="#FBF9CF" />
<rect x="46" y="6" width="1" height="1" fill="#FBF9CF" />
<rect x="47" y="6" width="1" height="1" fill="#FBF236" opacity="0.141176" />
<rect x="48" y="6" width="1" height="1" fill="#FBF9CF" />
<rect x="49" y="6" width="1" height="1" fill="#FBF236" opacity="0.149020" />
<rect x="50" y="6" width="1" height="1" fill="#FBF9CF" />
<rect x="51" y="6" width="1" height="1" fill="#FBF236" opacity="0.152941" />
<rect x="52" y="6" width="1" height="1" fill="#FBF9CF" />
<rect x="53" y="6" width="1" height="1" fill="#FBF9CF" />
<rect x="54" y="6" width="1" height="1" fill="#FBF236" opacity="0.094118" />
<rect x="55" y="6" width="1" height="1" fill="#FBF236" opacity="0.062745" />
<rect x="56" y="6" width="1" height="1" fill="#FBF236" opacity="0.039216" />
<rect x="7" y="7" width="1" height="1" fill="#FFF979" opacity="0.109804" />
<rect x="8" y="7" width="1" height="1" fill="#FBF9CF" />
<rect x="9" y="7" width="1" height="1" fill="#FFF979" opacity="0.125490" />
<rect x="10" y="7" width="1" height="1" fill="#FFF979" opacity="0.090196" />
<rect x="11" y="7" width="1" height="1" fill="#FFF979" opacity="0.129412" />
<rect x="12" y="7" width="1" height="1" fill="#FBF9CF" />
<rect x="13" y="7" width="1" height="1" fill="#FFF979" opacity="0.235294" />
<rect x="14" y="7" width="1" height="1" fill="#FBF9CF" />
<rect x="15" y="7" width="1" height="1" fill="#FFF979" opacity="0.235294" />
<rect x="16" y="7" width="1" height="1" fill="#FBF9CF" />
<rect x="17" y="7" width="1" height="1" fill="#FFF979" opacity="0.125490" />
<rect x="18" y="7" width="1" height="1" fill="#FFF979" opacity="0.047059" />
<rect x="19" y="7" width="1" height="1" fill="#FFF979" opacity="0.007843" />
<rect x="26" y="7" width="1" height="1" fill="#FF8F99" opacity="0.050980" />
<rect x="27" y="7" width="1" height="1" fill="#FF8F99" opacity="0.286275" />
<rect x="28" y="7" width="1" height="1" fill="#FB4859" />
<rect x="29" y="7" width="1" height="1" fill="#FF6876" />
<rect x="30" y="7" width="1" height="1" fill="#FF6876" />
<rect x="31" y="7" width="1" height="1" fill="#FF6876" />
<rect x="32" y="7" width="1" height="1" fill="#FF6876" />
<rect x="33" y="7" width="1" height="1" fill="#FF6876" />
<rect x="34" y="7" width="1" height="1" fill="#FF6876" />
<rect x="35" y="7" width="1" height="1" fill="#FB4859" />
<rect x="36" y="7" width="1" height="1" fill="#FF8F99" opacity="0.286275" />
<rect x="37" y="7" width="1" height="1" fill="#FF8F99" opacity="0.050980" />
<rect x="41" y="7" width="1" height="1" fill="#FBF236" opacity="0.027451" />
<rect x="42" y="7" width="1" height="1" fill="#FBF236" opacity="0.050980" />
<rect x="43" y="7" width="1" height="1" fill="#FBF236" opacity="0.094118" />
<rect x="44" y="7" width="1" height="1" fill="#FBF9CF" />
<rect x="45" y="7" width="1" height="1" fill="#FBF236" opacity="0.164706" />
<rect x="46" y="7" width="1" height="1" fill="#FBF236" opacity="0.168627" />
<rect x="47" y="7" width="1" height="1" fill="#FBF236" opacity="0.164706" />
<rect x="48" y="7" width="1" height="1" fill="#FBF9CF" />
<rect x="49" y="7" width="1" height="1" fill="#FBF236" opacity="0.172549" />
<rect x="50" y="7" width="1" height="1" fill="#FBF9CF" />
<rect x="51" y="7" width="1" height="1" fill="#FBF236" opacity="0.188235" />
<rect x="52" y="7" width="1" height="1" fill="#FBF9CF" />
<rect x="53" y="7" width="1" height="1" fill="#FBF236" opacity="0.160784" />
<rect x="54" y="7" width="1" height="1" fill="#FBF9CF" />
<rect x="55" y="7" width="1" height="1" fill="#FBF236" opacity="0.078431" />
<rect x="56" y="7" width="1" height="1" fill="#FBF236" opacity="0.050980" />
<rect x="7" y="8" width="1" height="1" fill="#FFF979" opacity="0.109804" />
<rect x="8" y="8" width="1" height="1" fill="#FBF9CF" />
<rect x="9" y="8" width="1" height="1" fill="#FFF979" opacity="0.145098" />
<rect x="10" y="8" width="1" height="1" fill="#FFF979" opacity="0.117647" />
<rect x="11" y="8" width="1" height="1" fill="#FFF979" opacity="0.137255" />
<rect x="12" y="8" width="1" height="1" fill="#FBF9CF" />
<rect x="13" y="8" width="1" height="1" fill="#FFF979" opacity="0.219608" />
<rect x="14" y="8" width="1" height="1" fill="#FBF9CF" />
<rect x="15" y="8" width="1" height="1" fill="#FFF979" opacity="0.219608" />
<rect x="16" y="8" width="1" height="1" fill="#FBF9CF" />
<rect x="17" y="8" width="1" height="1" fill="#FFF979" opacity="0.137255" />
<rect x="18" y="8" width="1" height="1" fill="#FFF979" opacity="0.074510" />
<rect x="19" y="8" width="1" height="1" fill="#FFF979" opacity="0.027451" />
<rect x="20" y="8" width="1" height="1" fill="#FFF979" opacity="0.011765" />
<rect x="26" y="8" width="1" height="1" fill="#FF8F99" opacity="0.043137" />
<rect x="27" y="8" width="1" height="1" fill="#FF8F99" opacity="0.223529" />
<rect x="28" y="8" width="1" height="1" fill="#FB4859" />
<rect x="29" y="8" width="1" height="1" fill="#FF6876" />
<rect x="30" y="8" width="1" height="1" fill="#FF6876" />
<rect x="31" y="8" width="1" height="1" fill="#FF6876" />
<rect x="32" y="8" width="1" height="1" fill="#FF6876" />
<rect x="33" y="8" width="1" height="1" fill="#FF6876" />
<rect x="34" y="8" width="1" height="1" fill="#FF6876" />
<rect x="35" y="8" width="1" height="1" fill="#FB4859" />
<rect x="36" y="8" width="1" height="1" fill="#FF8F99" opacity="0.223529" />
<rect x="37" y="8" width="1" height="1" fill="#FF8F99" opacity="0.043137" />
<rect x="41" y="8" width="1" height="1" fill="#FBF236" opacity="0.031373" />
<rect x="42" y="8" width="1" height="1" fill="#FBF236" opacity="0.058824" />
<rect x="43" y="8" width="1" height="1" fill="#FBF236" opacity="0.105882" />
<rect x="44" y="8" width="1" height="1" fill="#FBF9CF" />
<rect x="45" y="8" width="1" height="1" fill="#FBF9CF" />
<rect x="46" y="8" width="1" height="1" fill="#FBF9CF" />
<rect x="47" y="8" width="1" height="1" fill="#FBF236" opacity="0.172549" />
<rect x="48" y="8" width="1" height="1" fill="#FBF236" opacity="0.176471" />
<rect x="49" y="8" width="1" height="1" fill="#FBF9CF" />
<rect x="50" y="8" width="1" height="1" fill="#FBF236" opacity="0.192157" />
<rect x="51" y="8" width="1" height="1" fill="#FBF236" opacity="0.200000" />
<rect x="52" y="8" width="1" height="1" fill="#FBF9CF" />
<rect x="53" y="8" width="1" height="1" fill="#FBF236" opacity="0.176471" />
<rect x="54" y="8" width="1" height="1" fill="#FBF9CF" />
<rect x="55" y="8" width="1" height="1" fill="#FBF236" opacity="0.082353" />
<rect x="56" y="8" width="1" height="1" fill="#FBF236" opacity="0.050980" />
<rect x="7" y="9" width="1" height="1" fill="#FFF979" opacity="0.113725" />
<rect x="8" y="9" width="1" height="1" fill="#FBF9CF" />
<rect x="9" y="9" width="1" height="1" fill="#FFF979" opacity="0.188235" />
<rect x="10" y="9" width="1" height="1" fill="#FFF979" opacity="0.137255" />
<rect x="11" y="9" width="1" height="1" fill="#FFF979" opacity="0.145098" />
<rect x="12" y="9" width="1" height="1" fill="#FBF9CF" />
<rect x="13" y="9" width="1" height="1" fill="#FFF979" opacity="0.196078" />
<rect x="14" y="9" width="1" height="1" fill="#FBF9CF" />
<rect x="15" y="9" width="1" height="1" fill="#FFF979" opacity="0.200000" />
<rect x="16" y="9" width="1" height="1" fill="#FBF9CF" />
<rect x="17" y="9" width="1" height="1" fill="#FFF979" opacity="0.172549" />
<rect x="18" y="9" width="1" height="1" fill="#FFF979" opacity="0.109804" />
<rect x="19" y="9" width="1" height="1" fill="#FFF979" opacity="0.058824" />
<rect x="20" y="9" width="1" height="1" fill="#FFF979" opacity="0.019608" />
<rect x="26" y="9" width="1" height="1" fill="#FF8F99" opacity="0.023529" />
<rect x="27" y="9" width="1" height="1" fill="#FF8F99" opacity="0.125490" />
<rect x="28" y="9" width="1" height="1" fill="#FF8F99" opacity="0.329412" />
<rect x="29" y="9" width="1" height="1" fill="#FB4859" />
<rect x="30" y="9" width="1" height="1" fill="#FF6876" />
<rect x="31" y="9" width="1" height="1" fill="#FF6876" />
<rect x="32" y="9" width="1" height="1" fill="#FF6876" />
<rect x="33" y="9" width="1" height="1" fill="#FF6876" />
<rect x="34" y="9" width="1" height="1" fill="#FB4859" />
<rect x="35" y="9" width="1" height="1" fill="#FF8F99" opacity="0.329412" />
<rect x="36" y="9" width="1" height="1" fill="#FF8F99" opacity="0.125490" />
<rect x="37" y="9" width="1" height="1" fill="#FF8F99" opacity="0.023529" />
<rect x="41" y="9" width="1" height="1" fill="#FBF236" opacity="0.027451" />
<rect x="42" y="9" width="1" height="1" fill="#FBF236" opacity="0.050980" />
<rect x="43" y="9" width="1" height="1" fill="#FBF236" opacity="0.094118" />
<rect x="44" y="9" width="1" height="1" fill="#FBF9CF" />
<rect x="45" y="9" width="1" height="1" fill="#FBF236" opacity="0.164706" />
<rect x="46" y="9" width="1" height="1" fill="#FBF236" opacity="0.168627" />
<rect x="47" y="9" width="1" height="1" fill="#FBF236" opacity="0.164706" />
<rect x="48" y="9" width="1" height="1" fill="#FBF9CF" />
<rect x="49" y="9" width="1" height="1" fill="#FBF236" opacity="0.172549" />
<rect x="50" y="9" width="1" height="1" fill="#FBF9CF" />
<rect x="51" y="9" width="1" height="1" fill="#FBF236" opacity="0.192157" />
<rect x="52" y="9" width="1" height="1" fill="#FBF9CF" />
<rect x="53" y="9" width="1" height="1" fill="#FBF9CF" />
<rect x="54" y="9" width="1" height="1" fill="#FBF236" opacity="0.117647" />
<rect x="55" y="9" width="1" height="1" fill="#FBF236" opacity="0.070588" />
<rect x="56" y="9" width="1" height="1" fill="#FBF236" opacity="0.039216" />
<rect x="7" y="10" width="1" height="1" fill="#FFF979" opacity="0.090196" />
<rect x="8" y="10" width="1" height="1" fill="#FBF9CF" />
<rect x="9" y="10" width="1" height="1" fill="#FBF9CF" />
<rect x="10" y="10" width="1" height="1" fill="#FBF9CF" />
<rect x="11" y="10" width="1" height="1" fill="#FFF979" opacity="0.125490" />
<rect x="12" y="10" width="1" height="1" fill="#FFF979" opacity="0.133333" />
<rect x="13" y="10" width="1" height="1" fill="#FBF9CF" />
<rect x="14" y="10" width="1" height="1" fill="#FFF979" opacity="0.145098" />
<rect x="15" y="10" width="1" height="1" fill="#FFF979" opacity="0.141176" />
<rect x="16" y="10" width="1" height="1" fill="#FBF9CF" />
<rect x="17" y="10" width="1" height="1" fill="#FBF9CF" />
<rect x="18" y="10" width="1" height="1" fill="#FBF9CF" />
<rect x="19" y="10" width="1" height="1" fill="#FFF979" opacity="0.070588" />
<rect x="20" y="10" width="1" height="1" fill="#FFF979" opacity="0.031373" />
<rect x="26" y="10" width="1" height="1" fill="#FF8F99" opacity="0.007843" />
<rect x="27" y="10" width="1" height="1" fill="#FF8F99" opacity="0.035294" />
<rect x="28" y="10" width="1" height="1" fill="#FF8F99" opacity="0.152941" />
<rect x="29" y="10" width="1" height="1" fill="#FF8F99" opacity="0.345098" />
<rect x="30" y="10" width="1" height="1" fill="#FB4859" />
<rect x="31" y="10" width="1" height="1" fill="#FF6876" />
<rect x="32" y="10" width="1" height="1" fill="#FF6876" />
<rect x="33" y="10" width="1" height="1" fill="#FB4859" />
<rect x="34" y="10" width="1" height="1" fill="#FF8F99" opacity="0.345098" />
<rect x="35" y="10" width="1" height="1" fill="#FF8F99" opacity="0.152941" />
<rect x="36" y="10" width="1" height="1" fill="#FF8F99" opacity="0.035294" />
<rect x="37" y="10" width="1" height="1" fill="#FF8F99" opacity="0.007843" />
<rect x="41" y="10" width="1" height="1" fill="#FBF236" opacity="0.015686" />
<rect x="42" y="10" width="1" height="1" fill="#FBF236" opacity="0.035294" />
<rect x="43" y="10" width="1" height="1" fill="#FBF236" opacity="0.066667" />
<rect x="44" y="10" width="1" height="1" fill="#FBF236" opacity="0.101961" />
<rect x="45" y="10" width="1" height="1" fill="#FBF9CF" />
<rect x="46" y="10" width="1" height="1" fill="#FBF9CF" />
<rect x="47" y="10" width="1" height="1" fill="#FBF236" opacity="0.141176" />
<rect x="48" y="10" width="1" height="1" fill="#FBF9CF" />
<rect x="49" y="10" width="1" height="1" fill="#FBF236" opacity="0.149020" />
<rect x="50" y="10" width="1" height="1" fill="#FBF9CF" />
<rect x="51" y="10" width="1" height="1" fill="#FBF236" opacity="0.160784" />
<rect x="52" y="10" width="1" height="1" fill="#FBF9CF" />
<rect x="53" y="10" width="1" height="1" fill="#FBF236" opacity="0.129412" />
<rect x="54" y="10" width="1" height="1" fill="#FBF236" opacity="0.090196" />
<rect x="55" y="10" width="1" height="1" fill="#FBF236" opacity="0.050980" />
<rect x="56" y="10" width="1" height="1" fill="#FBF236" opacity="0.027451" />
<rect x="7" y="11" width="1" height="1" fill="#FFF979" opacity="0.058824" />
<rect x="8" y="11" width="1" height="1" fill="#FFF979" opacity="0.098039" />
<rect x="9" y="11" width="1" height="1" fill="#FFF979" opacity="0.094118" />
<rect x="10" y="11" width="1" height="1" fill="#FFF979" opacity="0.094118" />
<rect x="11" y="11" width="1" height="1" fill="#FFF979" opacity="0.082353" />
<rect x="12" y="11" width="1" height="1" fill="#FFF979" opacity="0.078431" />
<rect x="13" y="11" width="1" height="1" fill="#FFF979" opacity="0.082353" />
<rect x="14" y="11" width="1" height="1" fill="#FFF979" opacity="0.082353" />
<rect x="15" y="11" width="1" height="1" fill="#FFF979" opacity="0.086275" />
<rect x="16" y="11" width="1" height="1" fill="#FFF979" opacity="0.098039" />
<rect x="17" y="11" width="1" height="1" fill="#FFF979" opacity="0.109804" />
<rect x="18" y="11" width="1" height="1" fill="#FFF979" opacity="0.086275" />
<rect x="19" y="11" width="1" height="1" fill="#FFF979" opacity="0.054902" />
<rect x="20" y="11" width="1" height="1" fill="#FFF979" opacity="0.019608" />
<rect x="27" y="11" width="1" height="1" fill="#FF8F99" opacity="0.007843" />
<rect x="28" y="11" width="1" height="1" fill="#FF8F99" opacity="0.035294" />
<rect x="29" y="11" width="1" height="1" fill="#FF8F99" opacity="0.152941" />
<rect x="30" y="11" width="1" height="1" fill="#FF8F99" opacity="0.329412" />
<rect x="31" y="11" width="1" height="1" fill="#FB4859" />
<rect x="32" y="11" width="1" height="1" fill="#FB4859" />
<rect x="33" y="11" width="1" height="1" fill="#FF8F99" opacity="0.329412" />
<rect x="34" y="11" width="1" height="1" fill="#FF8F99" opacity="0.152941" />
<rect x="35" y="11" width="1" height="1" fill="#FF8F99" opacity="0.035294" />
<rect x="36" y="11" width="1" height="1" fill="#FF8F99" opacity="0.007843" />
<rect x="41" y="11" width="1" height="1" fill="#FBF236" opacity="0.007843" />
<rect x="42" y="11" width="1" height="1" fill="#FBF236" opacity="0.019608" />
<rect x="43" y="11" width="1" height="1" fill="#FBF236" opacity="0.039216" />
<rect x="44" y="11" width="1" height="1" fill="#FBF236" opacity="0.062745" />
<rect x="45" y="11" width="1" height="1" fill="#FBF236" opacity="0.082353" />
<rect x="46" y="11" width="1" height="1" fill="#FBF236" opacity="0.094118" />
<rect x="47" y="11" width="1" height="1" fill="#FBF236" opacity="0.098039" />
<rect x="48" y="11" width="1" height="1" fill="#FBF236" opacity="0.101961" />
<rect x="49" y="11" width="1" height="1" fill="#FBF236" opacity="0.105882" />
<rect x="50" y="11" width="1" height="1" fill="#FBF236" opacity="0.109804" />
<rect x="51" y="11" width="1" height="1" fill="#FBF236" opacity="0.109804" />
<rect x="52" y="11" width="1" height="1" fill="#FBF236" opacity="0.101961" />
<rect x="53" y="11" width="1" height="1" fill="#FBF236" opacity="0.082353" />
<rect x="54" y="11" width="1" height="1" fill="#FBF236" opacity="0.054902" />
<rect x="55" y="11" width="1" height="1" fill="#FBF236" opacity="0.031373" />
<rect x="56" y="11" width="1" height="1" fill="#FBF236" opacity="0.015686" />
<rect x="7" y="12" width="1" height="1" fill="#FFF979" opacity="0.019608" />
<rect x="8" y="12" width="1" height="1" fill="#FFF979" opacity="0.043137" />
<rect x="9" y="12" width="1" height="1" fill="#FFF979" opacity="0.062745" />
<rect x="10" y="12" width="1" height="1" fill="#FFF979" opacity="0.035294" />
<rect x="11" y="12" width="1" height="1" fill="#FFF979" opacity="0.031373" />
<rect x="12" y="12" width="1" height="1" fill="#FFF979" opacity="0.031373" />
<rect x="13" y="12" width="1" height="1" fill="#FFF979" opacity="0.031373" />
<rect x="14" y="12" width="1" height="1" fill="#FFF979" opacity="0.031373" />
<rect x="15" y="12" width="1" height="1" fill="#FFF979" opacity="0.031373" />
<rect x="16" y="12" width="1" height="1" fill="#FFF979" opacity="0.035294" />
<rect x="17" y="12" width="1" height="1" fill="#FFF979" opacity="0.039216" />
<rect x="18" y="12" width="1" height="1" fill="#FFF979" opacity="0.035294" />
<rect x="19" y="12" width="1" height="1" fill="#FFF979" opacity="0.019608" />
<rect x="20" y="12" width="1" height="1" fill="#FFF979" opacity="0.011765" />
<rect x="28" y="12" width="1" height="1" fill="#FF8F99" opacity="0.007843" />
<rect x="29" y="12" width="1" height="1" fill="#FF8F99" opacity="0.035294" />
<rect x="30" y="12" width="1" height="1" fill="#FF8F99" opacity="0.125490" />
<rect x="31" y="12" width="1" height="1" fill="#FF8F99" opacity="0.207843" />
<rect x="32" y="12" width="1" height="1" fill="#FF8F99" opacity="0.207843" />
<rect x="33" y="12" width="1" height="1" fill="#FF8F99" opacity="0.125490" />
<rect x="34" y="12" width="1" height="1" fill="#FF8F99" opacity="0.035294" />
<rect x="35" y="12" width="1" height="1" fill="#FF8F99" opacity="0.007843" />
<rect x="42" y="12" width="1" height="1" fill="#FBF236" opacity="0.007843" />
<rect x="43" y="12" width="1" height="1" fill="#FBF236" opacity="0.015686" />
<rect x="44" y="12" width="1" height="1" fill="#FBF236" opacity="0.031373" />
<rect x="45" y="12" width="1" height="1" fill="#FBF236" opacity="0.043137" />
<rect x="46" y="12" width="1" height="1" fill="#FBF236" opacity="0.050980" />
<rect x="47" y="12" width="1" height="1" fill="#FBF236" opacity="0.054902" />
<rect x="48" y="12" width="1" height="1" fill="#FBF236" opacity="0.058824" />
<rect x="49" y="12" width="1" height="1" fill="#FBF236" opacity="0.062745" />
<rect x="50" y="12" width="1" height="1" fill="#FBF236" opacity="0.062745" />
<rect x="51" y="12" width="1" height="1" fill="#FBF236" opacity="0.058824" />
<rect x="52" y="12" width="1" height="1" fill="#FBF236" opacity="0.054902" />
<rect x="53" y="12" width="1" height="1" fill="#FBF236" opacity="0.043137" />
<rect x="54" y="12" width="1" height="1" fill="#FBF236" opacity="0.027451" />
<rect x="55" y="12" width="1" height="1" fill="#FBF236" opacity="0.015686" />
<rect x="56" y="12" width="1" height="1" fill="#FBF236" opacity="0.007843" />
<rect x="7" y="13" width="1" height="1" fill="#FFF979" opacity="0.003922" />
<rect x="8" y="13" width="1" height="1" fill="#FFF979" opacity="0.015686" />
<rect x="9" y="13" width="1" height="1" fill="#FFF979" opacity="0.015686" />
<rect x="10" y="13" width="1" height="1" fill="#FFF979" opacity="0.015686" />
<rect x="11" y="13" width="1" height="1" fill="#FFF979" opacity="0.007843" />
<rect x="12" y="13" width="1" height="1" fill="#FFF979" opacity="0.007843" />
<rect x="13" y="13" width="1" height="1" fill="#FFF979" opacity="0.007843" />
<rect x="14" y="13" width="1" height="1" fill="#FFF979" opacity="0.007843" />
<rect x="15" y="13" width="1" height="1" fill="#FFF979" opacity="0.007843" />
<rect x="16" y="13" width="1" height="1" fill="#FFF979" opacity="0.007843" />
<rect x="17" y="13" width="1" height="1" fill="#FFF979" opacity="0.007843" />
<rect x="18" y="13" width="1" height="1" fill="#FFF979" opacity="0.003922" />
<rect x="19" y="13" width="1" height="1" fill="#FFF979" opacity="0.003922" />
<rect x="29" y="13" width="1" height="1" fill="#FF8F99" opacity="0.007843" />
<rect x="30" y="13" width="1" height="1" fill="#FF8F99" opacity="0.023529" />
<rect x="31" y="13" width="1" height="1" fill="#FF8F99" opacity="0.035294" />
<rect x="32" y="13" width="1" height="1" fill="#FF8F99" opacity="0.035294" />
<rect x="33" y="13" width="1" height="1" fill="#FF8F99" opacity="0.023529" />
<rect x="34" y="13" width="1" height="1" fill="#FF8F99" opacity="0.007843" />
<rect x="43" y="13" width="1" height="1" fill="#FBF236" opacity="0.003922" />
<rect x="44" y="13" width="1" height="1" fill="#FBF236" opacity="0.011765" />
<rect x="45" y="13" width="1" height="1" fill="#FBF236" opacity="0.015686" />
<rect x="46" y="13" width="1" height="1" fill="#FBF236" opacity="0.019608" />
<rect x="47" y="13" width="1" height="1" fill="#FBF236" opacity="0.023529" />
<rect x="48" y="13" width="1" height="1" fill="#FBF236" opacity="0.023529" />
<rect x="49" y="13" width="1" height="1" fill="#FBF236" opacity="0.027451" />
<rect x="50" y="13" width="1" height="1" fill="#FBF236" opacity="0.027451" />
<rect x="51" y="13" width="1" height="1" fill="#FBF236" opacity="0.023529" />
<rect x="52" y="13" width="1" height="1" fill="#FBF236" opacity="0.019608" />
<rect x="53" y="13" width="1" height="1" fill="#FBF236" opacity="0.015686" />
<rect x="54" y="13" width="1" height="1" fill="#FBF236" opacity="0.007843" />
<rect x="55" y="13" width="1" height="1" fill="#FBF236" opacity="0.003922" />
<rect x="8" y="14" width="1" height="1" fill="#FFF979" opacity="0.003922" />
<rect x="45" y="14" width="1" height="1" fill="#FBF236" opacity="0.003922" />
<rect x="46" y="14" width="1" height="1" fill="#FBF236" opacity="0.003922" />
<rect x="47" y="14" width="1" height="1" fill="#FBF236" opacity="0.003922" />
<rect x="48" y="14" width="1" height="1" fill="#FBF236" opacity="0.007843" />
<rect x="49" y="14" width="1" height="1" fill="#FBF236" opacity="0.007843" />
<rect x="50" y="14" width="1" height="1" fill="#FBF236" opacity="0.007843" />
<rect x="51" y="14" width="1" height="1" fill="#FBF236" opacity="0.003922" />
<rect x="52" y="14" width="1" height="1" fill="#FBF236" opacity="0.003922" />
<rect x="53" y="14" width="1" height="1" fill="#FBF236" opacity="0.003922" />
<rect x="8" y="15" width="1" height="1" fill="#FFF979" opacity="0.003922" />
</svg>