<?xml version="1.0" encoding="UTF-8" ?>
<svg version="1.1" width="64" height="16" xmlns="http://www.w3.org/2000/svg" shape-rendering="crispEdges">
<rect x="9" y="5" width="1" height="1" fill="#2A2743" />
<rect x="10" y="5" width="1" height="1" fill="#2A2743" />
<rect x="11" y="5" width="1" height="1" fill="#2A2743" />
<rect x="12" y="5" width="1" height="1" fill="#2A2743" />
<rect x="13" y="5" width="1" height="1" fill="#2A2743" />
<rect x="14" y="5" width="1" height="1" fill="#2A2743" />
<rect x="28" y="5" width="1" height="1" fill="#FFFCBC" opacity="0.117647" />
<rect x="29" y="5" width="1" height="1" fill="#FFFCBC" opacity="0.058824" />
<rect x="34" y="5" width="1" height="1" fill="#FFFCBC" opacity="0.058824" />
<rect x="35" y="5" width="1" height="1" fill="#FFFCBC" opacity="0.117647" />
<rect x="8" y="6" width="1" height="1" fill="#2A2743" />
<rect x="9" y="6" width="1" height="1" fill="#17142D" />
<rect x="10" y="6" width="1" height="1" fill="#17142D" />
<rect x="11" y="6" width="1" height="1" fill="#17142D" />
<rect x="12" y="6" width="1" height="1" fill="#17142D" />
<rect x="13" y="6" width="1" height="1" fill="#17142D" />
<rect x="14" y="6" width="1" height="1" fill="#17142D" />
<rect x="15" y="6" width="1" height="1" fill="#2A2743" />
<rect x="28" y="6" width="1" height="1" fill="#FFFCBC" opacity="0.698039" />
<rect x="29" y="6" width="1" height="1" fill="#FFFCBC" opacity="0.117647" />
<rect x="34" y="6" width="1" height="1" fill="#FFFCBC" opacity="0.117647" />
<rect x="35" y="6" width="1" height="1" fill="#FFFCBC" opacity="0.698039" />
<rect x="8" y="7" width="1" height="1" fill="#2A2743" />
<rect x="9" y="7" width="1" height="1" fill="#17142D" />
<rect x="10" y="7" width="1" height="1" fill="#17142D" />
<rect x="11" y="7" width="1" height="1" fill="#17142D" />
<rect x="12" y="7" width="1" height="1" fill="#17142D" />
<rect x="13" y="7" width="1" height="1" fill="#17142D" />
<rect x="14" y="7" width="1" height="1" fill="#17142D" />
<rect x="15" y="7" width="1" height="1" fill="#17142D" />
<rect x="28" y="7" width="1" height="1" fill="#FFFCBC" opacity="0.878431" />
<rect x="29" y="7" width="1" height="1" fill="#FFFCBC" opacity="0.239216" />
<rect x="30" y="7" width="1" height="1" fill="#FFFCBC" opacity="0.058824" />
<rect x="33" y="7" width="1" height="1" fill="#FFFCBC" opacity="0.058824" />
<rect x="34" y="7" width="1" height="1" fill="#FFFCBC" opacity="0.239216" />
<rect x="35" y="7" width="1" height="1" fill="#FFFCBC" opacity="0.878431" />
<rect x="8" y="8" width="1" height="1" fill="#17142D" />
<rect x="9" y="8" width="1" height="1" fill="#17142D" />
<rect x="10" y="8" width="1" height="1" fill="#17142D" />
<rect x="11" y="8" width="1" height="1" fill="#17142D" />
<rect x="12" y="8" width="1" height="1" fill="#17142D" />
<rect x="13" y="8" width="1" height="1" fill="#17142D" />
<rect x="14" y="8" width="1" height="1" fill="#17142D" />
<rect x="15" y="8" width="1" height="1" fill="#17142D" />
<rect x="28" y="8" width="1" height="1" fill="#DDDAA4" opacity="0.937255" />
<rect x="29" y="8" width="1" height="1" fill="#E4E1A9" opacity="0.756863" />
<rect x="30" y="8" width="1" height="1" fill="#FFFCBC" opacity="0.117647" />
<rect x="33" y="8" width="1" height="1" fill="#FFFCBC" opacity="0.117647" />
<rect x="34" y="8" width="1" height="1" fill="#E4E1A9" opacity="0.756863" />
<rect x="35" y="8" width="1" height="1" fill="#DDDAA4" opacity="0.937255" />
<rect x="48" y="8" width="1" height="1" fill="#FFFCBC" opacity="0.117647" />
<rect x="49" y="8" width="1" height="1" fill="#FFFCBC" opacity="0.058824" />
<rect x="54" y="8" width="1" height="1" fill="#FFFCBC" opacity="0.058824" />
<rect x="55" y="8" width="1" height="1" fill="#FFFCBC" opacity="0.117647" />
<rect x="8" y="9" width="1" height="1" fill="#17142D" />
<rect x="9" y="9" width="1" height="1" fill="#17142D" />
<rect x="10" y="9" width="1" height="1" fill="#17142D" />
<rect x="11" y="9" width="1" height="1" fill="#17142D" />
<rect x="12" y="9" width="1" height="1" fill="#17142D" />
<rect x="13" y="9" width="1" height="1" fill="#2A2743" />
<rect x="14" y="9" width="1" height="1" fill="#2A2743" />
<rect x="15" y="9" width="1" height="1" fill="#17142D" />
<rect x="28" y="9" width="1" height="1" fill="#434137" />
<rect x="29" y="9" width="1" height="1" fill="#BCB98C" opacity="0.819608" />
<rect x="30" y="9" width="1" height="1" fill="#ACAA81" opacity="0.180392" />
<rect x="33" y="9" width="1" height="1" fill="#ACAA81" opacity="0.180392" />
<rect x="34" y="9" width="1" height="1" fill="#BCB98C" opacity="0.819608" />
<rect x="35" y="9" width="1" height="1" fill="#434137" />
<rect x="48" y="9" width="1" height="1" fill="#FFFCBC" opacity="0.756863" />
<rect x="49" y="9" width="1" height="1" fill="#FFFCBC" opacity="0.180392" />
<rect x="50" y="9" width="1" height="1" fill="#FFFCBC" opacity="0.058824" />
<rect x="53" y="9" width="1" height="1" fill="#FFFCBC" opacity="0.058824" />
<rect x="54" y="9" width="1" height="1" fill="#FFFCBC" opacity="0.180392" />
<rect x="55" y="9" width="1" height="1" fill="#FFFCBC" opacity="0.756863" />
<rect x="8" y="10" width="1" height="1" fill="#07060D" />
<rect x="9" y="10" width="1" height="1" fill="#17142D" />
<rect x="10" y="10" width="1" height="1" fill="#17142D" />
<rect x="11" y="10" width="1" height="1" fill="#17142D" />
<rect x="12" y="10" width="1" height="1" fill="#17142D" />
<rect x="13" y="10" width="1" height="1" fill="#17142D" />
<rect x="14" y="10" width="1" height="1" fill="#17142D" />
<rect x="15" y="10" width="1" height="1" fill="#07060D" />
<rect x="28" y="10" width="1" height="1" fill="#07060D" />
<rect x="29" y="10" width="1" height="1" fill="#07060D" />
<rect x="30" y="10" width="1" height="1" fill="#383730" opacity="0.298039" />
<rect x="31" y="10" width="1" height="1" fill="#07060D" opacity="0.180392" />
<rect x="32" y="10" width="1" height="1" fill="#07060D" opacity="0.180392" />
<rect x="33" y="10" width="1" height="1" fill="#383730" opacity="0.298039" />
<rect x="34" y="10" width="1" height="1" fill="#07060D" />
<rect x="35" y="10" width="1" height="1" fill="#07060D" />
<rect x="48" y="10" width="1" height="1" fill="#FFFCBC" opacity="0.819608" />
<rect x="49" y="10" width="1" height="1" fill="#FFFCBC" opacity="0.756863" />
<rect x="50" y="10" width="1" height="1" fill="#FFFCBC" opacity="0.239216" />
<rect x="51" y="10" width="1" height="1" fill="#FFFCBC" opacity="0.180392" />
<rect x="52" y="10" width="1" height="1" fill="#FFFCBC" opacity="0.180392" />
<rect x="53" y="10" width="1" height="1" fill="#FFFCBC" opacity="0.239216" />
<rect x="54" y="10" width="1" height="1" fill="#FFFCBC" opacity="0.756863" />
<rect x="55" y="10" width="1" height="1" fill="#FFFCBC" opacity="0.819608" />
<rect x="8" y="11" width="1" height="1" fill="#07060D" />
<rect x="9" y="11" width="1" height="1" fill="#07060D" />
<rect x="10" y="11" width="1" height="1" fill="#07060D" />
<rect x="11" y="11" width="1" height="1" fill="#07060D" />
<rect x="12" y="11" width="1" height="1" fill="#07060D" />
<rect x="13" y="11" width="1" height="1" fill="#07060D" />
<rect x="14" y="11" width="1" height="1" fill="#07060D" />
<rect x="15" y="11" width="1" height="1" fill="#07060D" />
<rect x="28" y="11" width="1" height="1" fill="#07060D" />
<rect x="29" y="11" width="1" height="1" fill="#07060D" />
<rect x="30" y="11" width="1" height="1" fill="#07060D" />
<rect x="31" y="11" width="1" height="1" fill="#07060D" />
<rect x="32" y="11" width="1" height="1" fill="#07060D" />
<rect x="33" y="11" width="1" height="1" fill="#07060D" />
<rect x="34" y="11" width="1" height="1" fill="#07060D" />
<rect x="35" y="11" width="1" height="1" fill="#07060D" />
<rect x="49" y="11" width="1" height="1" fill="#FFFCBC" />
<rect x="50" y="11" width="1" height="1" fill="#FFFCBC" opacity="0.878431" />
<rect x="51" y="11" width="1" height="1" fill="#FFFCBC" opacity="0.819608" />
<rect x="52" y="11" width="1" height="1" fill="#FFFCBC" opacity="0.819608" />
<rect x="53" y="11" width="1" height="1" fill="#FFFCBC" opacity="0.878431" />
<rect x="54" y="11" width="1" height="1" fill="#FFFCBC" />
<rect x="9" y="12" width="1" height="1" fill="#07060D" />
<rect x="10" y="12" width="1" height="1" fill="#07060D" />
<rect x="11" y="12" width="1" height="1" fill="#07060D" />
<rect x="12" y="12" width="1" height="1" fill="#07060D" />
<rect x="13" y="12" width="1" height="1" fill="#07060D" />
<rect x="14" y="12" width="1" height="1" fill="#07060D" />
</svg>