<?xml version="1.0" encoding="UTF-8" ?>
<svg version="1.1" width="64" height="16" xmlns="http://www.w3.org/2000/svg" shape-rendering="crispEdges">
<rect x="11" y="4" width="1" height="1" fill="#07060D" />
<rect x="12" y="4" width="1" height="1" fill="#07060D" />
<rect x="13" y="4" width="1" height="1" fill="#07060D" />
<rect x="14" y="4" width="1" height="1" fill="#07060D" />
<rect x="30" y="4" width="1" height="1" fill="#07060D" />
<rect x="31" y="4" width="1" height="1" fill="#07060D" />
<rect x="32" y="4" width="1" height="1" fill="#07060D" />
<rect x="33" y="4" width="1" height="1" fill="#07060D" />
<rect x="34" y="4" width="1" height="1" fill="#07060D" />
<rect x="10" y="5" width="1" height="1" fill="#07060D" />
<rect x="11" y="5" width="1" height="1" fill="#5B558B" />
<rect x="12" y="5" width="1" height="1" fill="#5B558B" />
<rect x="13" y="5" width="1" height="1" fill="#5B558B" />
<rect x="14" y="5" width="1" height="1" fill="#5B558B" />
<rect x="15" y="5" width="1" height="1" fill="#07060D" />
<rect x="29" y="5" width="1" height="1" fill="#07060D" />
<rect x="30" y="5" width="1" height="1" fill="#07060D" />
<rect x="31" y="5" width="1" height="1" fill="#07060D" />
<rect x="32" y="5" width="1" height="1" fill="#07060D" />
<rect x="33" y="5" width="1" height="1" fill="#07060D" />
<rect x="34" y="5" width="1" height="1" fill="#07060D" />
<rect x="35" y="5" width="1" height="1" fill="#07060D" />
<rect x="51" y="5" width="1" height="1" fill="#07060D" />
<rect x="52" y="5" width="1" height="1" fill="#07060D" />
<rect x="53" y="5" width="1" height="1" fill="#07060D" />
<rect x="10" y="6" width="1" height="1" fill="#07060D" />
<rect x="11" y="6" width="1" height="1" fill="#5B558B" />
<rect x="12" y="6" width="1" height="1" fill="#07060D" />
<rect x="13" y="6" width="1" height="1" fill="#5B558B" />
<rect x="14" y="6" width="1" height="1" fill="#07060D" />
<rect x="15" y="6" width="1" height="1" fill="#07060D" />
<rect x="28" y="6" width="1" height="1" fill="#07060D" />
<rect x="29" y="6" width="1" height="1" fill="#07060D" />
<rect x="30" y="6" width="1" height="1" fill="#07060D" />
<rect x="31" y="6" width="1" height="1" fill="#07060D" />
<rect x="32" y="6" width="1" height="1" fill="#07060D" />
<rect x="33" y="6" width="1" height="1" fill="#5B558B" />
<rect x="34" y="6" width="1" height="1" fill="#5B558B" />
<rect x="35" y="6" width="1" height="1" fill="#07060D" />
<rect x="49" y="6" width="1" height="1" fill="#07060D" />
<rect x="50" y="6" width="1" height="1" fill="#07060D" />
<rect x="51" y="6" width="1" height="1" fill="#07060D" />
<rect x="52" y="6" width="1" height="1" fill="#07060D" />
<rect x="53" y="6" width="1" height="1" fill="#07060D" />
<rect x="54" y="6" width="1" height="1" fill="#07060D" />
<rect x="9" y="7" width="1" height="1" fill="#07060D" />
<rect x="10" y="7" width="1" height="1" fill="#07060D" />
<rect x="11" y="7" width="1" height="1" fill="#5B558B" />
<rect x="12" y="7" width="1" height="1" fill="#5B558B" />
<rect x="13" y="7" width="1" height="1" fill="#07060D" />
<rect x="14" y="7" width="1" height="1" fill="#5B558B" />
<rect x="15" y="7" width="1" height="1" fill="#07060D" />
<rect x="28" y="7" width="1" height="1" fill="#07060D" />
<rect x="29" y="7" width="1" height="1" fill="#07060D" />
<rect x="30" y="7" width="1" height="1" fill="#07060D" />
<rect x="31" y="7" width="1" height="1" fill="#07060D" />
<rect x="32" y="7" width="1" height="1" fill="#07060D" />
<rect x="33" y="7" width="1" height="1" fill="#5B558B" />
<rect x="34" y="7" width="1" height="1" fill="#5B558B" />
<rect x="35" y="7" width="1" height="1" fill="#07060D" />
<rect x="49" y="7" width="1" height="1" fill="#07060D" />
<rect x="50" y="7" width="1" height="1" fill="#07060D" />
<rect x="51" y="7" width="1" height="1" fill="#07060D" />
<rect x="52" y="7" width="1" height="1" fill="#5B558B" />
<rect x="53" y="7" width="1" height="1" fill="#5B558B" />
<rect x="54" y="7" width="1" height="1" fill="#07060D" />
<rect x="8" y="8" width="1" height="1" fill="#07060D" />
<rect x="9" y="8" width="1" height="1" fill="#07060D" />
<rect x="10" y="8" width="1" height="1" fill="#07060D" />
<rect x="11" y="8" width="1" height="1" fill="#07060D" />
<rect x="12" y="8" width="1" height="1" fill="#5B558B" />
<rect x="13" y="8" width="1" height="1" fill="#5B558B" />
<rect x="14" y="8" width="1" height="1" fill="#07060D" />
<rect x="15" y="8" width="1" height="1" fill="#07060D" />
<rect x="29" y="8" width="1" height="1" fill="#07060D" />
<rect x="30" y="8" width="1" height="1" fill="#07060D" />
<rect x="31" y="8" width="1" height="1" fill="#07060D" />
<rect x="32" y="8" width="1" height="1" fill="#07060D" />
<rect x="33" y="8" width="1" height="1" fill="#07060D" />
<rect x="34" y="8" width="1" height="1" fill="#07060D" />
<rect x="35" y="8" width="1" height="1" fill="#07060D" />
<rect x="48" y="8" width="1" height="1" fill="#07060D" />
<rect x="49" y="8" width="1" height="1" fill="#07060D" />
<rect x="50" y="8" width="1" height="1" fill="#07060D" />
<rect x="51" y="8" width="1" height="1" fill="#07060D" />
<rect x="52" y="8" width="1" height="1" fill="#5B558B" />
<rect x="53" y="8" width="1" height="1" fill="#5B558B" />
<rect x="54" y="8" width="1" height="1" fill="#07060D" />
<rect x="10" y="9" width="1" height="1" fill="#07060D" />
<rect x="11" y="9" width="1" height="1" fill="#07060D" />
<rect x="12" y="9" width="1" height="1" fill="#07060D" />
<rect x="13" y="9" width="1" height="1" fill="#07060D" />
<rect x="14" y="9" width="1" height="1" fill="#07060D" />
<rect x="30" y="9" width="1" height="1" fill="#07060D" />
<rect x="32" y="9" width="1" height="1" fill="#07060D" />
<rect x="33" y="9" width="1" height="1" fill="#07060D" />
<rect x="34" y="9" width="1" height="1" fill="#07060D" />
<rect x="48" y="9" width="1" height="1" fill="#07060D" />
<rect x="49" y="9" width="1" height="1" fill="#07060D" />
<rect x="50" y="9" width="1" height="1" fill="#07060D" />
<rect x="51" y="9" width="1" height="1" fill="#07060D" />
<rect x="52" y="9" width="1" height="1" fill="#07060D" />
<rect x="53" y="9" width="1" height="1" fill="#07060D" />
<rect x="54" y="9" width="1" height="1" fill="#07060D" />
<rect x="55" y="9" width="1" height="1" fill="#07060D" />
<rect x="8" y="10" width="1" height="1" fill="#07060D" />
<rect x="15" y="10" width="1" height="1" fill="#07060D" />
<rect x="30" y="10" width="1" height="1" fill="#07060D" />
<rect x="32" y="10" width="1" height="1" fill="#07060D" />
<rect x="34" y="10" width="1" height="1" fill="#07060D" />
<rect x="48" y="10" width="1" height="1" fill="#07060D" />
<rect x="51" y="10" width="1" height="1" fill="#07060D" />
<rect x="55" y="10" width="1" height="1" fill="#07060D" />
<rect x="11" y="11" width="1" height="1" fill="#07060D" />
<rect x="32" y="11" width="1" height="1" fill="#07060D" />
</svg>