<?xml version="1.0" encoding="UTF-8" ?>
<svg version="1.1" width="64" height="16" xmlns="http://www.w3.org/2000/svg" shape-rendering="crispEdges">
<rect x="37" y="0" width="1" height="1" fill="#FFFCBC" opacity="0.086275" />
<rect x="38" y="0" width="1" height="1" fill="#FFFCBC" opacity="0.172549" />
<rect x="39" y="0" width="1" height="1" fill="#FFFCBC" opacity="0.262745" />
<rect x="40" y="0" width="1" height="1" fill="#FFFCBC" opacity="0.172549" />
<rect x="41" y="0" width="1" height="1" fill="#FFFCBC" opacity="0.086275" />
<rect x="51" y="0" width="1" height="1" fill="#FFFCBC" />
<rect x="52" y="0" width="1" height="1" fill="#FFFCBC" />
<rect x="2" y="1" width="1" height="1" fill="#FFFCBC" />
<rect x="7" y="1" width="1" height="1" fill="#FFFCBC" />
<rect x="8" y="1" width="1" height="1" fill="#FFFCBC" />
<rect x="36" y="1" width="1" height="1" fill="#FFFCBC" opacity="0.086275" />
<rect x="37" y="1" width="1" height="1" fill="#FFFCBC" opacity="0.262745" />
<rect x="38" y="1" width="1" height="1" fill="#FFFCBC" opacity="0.647059" />
<rect x="39" y="1" width="1" height="1" fill="#FFFCBC" opacity="0.737255" />
<rect x="40" y="1" width="1" height="1" fill="#FFFCBC" opacity="0.647059" />
<rect x="41" y="1" width="1" height="1" fill="#FFFCBC" opacity="0.262745" />
<rect x="42" y="1" width="1" height="1" fill="#FFFCBC" opacity="0.086275" />
<rect x="51" y="1" width="1" height="1" fill="#FFFCBC" />
<rect x="52" y="1" width="1" height="1" fill="#FFFCBC" />
<rect x="2" y="2" width="1" height="1" fill="#FFFCBC" />
<rect x="7" y="2" width="1" height="1" fill="#FFFCBC" />
<rect x="8" y="2" width="1" height="1" fill="#FFFCBC" />
<rect x="25" y="2" width="1" height="1" fill="#FFFCBC" />
<rect x="26" y="2" width="1" height="1" fill="#FFFCBC" />
<rect x="35" y="2" width="1" height="1" fill="#FFFCBC" opacity="0.086275" />
<rect x="36" y="2" width="1" height="1" fill="#FFFCBC" opacity="0.262745" />
<rect x="37" y="2" width="1" height="1" fill="#FFFCBC" opacity="0.737255" />
<rect x="38" y="2" width="1" height="1" fill="#FFFCBC" opacity="0.909804" />
<rect x="39" y="2" width="1" height="1" fill="#FFFCBC" />
<rect x="40" y="2" width="1" height="1" fill="#FFFCBC" opacity="0.909804" />
<rect x="41" y="2" width="1" height="1" fill="#FFFCBC" opacity="0.737255" />
<rect x="42" y="2" width="1" height="1" fill="#FFFCBC" opacity="0.262745" />
<rect x="43" y="2" width="1" height="1" fill="#FFFCBC" opacity="0.086275" />
<rect x="62" y="2" width="1" height="1" fill="#FFFCBC" />
<rect x="63" y="2" width="1" height="1" fill="#FFFCBC" />
<rect x="2" y="3" width="1" height="1" fill="#FFFCBC" />
<rect x="25" y="3" width="1" height="1" fill="#FFFCBC" />
<rect x="26" y="3" width="1" height="1" fill="#FFFCBC" />
<rect x="35" y="3" width="1" height="1" fill="#FFFCBC" opacity="0.172549" />
<rect x="36" y="3" width="1" height="1" fill="#FFFCBC" opacity="0.647059" />
<rect x="37" y="3" width="1" height="1" fill="#FFFCBC" opacity="0.909804" />
<rect x="38" y="3" width="1" height="1" fill="#FFFCBC" />
<rect x="39" y="3" width="1" height="1" fill="#FFFCBC" />
<rect x="40" y="3" width="1" height="1" fill="#FFFCBC" />
<rect x="41" y="3" width="1" height="1" fill="#FFFCBC" opacity="0.909804" />
<rect x="42" y="3" width="1" height="1" fill="#FFFCBC" opacity="0.647059" />
<rect x="43" y="3" width="1" height="1" fill="#FFFCBC" opacity="0.172549" />
<rect x="62" y="3" width="1" height="1" fill="#FFFCBC" />
<rect x="63" y="3" width="1" height="1" fill="#FFFCBC" />
<rect x="2" y="4" width="1" height="1" fill="#FFFCBC" />
<rect x="35" y="4" width="1" height="1" fill="#FFFCBC" opacity="0.262745" />
<rect x="36" y="4" width="1" height="1" fill="#FFFCBC" opacity="0.737255" />
<rect x="37" y="4" width="1" height="1" fill="#FFFCBC" />
<rect x="38" y="4" width="1" height="1" fill="#FFFCBC" />
<rect x="39" y="4" width="1" height="1" fill="#FFFCBC" />
<rect x="40" y="4" width="1" height="1" fill="#FFFCBC" />
<rect x="41" y="4" width="1" height="1" fill="#FFFCBC" />
<rect x="42" y="4" width="1" height="1" fill="#FFFCBC" opacity="0.737255" />
<rect x="43" y="4" width="1" height="1" fill="#FFFCBC" opacity="0.262745" />
<rect x="2" y="5" width="1" height="1" fill="#FFFCBC" />
<rect x="35" y="5" width="1" height="1" fill="#FFFCBC" opacity="0.172549" />
<rect x="36" y="5" width="1" height="1" fill="#FFFCBC" opacity="0.647059" />
<rect x="37" y="5" width="1" height="1" fill="#FFFCBC" opacity="0.909804" />
<rect x="38" y="5" width="1" height="1" fill="#FFFCBC" />
<rect x="39" y="5" width="1" height="1" fill="#FFFCBC" />
<rect x="40" y="5" width="1" height="1" fill="#FFFCBC" />
<rect x="41" y="5" width="1" height="1" fill="#FFFCBC" opacity="0.909804" />
<rect x="42" y="5" width="1" height="1" fill="#FFFCBC" opacity="0.647059" />
<rect x="43" y="5" width="1" height="1" fill="#FFFCBC" opacity="0.172549" />
<rect x="2" y="6" width="1" height="1" fill="#FFFCBC" />
<rect x="35" y="6" width="1" height="1" fill="#FFFCBC" opacity="0.086275" />
<rect x="36" y="6" width="1" height="1" fill="#FFFCBC" opacity="0.262745" />
<rect x="37" y="6" width="1" height="1" fill="#FFFCBC" opacity="0.737255" />
<rect x="38" y="6" width="1" height="1" fill="#FFFCBC" opacity="0.909804" />
<rect x="39" y="6" width="1" height="1" fill="#FFFCBC" />
<rect x="40" y="6" width="1" height="1" fill="#FFFCBC" opacity="0.909804" />
<rect x="41" y="6" width="1" height="1" fill="#FFFCBC" opacity="0.737255" />
<rect x="42" y="6" width="1" height="1" fill="#FFFCBC" opacity="0.262745" />
<rect x="43" y="6" width="1" height="1" fill="#FFFCBC" opacity="0.086275" />
<rect x="56" y="6" width="1" height="1" fill="#FFFCBC" opacity="0.086275" />
<rect x="57" y="6" width="1" height="1" fill="#FFFCBC" opacity="0.172549" />
<rect x="58" y="6" width="1" height="1" fill="#FFFCBC" opacity="0.262745" />
<rect x="59" y="6" width="1" height="1" fill="#FFFCBC" opacity="0.172549" />
<rect x="60" y="6" width="1" height="1" fill="#FFFCBC" opacity="0.086275" />
<rect x="2" y="7" width="1" height="1" fill="#FFFCBC" />
<rect x="36" y="7" width="1" height="1" fill="#FFFCBC" opacity="0.086275" />
<rect x="37" y="7" width="1" height="1" fill="#FFFCBC" opacity="0.262745" />
<rect x="38" y="7" width="1" height="1" fill="#FFFCBC" opacity="0.647059" />
<rect x="39" y="7" width="1" height="1" fill="#FFFCBC" opacity="0.737255" />
<rect x="40" y="7" width="1" height="1" fill="#FFFCBC" opacity="0.647059" />
<rect x="41" y="7" width="1" height="1" fill="#FFFCBC" opacity="0.262745" />
<rect x="42" y="7" width="1" height="1" fill="#FFFCBC" opacity="0.086275" />
<rect x="48" y="7" width="1" height="1" fill="#FFFCBC" />
<rect x="49" y="7" width="1" height="1" fill="#FFFCBC" />
<rect x="55" y="7" width="1" height="1" fill="#FFFCBC" opacity="0.086275" />
<rect x="56" y="7" width="1" height="1" fill="#FFFCBC" opacity="0.262745" />
<rect x="57" y="7" width="1" height="1" fill="#FFFCBC" opacity="0.647059" />
<rect x="58" y="7" width="1" height="1" fill="#FFFCBC" opacity="0.737255" />
<rect x="59" y="7" width="1" height="1" fill="#FFFCBC" opacity="0.647059" />
<rect x="60" y="7" width="1" height="1" fill="#FFFCBC" opacity="0.262745" />
<rect x="61" y="7" width="1" height="1" fill="#FFFCBC" opacity="0.086275" />
<rect x="2" y="8" width="1" height="1" fill="#FFFCBC" />
<rect x="9" y="8" width="1" height="1" fill="#FFFCBC" />
<rect x="12" y="8" width="1" height="1" fill="#FFFCBC" />
<rect x="14" y="8" width="1" height="1" fill="#FFFCBC" />
<rect x="19" y="8" width="1" height="1" fill="#FFFCBC" />
<rect x="21" y="8" width="1" height="1" fill="#FFFCBC" />
<rect x="22" y="8" width="1" height="1" fill="#FFFCBC" />
<rect x="23" y="8" width="1" height="1" fill="#FFFCBC" />
<rect x="24" y="8" width="1" height="1" fill="#FFFCBC" />
<rect x="26" y="8" width="1" height="1" fill="#FFFCBC" />
<rect x="27" y="8" width="1" height="1" fill="#FFFCBC" />
<rect x="28" y="8" width="1" height="1" fill="#FFFCBC" />
<rect x="29" y="8" width="1" height="1" fill="#FFFCBC" />
<rect x="37" y="8" width="1" height="1" fill="#FFFCBC" opacity="0.086275" />
<rect x="38" y="8" width="1" height="1" fill="#FFFCBC" opacity="0.172549" />
<rect x="39" y="8" width="1" height="1" fill="#FFFCBC" opacity="0.262745" />
<rect x="40" y="8" width="1" height="1" fill="#FFFCBC" opacity="0.172549" />
<rect x="41" y="8" width="1" height="1" fill="#FFFCBC" opacity="0.086275" />
<rect x="48" y="8" width="1" height="1" fill="#FFFCBC" />
<rect x="49" y="8" width="1" height="1" fill="#FFFCBC" />
<rect x="54" y="8" width="1" height="1" fill="#FFFCBC" opacity="0.086275" />
<rect x="55" y="8" width="1" height="1" fill="#FFFCBC" opacity="0.262745" />
<rect x="56" y="8" width="1" height="1" fill="#FFFCBC" opacity="0.737255" />
<rect x="57" y="8" width="1" height="1" fill="#FFFCBC" opacity="0.909804" />
<rect x="58" y="8" width="1" height="1" fill="#FFFCBC" />
<rect x="59" y="8" width="1" height="1" fill="#FFFCBC" opacity="0.909804" />
<rect x="60" y="8" width="1" height="1" fill="#FFFCBC" opacity="0.737255" />
<rect x="61" y="8" width="1" height="1" fill="#FFFCBC" opacity="0.262745" />
<rect x="62" y="8" width="1" height="1" fill="#FFFCBC" opacity="0.086275" />
<rect x="2" y="9" width="1" height="1" fill="#FFFCBC" />
<rect x="9" y="9" width="1" height="1" fill="#FFFCBC" />
<rect x="12" y="9" width="1" height="1" fill="#FFFCBC" />
<rect x="14" y="9" width="1" height="1" fill="#FFFCBC" />
<rect x="19" y="9" width="1" height="1" fill="#FFFCBC" />
<rect x="21" y="9" width="1" height="1" fill="#FFFCBC" />
<rect x="26" y="9" width="1" height="1" fill="#FFFCBC" />
<rect x="30" y="9" width="1" height="1" fill="#FFFCBC" />
<rect x="54" y="9" width="1" height="1" fill="#FFFCBC" opacity="0.172549" />
<rect x="55" y="9" width="1" height="1" fill="#FFFCBC" opacity="0.647059" />
<rect x="56" y="9" width="1" height="1" fill="#FFFCBC" opacity="0.909804" />
<rect x="57" y="9" width="1" height="1" fill="#FFFCBC" />
<rect x="58" y="9" width="1" height="1" fill="#FFFCBC" />
<rect x="59" y="9" width="1" height="1" fill="#FFFCBC" />
<rect x="60" y="9" width="1" height="1" fill="#FFFCBC" opacity="0.909804" />
<rect x="61" y="9" width="1" height="1" fill="#FFFCBC" opacity="0.647059" />
<rect x="62" y="9" width="1" height="1" fill="#FFFCBC" opacity="0.172549" />
<rect x="2" y="10" width="1" height="1" fill="#FFFCBC" />
<rect x="9" y="10" width="1" height="1" fill="#FFFCBC" />
<rect x="12" y="10" width="1" height="1" fill="#FFFCBC" />
<rect x="14" y="10" width="1" height="1" fill="#FFFCBC" />
<rect x="15" y="10" width="1" height="1" fill="#FFFCBC" />
<rect x="18" y="10" width="1" height="1" fill="#FFFCBC" />
<rect x="19" y="10" width="1" height="1" fill="#FFFCBC" />
<rect x="21" y="10" width="1" height="1" fill="#FFFCBC" />
<rect x="22" y="10" width="1" height="1" fill="#FFFCBC" />
<rect x="23" y="10" width="1" height="1" fill="#FFFCBC" />
<rect x="26" y="10" width="1" height="1" fill="#FFFCBC" />
<rect x="30" y="10" width="1" height="1" fill="#FFFCBC" />
<rect x="54" y="10" width="1" height="1" fill="#FFFCBC" opacity="0.262745" />
<rect x="55" y="10" width="1" height="1" fill="#FFFCBC" opacity="0.737255" />
<rect x="56" y="10" width="1" height="1" fill="#FFFCBC" />
<rect x="57" y="10" width="1" height="1" fill="#FFFCBC" />
<rect x="58" y="10" width="1" height="1" fill="#FFFCBC" />
<rect x="59" y="10" width="1" height="1" fill="#FFFCBC" />
<rect x="60" y="10" width="1" height="1" fill="#FFFCBC" />
<rect x="61" y="10" width="1" height="1" fill="#FFFCBC" opacity="0.737255" />
<rect x="62" y="10" width="1" height="1" fill="#FFFCBC" opacity="0.262745" />
<rect x="2" y="11" width="1" height="1" fill="#FFFCBC" />
<rect x="7" y="11" width="1" height="1" fill="#FFFCBC" />
<rect x="9" y="11" width="1" height="1" fill="#FFFCBC" />
<rect x="12" y="11" width="1" height="1" fill="#FFFCBC" />
<rect x="14" y="11" width="1" height="1" fill="#FFFCBC" />
<rect x="16" y="11" width="1" height="1" fill="#FFFCBC" />
<rect x="17" y="11" width="1" height="1" fill="#FFFCBC" />
<rect x="19" y="11" width="1" height="1" fill="#FFFCBC" />
<rect x="21" y="11" width="1" height="1" fill="#FFFCBC" />
<rect x="26" y="11" width="1" height="1" fill="#FFFCBC" />
<rect x="30" y="11" width="1" height="1" fill="#FFFCBC" />
<rect x="54" y="11" width="1" height="1" fill="#FFFCBC" opacity="0.172549" />
<rect x="55" y="11" width="1" height="1" fill="#FFFCBC" opacity="0.647059" />
<rect x="56" y="11" width="1" height="1" fill="#FFFCBC" opacity="0.909804" />
<rect x="57" y="11" width="1" height="1" fill="#FFFCBC" />
<rect x="58" y="11" width="1" height="1" fill="#FFFCBC" />
<rect x="59" y="11" width="1" height="1" fill="#FFFCBC" />
<rect x="60" y="11" width="1" height="1" fill="#FFFCBC" opacity="0.909804" />
<rect x="61" y="11" width="1" height="1" fill="#FFFCBC" opacity="0.647059" />
<rect x="62" y="11" width="1" height="1" fill="#FFFCBC" opacity="0.172549" />
<rect x="2" y="12" width="1" height="1" fill="#FFFCBC" />
<rect x="7" y="12" width="1" height="1" fill="#FFFCBC" />
<rect x="9" y="12" width="1" height="1" fill="#FFFCBC" />
<rect x="12" y="12" width="1" height="1" fill="#FFFCBC" />
<rect x="14" y="12" width="1" height="1" fill="#FFFCBC" />
<rect x="19" y="12" width="1" height="1" fill="#FFFCBC" />
<rect x="21" y="12" width="1" height="1" fill="#FFFCBC" />
<rect x="26" y="12" width="1" height="1" fill="#FFFCBC" />
<rect x="30" y="12" width="1" height="1" fill="#FFFCBC" />
<rect x="41" y="12" width="1" height="1" fill="#FFFCBC" />
<rect x="42" y="12" width="1" height="1" fill="#FFFCBC" />
<rect x="54" y="12" width="1" height="1" fill="#FFFCBC" opacity="0.086275" />
<rect x="55" y="12" width="1" height="1" fill="#FFFCBC" opacity="0.262745" />
<rect x="56" y="12" width="1" height="1" fill="#FFFCBC" opacity="0.737255" />
<rect x="57" y="12" width="1" height="1" fill="#FFFCBC" opacity="0.909804" />
<rect x="58" y="12" width="1" height="1" fill="#FFFCBC" />
<rect x="59" y="12" width="1" height="1" fill="#FFFCBC" opacity="0.909804" />
<rect x="60" y="12" width="1" height="1" fill="#FFFCBC" opacity="0.737255" />
<rect x="61" y="12" width="1" height="1" fill="#FFFCBC" opacity="0.262745" />
<rect x="62" y="12" width="1" height="1" fill="#FFFCBC" opacity="0.086275" />
<rect x="2" y="13" width="1" height="1" fill="#FFFCBC" />
<rect x="3" y="13" width="1" height="1" fill="#FFFCBC" />
<rect x="4" y="13" width="1" height="1" fill="#FFFCBC" />
<rect x="5" y="13" width="1" height="1" fill="#FFFCBC" />
<rect x="6" y="13" width="1" height="1" fill="#FFFCBC" />
<rect x="7" y="13" width="1" height="1" fill="#FFFCBC" />
<rect x="9" y="13" width="1" height="1" fill="#FFFCBC" />
<rect x="10" y="13" width="1" height="1" fill="#FFFCBC" />
<rect x="11" y="13" width="1" height="1" fill="#FFFCBC" />
<rect x="12" y="13" width="1" height="1" fill="#FFFCBC" />
<rect x="14" y="13" width="1" height="1" fill="#FFFCBC" />
<rect x="19" y="13" width="1" height="1" fill="#FFFCBC" />
<rect x="21" y="13" width="1" height="1" fill="#FFFCBC" />
<rect x="22" y="13" width="1" height="1" fill="#FFFCBC" />
<rect x="23" y="13" width="1" height="1" fill="#FFFCBC" />
<rect x="24" y="13" width="1" height="1" fill="#FFFCBC" />
<rect x="26" y="13" width="1" height="1" fill="#FFFCBC" />
<rect x="30" y="13" width="1" height="1" fill="#FFFCBC" />
<rect x="41" y="13" width="1" height="1" fill="#FFFCBC" />
<rect x="42" y="13" width="1" height="1" fill="#FFFCBC" />
<rect x="55" y="13" width="1" height="1" fill="#FFFCBC" opacity="0.086275" />
<rect x="56" y="13" width="1" height="1" fill="#FFFCBC" opacity="0.262745" />
<rect x="57" y="13" width="1" height="1" fill="#FFFCBC" opacity="0.647059" />
<rect x="58" y="13" width="1" height="1" fill="#FFFCBC" opacity="0.737255" />
<rect x="59" y="13" width="1" height="1" fill="#FFFCBC" opacity="0.647059" />
<rect x="60" y="13" width="1" height="1" fill="#FFFCBC" opacity="0.262745" />
<rect x="61" y="13" width="1" height="1" fill="#FFFCBC" opacity="0.086275" />
<rect x="56" y="14" width="1" height="1" fill="#FFFCBC" opacity="0.086275" />
<rect x="57" y="14" width="1" height="1" fill="#FFFCBC" opacity="0.172549" />
<rect x="58" y="14" width="1" height="1" fill="#FFFCBC" opacity="0.262745" />
<rect x="59" y="14" width="1" height="1" fill="#FFFCBC" opacity="0.172549" />
<rect x="60" y="14" width="1" height="1" fill="#FFFCBC" opacity="0.086275" />
</svg>