<?xml version="1.0" encoding="UTF-8" ?>
<svg version="1.1" width="8" height="8" xmlns="http://www.w3.org/2000/svg" shape-rendering="crispEdges">
<rect x="3" y="2" width="1" height="1" fill="#07060D" />
<rect x="4" y="2" width="1" height="1" fill="#07060D" />
<rect x="5" y="2" width="1" height="1" fill="#07060D" />
<rect x="1" y="3" width="1" height="1" fill="#07060D" />
<rect x="2" y="3" width="1" height="1" fill="#07060D" />
<rect x="3" y="3" width="1" height="1" fill="#07060D" />
<rect x="4" y="3" width="1" height="1" fill="#07060D" />
<rect x="5" y="3" width="1" height="1" fill="#07060D" />
<rect x="6" y="3" width="1" height="1" fill="#07060D" />
<rect x="1" y="4" width="1" height="1" fill="#07060D" />
<rect x="2" y="4" width="1" height="1" fill="#07060D" />
<rect x="3" y="4" width="1" height="1" fill="#07060D" />
<rect x="4" y="4" width="1" height="1" fill="#5B558B" />
<rect x="5" y="4" width="1" height="1" fill="#5B558B" />
<rect x="6" y="4" width="1" height="1" fill="#07060D" />
<rect x="0" y="5" width="1" height="1" fill="#07060D" />
<rect x="1" y="5" width="1" height="1" fill="#07060D" />
<rect x="2" y="5" width="1" height="1" fill="#07060D" />
<rect x="3" y="5" width="1" height="1" fill="#07060D" />
<rect x="4" y="5" width="1" height="1" fill="#5B558B" />
<rect x="5" y="5" width="1" height="1" fill="#5B558B" />
<rect x="6" y="5" width="1" height="1" fill="#07060D" />
<rect x="0" y="6" width="1" height="1" fill="#07060D" />
<rect x="1" y="6" width="1" height="1" fill="#07060D" />
<rect x="2" y="6" width="1" height="1" fill="#07060D" />
<rect x="3" y="6" width="1" height="1" fill="#07060D" />
<rect x="4" y="6" width="1" height="1" fill="#07060D" />
<rect x="5" y="6" width="1" height="1" fill="#07060D" />
<rect x="6" y="6" width="1" height="1" fill="#07060D" />
<rect x="0" y="7" width="1" height="1" fill="#07060D" />
<rect x="4" y="7" width="1" height="1" fill="#07060D" />
<rect x="6" y="7" width="1" height="1" fill="#07060D" />
</svg>