<?xml version="1.0" encoding="UTF-8" ?>
<svg version="1.1" width="16" height="16" xmlns="http://www.w3.org/2000/svg" shape-rendering="crispEdges">
<rect x="3" y="0" width="1" height="1" fill="#0040FF" opacity="0.003922" />
<rect x="4" y="0" width="1" height="1" fill="#0040FF" opacity="0.011765" />
<rect x="5" y="0" width="1" height="1" fill="#0040FF" opacity="0.019608" />
<rect x="6" y="0" width="1" height="1" fill="#0040FF" opacity="0.031373" />
<rect x="7" y="0" width="1" height="1" fill="#0040FF" opacity="0.035294" />
<rect x="8" y="0" width="1" height="1" fill="#0040FF" opacity="0.035294" />
<rect x="9" y="0" width="1" height="1" fill="#0040FF" opacity="0.031373" />
<rect x="10" y="0" width="1" height="1" fill="#0040FF" opacity="0.019608" />
<rect x="11" y="0" width="1" height="1" fill="#0040FF" opacity="0.011765" />
<rect x="12" y="0" width="1" height="1" fill="#0040FF" opacity="0.003922" />
<rect x="2" y="1" width="1" height="1" fill="#0040FF" opacity="0.007843" />
<rect x="3" y="1" width="1" height="1" fill="#0040FF" opacity="0.015686" />
<rect x="4" y="1" width="1" height="1" fill="#0040FF" opacity="0.031373" />
<rect x="5" y="1" width="1" height="1" fill="#0040FF" opacity="0.047059" />
<rect x="6" y="1" width="1" height="1" fill="#0040FF" opacity="0.058824" />
<rect x="7" y="1" width="1" height="1" fill="#0040FF" opacity="0.066667" />
<rect x="8" y="1" width="1" height="1" fill="#0040FF" opacity="0.066667" />
<rect x="9" y="1" width="1" height="1" fill="#0040FF" opacity="0.058824" />
<rect x="10" y="1" width="1" height="1" fill="#0040FF" opacity="0.047059" />
<rect x="11" y="1" width="1" height="1" fill="#0040FF" opacity="0.031373" />
<rect x="12" y="1" width="1" height="1" fill="#0040FF" opacity="0.015686" />
<rect x="13" y="1" width="1" height="1" fill="#0040FF" opacity="0.007843" />
<rect x="1" y="2" width="1" height="1" fill="#0040FF" opacity="0.007843" />
<rect x="2" y="2" width="1" height="1" fill="#0040FF" opacity="0.019608" />
<rect x="3" y="2" width="1" height="1" fill="#0040FF" opacity="0.039216" />
<rect x="4" y="2" width="1" height="1" fill="#0040FF" opacity="0.070588" />
<rect x="5" y="2" width="1" height="1" fill="#0040FF" opacity="0.101961" />
<rect x="6" y="2" width="1" height="1" fill="#0040FF" opacity="0.133333" />
<rect x="7" y="2" width="1" height="1" fill="#0040FF" opacity="0.149020" />
<rect x="8" y="2" width="1" height="1" fill="#0040FF" opacity="0.149020" />
<rect x="9" y="2" width="1" height="1" fill="#0040FF" opacity="0.133333" />
<rect x="10" y="2" width="1" height="1" fill="#0040FF" opacity="0.101961" />
<rect x="11" y="2" width="1" height="1" fill="#0040FF" opacity="0.070588" />
<rect x="12" y="2" width="1" height="1" fill="#0040FF" opacity="0.039216" />
<rect x="13" y="2" width="1" height="1" fill="#0040FF" opacity="0.019608" />
<rect x="14" y="2" width="1" height="1" fill="#0040FF" opacity="0.007843" />
<rect x="0" y="3" width="1" height="1" fill="#0040FF" opacity="0.003922" />
<rect x="1" y="3" width="1" height="1" fill="#0040FF" opacity="0.015686" />
<rect x="2" y="3" width="1" height="1" fill="#0040FF" opacity="0.039216" />
<rect x="3" y="3" width="1" height="1" fill="#0040FF" opacity="0.078431" />
<rect x="4" y="3" width="1" height="1" fill="#0040FF" opacity="0.133333" />
<rect x="5" y="3" width="1" height="1" fill="#0040FF" opacity="0.192157" />
<rect x="6" y="3" width="1" height="1" fill="#0040FF" opacity="0.239216" />
<rect x="7" y="3" width="1" height="1" fill="#0040FF" opacity="0.266667" />
<rect x="8" y="3" width="1" height="1" fill="#0040FF" opacity="0.266667" />
<rect x="9" y="3" width="1" height="1" fill="#0040FF" opacity="0.239216" />
<rect x="10" y="3" width="1" height="1" fill="#0040FF" opacity="0.192157" />
<rect x="11" y="3" width="1" height="1" fill="#0040FF" opacity="0.133333" />
<rect x="12" y="3" width="1" height="1" fill="#0040FF" opacity="0.078431" />
<rect x="13" y="3" width="1" height="1" fill="#0040FF" opacity="0.039216" />
<rect x="14" y="3" width="1" height="1" fill="#0040FF" opacity="0.015686" />
<rect x="15" y="3" width="1" height="1" fill="#0040FF" opacity="0.003922" />
<rect x="0" y="4" width="1" height="1" fill="#0040FF" opacity="0.011765" />
<rect x="1" y="4" width="1" height="1" fill="#0040FF" opacity="0.031373" />
<rect x="2" y="4" width="1" height="1" fill="#0040FF" opacity="0.070588" />
<rect x="3" y="4" width="1" height="1" fill="#0040FF" opacity="0.133333" />
<rect x="4" y="4" width="1" height="1" fill="#0040FF" opacity="0.211765" />
<rect x="5" y="4" width="1" height="1" fill="#0040FF" opacity="0.298039" />
<rect x="6" y="4" width="1" height="1" fill="#0040FF" opacity="0.372549" />
<rect x="7" y="4" width="1" height="1" fill="#0040FF" opacity="0.411765" />
<rect x="8" y="4" width="1" height="1" fill="#0040FF" opacity="0.411765" />
<rect x="9" y="4" width="1" height="1" fill="#0040FF" opacity="0.372549" />
<rect x="10" y="4" width="1" height="1" fill="#0040FF" opacity="0.298039" />
<rect x="11" y="4" width="1" height="1" fill="#0040FF" opacity="0.211765" />
<rect x="12" y="4" width="1" height="1" fill="#0040FF" opacity="0.133333" />
<rect x="13" y="4" width="1" height="1" fill="#0040FF" opacity="0.070588" />
<rect x="14" y="4" width="1" height="1" fill="#0040FF" opacity="0.031373" />
<rect x="15" y="4" width="1" height="1" fill="#0040FF" opacity="0.011765" />
<rect x="0" y="5" width="1" height="1" fill="#0040FF" opacity="0.019608" />
<rect x="1" y="5" width="1" height="1" fill="#0040FF" opacity="0.047059" />
<rect x="2" y="5" width="1" height="1" fill="#0040FF" opacity="0.101961" />
<rect x="3" y="5" width="1" height="1" fill="#0040FF" opacity="0.192157" />
<rect x="4" y="5" width="1" height="1" fill="#0040FF" opacity="0.298039" />
<rect x="5" y="5" width="1" height="1" fill="#0040FF" opacity="0.407843" />
<rect x="6" y="5" width="1" height="1" fill="#0040FF" opacity="0.498039" />
<rect x="7" y="5" width="1" height="1" fill="#0040FF" opacity="0.552941" />
<rect x="8" y="5" width="1" height="1" fill="#0040FF" opacity="0.552941" />
<rect x="9" y="5" width="1" height="1" fill="#0040FF" opacity="0.498039" />
<rect x="10" y="5" width="1" height="1" fill="#0040FF" opacity="0.407843" />
<rect x="11" y="5" width="1" height="1" fill="#0040FF" opacity="0.298039" />
<rect x="12" y="5" width="1" height="1" fill="#0040FF" opacity="0.192157" />
<rect x="13" y="5" width="1" height="1" fill="#0040FF" opacity="0.101961" />
<rect x="14" y="5" width="1" height="1" fill="#0040FF" opacity="0.047059" />
<rect x="15" y="5" width="1" height="1" fill="#0040FF" opacity="0.019608" />
<rect x="0" y="6" width="1" height="1" fill="#0040FF" opacity="0.031373" />
<rect x="1" y="6" width="1" height="1" fill="#0040FF" opacity="0.058824" />
<rect x="2" y="6" width="1" height="1" fill="#0040FF" opacity="0.133333" />
<rect x="3" y="6" width="1" height="1" fill="#0040FF" opacity="0.239216" />
<rect x="4" y="6" width="1" height="1" fill="#0040FF" opacity="0.372549" />
<rect x="5" y="6" width="1" height="1" fill="#0040FF" opacity="0.498039" />
<rect x="6" y="6" width="1" height="1" fill="#0040FF" opacity="0.603922" />
<rect x="7" y="6" width="1" height="1" fill="#0040FF" opacity="0.662745" />
<rect x="8" y="6" width="1" height="1" fill="#0040FF" opacity="0.662745" />
<rect x="9" y="6" width="1" height="1" fill="#0040FF" opacity="0.603922" />
<rect x="10" y="6" width="1" height="1" fill="#0040FF" opacity="0.498039" />
<rect x="11" y="6" width="1" height="1" fill="#0040FF" opacity="0.372549" />
<rect x="12" y="6" width="1" height="1" fill="#0040FF" opacity="0.239216" />
<rect x="13" y="6" width="1" height="1" fill="#0040FF" opacity="0.133333" />
<rect x="14" y="6" width="1" height="1" fill="#0040FF" opacity="0.058824" />
<rect x="15" y="6" width="1" height="1" fill="#0040FF" opacity="0.031373" />
<rect x="0" y="7" width="1" height="1" fill="#0040FF" opacity="0.035294" />
<rect x="1" y="7" width="1" height="1" fill="#0040FF" opacity="0.066667" />
<rect x="2" y="7" width="1" height="1" fill="#0040FF" opacity="0.149020" />
<rect x="3" y="7" width="1" height="1" fill="#0040FF" opacity="0.266667" />
<rect x="4" y="7" width="1" height="1" fill="#0040FF" opacity="0.411765" />
<rect x="5" y="7" width="1" height="1" fill="#0040FF" opacity="0.552941" />
<rect x="6" y="7" width="1" height="1" fill="#0040FF" opacity="0.662745" />
<rect x="7" y="7" width="1" height="1" fill="#0040FF" opacity="0.725490" />
<rect x="8" y="7" width="1" height="1" fill="#0040FF" opacity="0.725490" />
<rect x="9" y="7" width="1" height="1" fill="#0040FF" opacity="0.662745" />
<rect x="10" y="7" width="1" height="1" fill="#0040FF" opacity="0.552941" />
<rect x="11" y="7" width="1" height="1" fill="#0040FF" opacity="0.411765" />
<rect x="12" y="7" width="1" height="1" fill="#0040FF" opacity="0.266667" />
<rect x="13" y="7" width="1" height="1" fill="#0040FF" opacity="0.149020" />
<rect x="14" y="7" width="1" height="1" fill="#0040FF" opacity="0.066667" />
<rect x="15" y="7" width="1" height="1" fill="#0040FF" opacity="0.035294" />
<rect x="0" y="8" width="1" height="1" fill="#0040FF" opacity="0.035294" />
<rect x="1" y="8" width="1" height="1" fill="#0040FF" opacity="0.066667" />
<rect x="2" y="8" width="1" height="1" fill="#0040FF" opacity="0.149020" />
<rect x="3" y="8" width="1" height="1" fill="#0040FF" opacity="0.266667" />
<rect x="4" y="8" width="1" height="1" fill="#0040FF" opacity="0.411765" />
<rect x="5" y="8" width="1" height="1" fill="#0040FF" opacity="0.552941" />
<rect x="6" y="8" width="1" height="1" fill="#0040FF" opacity="0.662745" />
<rect x="7" y="8" width="1" height="1" fill="#0040FF" opacity="0.725490" />
<rect x="8" y="8" width="1" height="1" fill="#0040FF" opacity="0.725490" />
<rect x="9" y="8" width="1" height="1" fill="#0040FF" opacity="0.662745" />
<rect x="10" y="8" width="1" height="1" fill="#0040FF" opacity="0.552941" />
<rect x="11" y="8" width="1" height="1" fill="#0040FF" opacity="0.411765" />
<rect x="12" y="8" width="1" height="1" fill="#0040FF" opacity="0.266667" />
<rect x="13" y="8" width="1" height="1" fill="#0040FF" opacity="0.149020" />
<rect x="14" y="8" width="1" height="1" fill="#0040FF" opacity="0.066667" />
<rect x="15" y="8" width="1" height="1" fill="#0040FF" opacity="0.035294" />
<rect x="0" y="9" width="1" height="1" fill="#0040FF" opacity="0.031373" />
<rect x="1" y="9" width="1" height="1" fill="#0040FF" opacity="0.058824" />
<rect x="2" y="9" width="1" height="1" fill="#0040FF" opacity="0.133333" />
<rect x="3" y="9" width="1" height="1" fill="#0040FF" opacity="0.239216" />
<rect x="4" y="9" width="1" height="1" fill="#0040FF" opacity="0.372549" />
<rect x="5" y="9" width="1" height="1" fill="#0040FF" opacity="0.498039" />
<rect x="6" y="9" width="1" height="1" fill="#0040FF" opacity="0.603922" />
<rect x="7" y="9" width="1" height="1" fill="#0040FF" opacity="0.662745" />
<rect x="8" y="9" width="1" height="1" fill="#0040FF" opacity="0.662745" />
<rect x="9" y="9" width="1" height="1" fill="#0040FF" opacity="0.603922" />
<rect x="10" y="9" width="1" height="1" fill="#0040FF" opacity="0.498039" />
<rect x="11" y="9" width="1" height="1" fill="#0040FF" opacity="0.372549" />
<rect x="12" y="9" width="1" height="1" fill="#0040FF" opacity="0.239216" />
<rect x="13" y="9" width="1" height="1" fill="#0040FF" opacity="0.133333" />
<rect x="14" y="9" width="1" height="1" fill="#0040FF" opacity="0.058824" />
<rect x="15" y="9" width="1" height="1" fill="#0040FF" opacity="0.031373" />
<rect x="0" y="10" width="1" height="1" fill="#0040FF" opacity="0.019608" />
<rect x="1" y="10" width="1" height="1" fill="#0040FF" opacity="0.047059" />
<rect x="2" y="10" width="1" height="1" fill="#0040FF" opacity="0.101961" />
<rect x="3" y="10" width="1" height="1" fill="#0040FF" opacity="0.192157" />
<rect x="4" y="10" width="1" height="1" fill="#0040FF" opacity="0.298039" />
<rect x="5" y="10" width="1" height="1" fill="#0040FF" opacity="0.407843" />
<rect x="6" y="10" width="1" height="1" fill="#0040FF" opacity="0.498039" />
<rect x="7" y="10" width="1" height="1" fill="#0040FF" opacity="0.552941" />
<rect x="8" y="10" width="1" height="1" fill="#0040FF" opacity="0.552941" />
<rect x="9" y="10" width="1" height="1" fill="#0040FF" opacity="0.498039" />
<rect x="10" y="10" width="1" height="1" fill="#0040FF" opacity="0.407843" />
<rect x="11" y="10" width="1" height="1" fill="#0040FF" opacity="0.298039" />
<rect x="12" y="10" width="1" height="1" fill="#0040FF" opacity="0.192157" />
<rect x="13" y="10" width="1" height="1" fill="#0040FF" opacity="0.101961" />
<rect x="14" y="10" width="1" height="1" fill="#0040FF" opacity="0.047059" />
<rect x="15" y="10" width="1" height="1" fill="#0040FF" opacity="0.019608" />
<rect x="0" y="11" width="1" height="1" fill="#0040FF" opacity="0.011765" />
<rect x="1" y="11" width="1" height="1" fill="#0040FF" opacity="0.031373" />
<rect x="2" y="11" width="1" height="1" fill="#0040FF" opacity="0.070588" />
<rect x="3" y="11" width="1" height="1" fill="#0040FF" opacity="0.133333" />
<rect x="4" y="11" width="1" height="1" fill="#0040FF" opacity="0.211765" />
<rect x="5" y="11" width="1" height="1" fill="#0040FF" opacity="0.298039" />
<rect x="6" y="11" width="1" height="1" fill="#0040FF" opacity="0.372549" />
<rect x="7" y="11" width="1" height="1" fill="#0040FF" opacity="0.411765" />
<rect x="8" y="11" width="1" height="1" fill="#0040FF" opacity="0.411765" />
<rect x="9" y="11" width="1" height="1" fill="#0040FF" opacity="0.372549" />
<rect x="10" y="11" width="1" height="1" fill="#0040FF" opacity="0.298039" />
<rect x="11" y="11" width="1" height="1" fill="#0040FF" opacity="0.211765" />
<rect x="12" y="11" width="1" height="1" fill="#0040FF" opacity="0.133333" />
<rect x="13" y="11" width="1" height="1" fill="#0040FF" opacity="0.070588" />
<rect x="14" y="11" width="1" height="1" fill="#0040FF" opacity="0.031373" />
<rect x="15" y="11" width="1" height="1" fill="#0040FF" opacity="0.011765" />
<rect x="0" y="12" width="1" height="1" fill="#0040FF" opacity="0.003922" />
<rect x="1" y="12" width="1" height="1" fill="#0040FF" opacity="0.015686" />
<rect x="2" y="12" width="1" height="1" fill="#0040FF" opacity="0.039216" />
<rect x="3" y="12" width="1" height="1" fill="#0040FF" opacity="0.078431" />
<rect x="4" y="12" width="1" height="1" fill="#0040FF" opacity="0.133333" />
<rect x="5" y="12" width="1" height="1" fill="#0040FF" opacity="0.192157" />
<rect x="6" y="12" width="1" height="1" fill="#0040FF" opacity="0.239216" />
<rect x="7" y="12" width="1" height="1" fill="#0040FF" opacity="0.266667" />
<rect x="8" y="12" width="1" height="1" fill="#0040FF" opacity="0.266667" />
<rect x="9" y="12" width="1" height="1" fill="#0040FF" opacity="0.239216" />
<rect x="10" y="12" width="1" height="1" fill="#0040FF" opacity="0.192157" />
<rect x="11" y="12" width="1" height="1" fill="#0040FF" opacity="0.133333" />
<rect x="12" y="12" width="1" height="1" fill="#0040FF" opacity="0.078431" />
<rect x="13" y="12" width="1" height="1" fill="#0040FF" opacity="0.039216" />
<rect x="14" y="12" width="1" height="1" fill="#0040FF" opacity="0.015686" />
<rect x="15" y="12" width="1" height="1" fill="#0040FF" opacity="0.003922" />
<rect x="1" y="13" width="1" height="1" fill="#0040FF" opacity="0.007843" />
<rect x="2" y="13" width="1" height="1" fill="#0040FF" opacity="0.019608" />
<rect x="3" y="13" width="1" height="1" fill="#0040FF" opacity="0.039216" />
<rect x="4" y="13" width="1" height="1" fill="#0040FF" opacity="0.070588" />
<rect x="5" y="13" width="1" height="1" fill="#0040FF" opacity="0.101961" />
<rect x="6" y="13" width="1" height="1" fill="#0040FF" opacity="0.133333" />
<rect x="7" y="13" width="1" height="1" fill="#0040FF" opacity="0.149020" />
<rect x="8" y="13" width="1" height="1" fill="#0040FF" opacity="0.149020" />
<rect x="9" y="13" width="1" height="1" fill="#0040FF" opacity="0.133333" />
<rect x="10" y="13" width="1" height="1" fill="#0040FF" opacity="0.101961" />
<rect x="11" y="13" width="1" height="1" fill="#0040FF" opacity="0.070588" />
<rect x="12" y="13" width="1" height="1" fill="#0040FF" opacity="0.039216" />
<rect x="13" y="13" width="1" height="1" fill="#0040FF" opacity="0.019608" />
<rect x="14" y="13" width="1" height="1" fill="#0040FF" opacity="0.007843" />
<rect x="2" y="14" width="1" height="1" fill="#0040FF" opacity="0.007843" />
<rect x="3" y="14" width="1" height="1" fill="#0040FF" opacity="0.015686" />
<rect x="4" y="14" width="1" height="1" fill="#0040FF" opacity="0.031373" />
<rect x="5" y="14" width="1" height="1" fill="#0040FF" opacity="0.047059" />
<rect x="6" y="14" width="1" height="1" fill="#0040FF" opacity="0.058824" />
<rect x="7" y="14" width="1" height="1" fill="#0040FF" opacity="0.066667" />
<rect x="8" y="14" width="1" height="1" fill="#0040FF" opacity="0.066667" />
<rect x="9" y="14" width="1" height="1" fill="#0040FF" opacity="0.058824" />
<rect x="10" y="14" width="1" height="1" fill="#0040FF" opacity="0.047059" />
<rect x="11" y="14" width="1" height="1" fill="#0040FF" opacity="0.031373" />
<rect x="12" y="14" width="1" height="1" fill="#0040FF" opacity="0.015686" />
<rect x="13" y="14" width="1" height="1" fill="#0040FF" opacity="0.007843" />
<rect x="3" y="15" width="1" height="1" fill="#0040FF" opacity="0.003922" />
<rect x="4" y="15" width="1" height="1" fill="#0040FF" opacity="0.011765" />
<rect x="5" y="15" width="1" height="1" fill="#0040FF" opacity="0.019608" />
<rect x="6" y="15" width="1" height="1" fill="#0040FF" opacity="0.031373" />
<rect x="7" y="15" width="1" height="1" fill="#0040FF" opacity="0.035294" />
<rect x="8" y="15" width="1" height="1" fill="#0040FF" opacity="0.035294" />
<rect x="9" y="15" width="1" height="1" fill="#0040FF" opacity="0.031373" />
<rect x="10" y="15" width="1" height="1" fill="#0040FF" opacity="0.019608" />
<rect x="11" y="15" width="1" height="1" fill="#0040FF" opacity="0.011765" />
<rect x="12" y="15" width="1" height="1" fill="#0040FF" opacity="0.003922" />
</svg>