<?xml version="1.0" encoding="UTF-8" ?>
<svg version="1.1" width="16" height="16" xmlns="http://www.w3.org/2000/svg" shape-rendering="crispEdges">
<rect x="3" y="1" width="1" height="1" fill="#FEEBB1" opacity="0.003922" />
<rect x="4" y="1" width="1" height="1" fill="#FDECB3" opacity="0.007843" />
<rect x="5" y="1" width="1" height="1" fill="#FDECB5" opacity="0.011765" />
<rect x="6" y="1" width="1" height="1" fill="#FDEDB7" opacity="0.015686" />
<rect x="7" y="1" width="1" height="1" fill="#FDEDB7" opacity="0.015686" />
<rect x="8" y="1" width="1" height="1" fill="#FDEDB6" opacity="0.015686" />
<rect x="9" y="1" width="1" height="1" fill="#FDECB4" opacity="0.011765" />
<rect x="10" y="1" width="1" height="1" fill="#FDECB2" opacity="0.007843" />
<rect x="11" y="1" width="1" height="1" fill="#FDEBB1" opacity="0.003922" />
<rect x="2" y="2" width="1" height="1" fill="#FEEBB1" opacity="0.003922" />
<rect x="3" y="2" width="1" height="1" fill="#FEEBB2" opacity="0.015686" />
<rect x="4" y="2" width="1" height="1" fill="#FDECB4" opacity="0.035294" />
<rect x="5" y="2" width="1" height="1" fill="#FDECB6" opacity="0.054902" />
<rect x="6" y="2" width="1" height="1" fill="#FDEDB8" opacity="0.066667" />
<rect x="7" y="2" width="1" height="1" fill="#FDEDB8" opacity="0.074510" />
<rect x="8" y="2" width="1" height="1" fill="#FDEDB7" opacity="0.066667" />
<rect x="9" y="2" width="1" height="1" fill="#FDECB5" opacity="0.054902" />
<rect x="10" y="2" width="1" height="1" fill="#FDECB3" opacity="0.039216" />
<rect x="11" y="2" width="1" height="1" fill="#FDEBB1" opacity="0.023529" />
<rect x="12" y="2" width="1" height="1" fill="#FDEBB1" opacity="0.007843" />
<rect x="1" y="3" width="1" height="1" fill="#FEEBB2" opacity="0.003922" />
<rect x="2" y="3" width="1" height="1" fill="#FEEBB2" opacity="0.015686" />
<rect x="3" y="3" width="1" height="1" fill="#FEEBB3" opacity="0.047059" />
<rect x="4" y="3" width="1" height="1" fill="#FDECB5" opacity="0.094118" />
<rect x="5" y="3" width="1" height="1" fill="#FDEDB7" opacity="0.141176" />
<rect x="6" y="3" width="1" height="1" fill="#FDEDB9" opacity="0.176471" />
<rect x="7" y="3" width="1" height="1" fill="#FDEEBA" opacity="0.188235" />
<rect x="8" y="3" width="1" height="1" fill="#FDEDB8" opacity="0.176471" />
<rect x="9" y="3" width="1" height="1" fill="#FDEDB6" opacity="0.145098" />
<rect x="10" y="3" width="1" height="1" fill="#FDECB3" opacity="0.101961" />
<rect x="11" y="3" width="1" height="1" fill="#FDEBB2" opacity="0.058824" />
<rect x="12" y="3" width="1" height="1" fill="#FDEBB1" opacity="0.027451" />
<rect x="13" y="3" width="1" height="1" fill="#FDEBB1" opacity="0.007843" />
<rect x="1" y="4" width="1" height="1" fill="#FDECB5" opacity="0.007843" />
<rect x="2" y="4" width="1" height="1" fill="#FDECB5" opacity="0.035294" />
<rect x="3" y="4" width="1" height="1" fill="#FDECB6" opacity="0.094118" />
<rect x="4" y="4" width="1" height="1" fill="#FDEDB8" opacity="0.172549" />
<rect x="5" y="4" width="1" height="1" fill="#FDEEBB" opacity="0.254902" />
<rect x="6" y="4" width="1" height="1" fill="#FDEFBD" opacity="0.309804" />
<rect x="7" y="4" width="1" height="1" fill="#FEFEFC" />
<rect x="8" y="4" width="1" height="1" fill="#FEFEFC" />
<rect x="9" y="4" width="1" height="1" fill="#FEFEFC" />
<rect x="10" y="4" width="1" height="1" fill="#FDECB6" opacity="0.188235" />
<rect x="11" y="4" width="1" height="1" fill="#FDEBB3" opacity="0.117647" />
<rect x="12" y="4" width="1" height="1" fill="#FDEBB2" opacity="0.054902" />
<rect x="13" y="4" width="1" height="1" fill="#FDEBB2" opacity="0.019608" />
<rect x="1" y="5" width="1" height="1" fill="#FDEEB8" opacity="0.011765" />
<rect x="2" y="5" width="1" height="1" fill="#FDEEB9" opacity="0.050980" />
<rect x="3" y="5" width="1" height="1" fill="#FDEEBA" opacity="0.137255" />
<rect x="4" y="5" width="1" height="1" fill="#FDEFBC" opacity="0.250980" />
<rect x="5" y="5" width="1" height="1" fill="#FDF0C0" opacity="0.364706" />
<rect x="6" y="5" width="1" height="1" fill="#FEFEFC" />
<rect x="7" y="5" width="1" height="1" fill="#FEFEFC" />
<rect x="8" y="5" width="1" height="1" fill="#FEFEFC" />
<rect x="9" y="5" width="1" height="1" fill="#FDEFBE" opacity="0.372549" />
<rect x="10" y="5" width="1" height="1" fill="#FDEDB9" opacity="0.282353" />
<rect x="11" y="5" width="1" height="1" fill="#FDECB6" opacity="0.180392" />
<rect x="12" y="5" width="1" height="1" fill="#FDEBB4" opacity="0.094118" />
<rect x="13" y="5" width="1" height="1" fill="#FDEBB3" opacity="0.031373" />
<rect x="14" y="5" width="1" height="1" fill="#FDEBB3" opacity="0.007843" />
<rect x="1" y="6" width="1" height="1" fill="#FDEFBC" opacity="0.015686" />
<rect x="2" y="6" width="1" height="1" fill="#FDF0BD" opacity="0.066667" />
<rect x="3" y="6" width="1" height="1" fill="#FDF0BE" opacity="0.176471" />
<rect x="4" y="6" width="1" height="1" fill="#FDF1C2" opacity="0.313725" />
<rect x="5" y="6" width="1" height="1" fill="#FEFEFC" />
<rect x="6" y="6" width="1" height="1" fill="#FEFEFC" />
<rect x="7" y="6" width="1" height="1" fill="#FEFEFC" />
<rect x="8" y="6" width="1" height="1" fill="#FEFEFC" />
<rect x="9" y="6" width="1" height="1" fill="#FEFEFC" />
<rect x="10" y="6" width="1" height="1" fill="#FDEEBD" opacity="0.349020" />
<rect x="11" y="6" width="1" height="1" fill="#FDEDB8" opacity="0.231373" />
<rect x="12" y="6" width="1" height="1" fill="#FDECB6" opacity="0.121569" />
<rect x="13" y="6" width="1" height="1" fill="#FDECB5" opacity="0.043137" />
<rect x="14" y="6" width="1" height="1" fill="#FDECB4" opacity="0.007843" />
<rect x="1" y="7" width="1" height="1" fill="#FDF0BE" opacity="0.015686" />
<rect x="2" y="7" width="1" height="1" fill="#FDF0C0" opacity="0.078431" />
<rect x="3" y="7" width="1" height="1" fill="#FDF1C1" opacity="0.196078" />
<rect x="4" y="7" width="1" height="1" fill="#FDF2C5" opacity="0.345098" />
<rect x="5" y="7" width="1" height="1" fill="#FEFEFC" />
<rect x="6" y="7" width="1" height="1" fill="#281410" />
<rect x="7" y="7" width="1" height="1" fill="#FEFEFC" />
<rect x="8" y="7" width="1" height="1" fill="#FEFEFC" />
<rect x="9" y="7" width="1" height="1" fill="#FEFEFC" />
<rect x="10" y="7" width="1" height="1" fill="#FDEFC0" opacity="0.384314" />
<rect x="11" y="7" width="1" height="1" fill="#FDEEBA" opacity="0.258824" />
<rect x="12" y="7" width="1" height="1" fill="#FDEDB7" opacity="0.137255" />
<rect x="13" y="7" width="1" height="1" fill="#FDECB6" opacity="0.050980" />
<rect x="14" y="7" width="1" height="1" fill="#FDECB5" opacity="0.011765" />
<rect x="1" y="8" width="1" height="1" fill="#FDF0BE" opacity="0.019608" />
<rect x="2" y="8" width="1" height="1" fill="#FDF0BF" opacity="0.078431" />
<rect x="3" y="8" width="1" height="1" fill="#FDF0C0" opacity="0.200000" />
<rect x="4" y="8" width="1" height="1" fill="#FDF1C4" opacity="0.352941" />
<rect x="5" y="8" width="1" height="1" fill="#FEFEFC" />
<rect x="6" y="8" width="1" height="1" fill="#281410" />
<rect x="7" y="8" width="1" height="1" fill="#FEFEFC" />
<rect x="8" y="8" width="1" height="1" fill="#FEFEFC" />
<rect x="9" y="8" width="1" height="1" fill="#FEFEFC" />
<rect x="10" y="8" width="1" height="1" fill="#FDEFC0" opacity="0.384314" />
<rect x="11" y="8" width="1" height="1" fill="#FDEEBB" opacity="0.254902" />
<rect x="12" y="8" width="1" height="1" fill="#FDEDB7" opacity="0.137255" />
<rect x="13" y="8" width="1" height="1" fill="#FDECB6" opacity="0.050980" />
<rect x="14" y="8" width="1" height="1" fill="#FDECB5" opacity="0.011765" />
<rect x="1" y="9" width="1" height="1" fill="#FDEEBA" opacity="0.015686" />
<rect x="2" y="9" width="1" height="1" fill="#FDEFBB" opacity="0.074510" />
<rect x="3" y="9" width="1" height="1" fill="#FDEFBD" opacity="0.188235" />
<rect x="4" y="9" width="1" height="1" fill="#FDF0C0" opacity="0.329412" />
<rect x="5" y="9" width="1" height="1" fill="#FEFEFC" />
<rect x="6" y="9" width="1" height="1" fill="#FEFEFC" />
<rect x="7" y="9" width="1" height="1" fill="#FEFEFC" />
<rect x="8" y="9" width="1" height="1" fill="#FEFEFC" />
<rect x="9" y="9" width="1" height="1" fill="#FBF9CF" />
<rect x="10" y="9" width="1" height="1" fill="#FDEFBE" opacity="0.349020" />
<rect x="11" y="9" width="1" height="1" fill="#FDEDB9" opacity="0.227451" />
<rect x="12" y="9" width="1" height="1" fill="#FDECB6" opacity="0.117647" />
<rect x="13" y="9" width="1" height="1" fill="#FDECB5" opacity="0.043137" />
<rect x="14" y="9" width="1" height="1" fill="#FDECB4" opacity="0.007843" />
<rect x="1" y="10" width="1" height="1" fill="#FDEDB7" opacity="0.011765" />
<rect x="2" y="10" width="1" height="1" fill="#FDEDB7" opacity="0.058824" />
<rect x="3" y="10" width="1" height="1" fill="#FDEDB8" opacity="0.152941" />
<rect x="4" y="10" width="1" height="1" fill="#FDEEBB" opacity="0.270588" />
<rect x="5" y="10" width="1" height="1" fill="#FDEFBF" opacity="0.380392" />
<rect x="6" y="10" width="1" height="1" fill="#FBF9CF" />
<rect x="7" y="10" width="1" height="1" fill="#FBF9CF" />
<rect x="8" y="10" width="1" height="1" fill="#FBF9CF" />
<rect x="9" y="10" width="1" height="1" fill="#FDEFBF" opacity="0.376471" />
<rect x="10" y="10" width="1" height="1" fill="#FDEDBA" opacity="0.282353" />
<rect x="11" y="10" width="1" height="1" fill="#FDECB6" opacity="0.180392" />
<rect x="12" y="10" width="1" height="1" fill="#FDEBB4" opacity="0.090196" />
<rect x="13" y="10" width="1" height="1" fill="#FDEBB3" opacity="0.031373" />
<rect x="1" y="11" width="1" height="1" fill="#FEECB4" opacity="0.007843" />
<rect x="2" y="11" width="1" height="1" fill="#FDECB5" opacity="0.039216" />
<rect x="3" y="11" width="1" height="1" fill="#FDECB5" opacity="0.101961" />
<rect x="4" y="11" width="1" height="1" fill="#FDEDB7" opacity="0.188235" />
<rect x="5" y="11" width="1" height="1" fill="#FDEEBA" opacity="0.266667" />
<rect x="6" y="11" width="1" height="1" fill="#FFFCB3" />
<rect x="7" y="11" width="1" height="1" fill="#FDEFBF" opacity="0.337255" />
<rect x="8" y="11" width="1" height="1" fill="#FBF9CF" />
<rect x="9" y="11" width="1" height="1" fill="#FDEEBB" opacity="0.266667" />
<rect x="10" y="11" width="1" height="1" fill="#FDECB7" opacity="0.196078" />
<rect x="11" y="11" width="1" height="1" fill="#FDEBB4" opacity="0.117647" />
<rect x="12" y="11" width="1" height="1" fill="#FDEBB2" opacity="0.054902" />
<rect x="13" y="11" width="1" height="1" fill="#FDEBB2" opacity="0.015686" />
<rect x="2" y="12" width="1" height="1" fill="#FDECB4" opacity="0.019608" />
<rect x="3" y="12" width="1" height="1" fill="#FDECB4" opacity="0.054902" />
<rect x="4" y="12" width="1" height="1" fill="#FDECB6" opacity="0.101961" />
<rect x="5" y="12" width="1" height="1" fill="#FDEDB8" opacity="0.149020" />
<rect x="6" y="12" width="1" height="1" fill="#FDEEBA" opacity="0.180392" />
<rect x="7" y="12" width="1" height="1" fill="#FDEEBB" opacity="0.192157" />
<rect x="8" y="12" width="1" height="1" fill="#FDEEBA" opacity="0.180392" />
<rect x="9" y="12" width="1" height="1" fill="#FDEDB8" opacity="0.149020" />
<rect x="10" y="12" width="1" height="1" fill="#FDECB5" opacity="0.105882" />
<rect x="11" y="12" width="1" height="1" fill="#FDEBB3" opacity="0.062745" />
<rect x="12" y="12" width="1" height="1" fill="#FDEBB1" opacity="0.027451" />
<rect x="3" y="13" width="1" height="1" fill="#FDECB4" opacity="0.019608" />
<rect x="4" y="13" width="1" height="1" fill="#FDECB5" opacity="0.039216" />
<rect x="5" y="13" width="1" height="1" fill="#FDEDB7" opacity="0.054902" />
<rect x="6" y="13" width="1" height="1" fill="#FDEDB9" opacity="0.070588" />
<rect x="7" y="13" width="1" height="1" fill="#FDEEBA" opacity="0.074510" />
<rect x="8" y="13" width="1" height="1" fill="#FDEDB9" opacity="0.070588" />
<rect x="9" y="13" width="1" height="1" fill="#FDEDB7" opacity="0.058824" />
<rect x="10" y="13" width="1" height="1" fill="#FDECB4" opacity="0.043137" />
<rect x="11" y="13" width="1" height="1" fill="#FDEBB2" opacity="0.023529" />
<rect x="5" y="14" width="1" height="1" fill="#FDEDB7" opacity="0.011765" />
<rect x="6" y="14" width="1" height="1" fill="#FDEDB8" opacity="0.015686" />
<rect x="7" y="14" width="1" height="1" fill="#FDEEB9" opacity="0.015686" />
<rect x="8" y="14" width="1" height="1" fill="#FDEDB8" opacity="0.015686" />
<rect x="9" y="14" width="1" height="1" fill="#FDEDB6" opacity="0.011765" />
</svg>