<?xml version="1.0" encoding="UTF-8" ?>
<svg version="1.1" width="32" height="128" xmlns="http://www.w3.org/2000/svg" shape-rendering="crispEdges">
<rect x="29" y="1" width="1" height="1" fill="#FFFCBC" />
<rect x="30" y="1" width="1" height="1" fill="#FFFCBC" />
<rect x="29" y="2" width="1" height="1" fill="#FFFCBC" />
<rect x="30" y="2" width="1" height="1" fill="#FFFCBC" />
<rect x="5" y="3" width="1" height="1" fill="#FFFCBC" />
<rect x="6" y="3" width="1" height="1" fill="#FFFCBC" />
<rect x="5" y="4" width="1" height="1" fill="#FFFCBC" />
<rect x="6" y="4" width="1" height="1" fill="#FFFCBC" />
<rect x="18" y="4" width="1" height="1" fill="#FFFCBC" />
<rect x="19" y="4" width="1" height="1" fill="#FFFCBC" />
<rect x="18" y="5" width="1" height="1" fill="#FFFCBC" />
<rect x="19" y="5" width="1" height="1" fill="#FFFCBC" />
<rect x="21" y="5" width="1" height="1" fill="#FFFCBC" opacity="0.086275" />
<rect x="22" y="5" width="1" height="1" fill="#FFFCBC" opacity="0.172549" />
<rect x="23" y="5" width="1" height="1" fill="#FFFCBC" opacity="0.262745" />
<rect x="24" y="5" width="1" height="1" fill="#FFFCBC" opacity="0.172549" />
<rect x="25" y="5" width="1" height="1" fill="#FFFCBC" opacity="0.086275" />
<rect x="2" y="6" width="1" height="1" fill="#FFFCBC" />
<rect x="3" y="6" width="1" height="1" fill="#FFFCBC" />
<rect x="20" y="6" width="1" height="1" fill="#FFFCBC" opacity="0.086275" />
<rect x="21" y="6" width="1" height="1" fill="#FFFCBC" opacity="0.262745" />
<rect x="22" y="6" width="1" height="1" fill="#FFFCBC" opacity="0.647059" />
<rect x="23" y="6" width="1" height="1" fill="#FFFCBC" opacity="0.737255" />
<rect x="24" y="6" width="1" height="1" fill="#FFFCBC" opacity="0.647059" />
<rect x="25" y="6" width="1" height="1" fill="#FFFCBC" opacity="0.262745" />
<rect x="26" y="6" width="1" height="1" fill="#FFFCBC" opacity="0.086275" />
<rect x="2" y="7" width="1" height="1" fill="#FFFCBC" />
<rect x="3" y="7" width="1" height="1" fill="#FFFCBC" />
<rect x="8" y="7" width="1" height="1" fill="#FFFCBC" />
<rect x="9" y="7" width="1" height="1" fill="#FFFCBC" />
<rect x="19" y="7" width="1" height="1" fill="#FFFCBC" opacity="0.086275" />
<rect x="20" y="7" width="1" height="1" fill="#FFFCBC" opacity="0.262745" />
<rect x="21" y="7" width="1" height="1" fill="#FFFCBC" opacity="0.737255" />
<rect x="22" y="7" width="1" height="1" fill="#FFFCBC" opacity="0.909804" />
<rect x="23" y="7" width="1" height="1" fill="#FFFCBC" />
<rect x="24" y="7" width="1" height="1" fill="#FFFCBC" opacity="0.909804" />
<rect x="25" y="7" width="1" height="1" fill="#FFFCBC" opacity="0.737255" />
<rect x="26" y="7" width="1" height="1" fill="#FFFCBC" opacity="0.262745" />
<rect x="27" y="7" width="1" height="1" fill="#FFFCBC" opacity="0.086275" />
<rect x="8" y="8" width="1" height="1" fill="#FFFCBC" />
<rect x="9" y="8" width="1" height="1" fill="#FFFCBC" />
<rect x="19" y="8" width="1" height="1" fill="#FFFCBC" opacity="0.172549" />
<rect x="20" y="8" width="1" height="1" fill="#FFFCBC" opacity="0.647059" />
<rect x="21" y="8" width="1" height="1" fill="#FFFCBC" opacity="0.909804" />
<rect x="22" y="8" width="1" height="1" fill="#FFFCBC" />
<rect x="23" y="8" width="1" height="1" fill="#FFFCBC" />
<rect x="24" y="8" width="1" height="1" fill="#FFFCBC" />
<rect x="25" y="8" width="1" height="1" fill="#FFFCBC" opacity="0.909804" />
<rect x="26" y="8" width="1" height="1" fill="#FFFCBC" opacity="0.647059" />
<rect x="27" y="8" width="1" height="1" fill="#FFFCBC" opacity="0.172549" />
<rect x="19" y="9" width="1" height="1" fill="#FFFCBC" opacity="0.262745" />
<rect x="20" y="9" width="1" height="1" fill="#FFFCBC" opacity="0.737255" />
<rect x="21" y="9" width="1" height="1" fill="#FFFCBC" />
<rect x="22" y="9" width="1" height="1" fill="#FFFCBC" />
<rect x="23" y="9" width="1" height="1" fill="#FFFCBC" />
<rect x="24" y="9" width="1" height="1" fill="#FFFCBC" />
<rect x="25" y="9" width="1" height="1" fill="#FFFCBC" />
<rect x="26" y="9" width="1" height="1" fill="#FFFCBC" opacity="0.737255" />
<rect x="27" y="9" width="1" height="1" fill="#FFFCBC" opacity="0.262745" />
<rect x="1" y="10" width="1" height="1" fill="#FFFCBC" />
<rect x="2" y="10" width="1" height="1" fill="#FFFCBC" />
<rect x="19" y="10" width="1" height="1" fill="#FFFCBC" opacity="0.172549" />
<rect x="20" y="10" width="1" height="1" fill="#FFFCBC" opacity="0.647059" />
<rect x="21" y="10" width="1" height="1" fill="#FFFCBC" opacity="0.909804" />
<rect x="22" y="10" width="1" height="1" fill="#FFFCBC" />
<rect x="23" y="10" width="1" height="1" fill="#FFFCBC" />
<rect x="24" y="10" width="1" height="1" fill="#FFFCBC" />
<rect x="25" y="10" width="1" height="1" fill="#FFFCBC" opacity="0.909804" />
<rect x="26" y="10" width="1" height="1" fill="#FFFCBC" opacity="0.647059" />
<rect x="27" y="10" width="1" height="1" fill="#FFFCBC" opacity="0.172549" />
<rect x="28" y="10" width="1" height="1" fill="#FFFCBC" />
<rect x="29" y="10" width="1" height="1" fill="#FFFCBC" />
<rect x="1" y="11" width="1" height="1" fill="#FFFCBC" />
<rect x="2" y="11" width="1" height="1" fill="#FFFCBC" />
<rect x="19" y="11" width="1" height="1" fill="#FFFCBC" opacity="0.086275" />
<rect x="20" y="11" width="1" height="1" fill="#FFFCBC" opacity="0.262745" />
<rect x="21" y="11" width="1" height="1" fill="#FFFCBC" opacity="0.737255" />
<rect x="22" y="11" width="1" height="1" fill="#FFFCBC" opacity="0.909804" />
<rect x="23" y="11" width="1" height="1" fill="#FFFCBC" />
<rect x="24" y="11" width="1" height="1" fill="#FFFCBC" opacity="0.909804" />
<rect x="25" y="11" width="1" height="1" fill="#FFFCBC" opacity="0.737255" />
<rect x="26" y="11" width="1" height="1" fill="#FFFCBC" opacity="0.262745" />
<rect x="27" y="11" width="1" height="1" fill="#FFFCBC" opacity="0.086275" />
<rect x="28" y="11" width="1" height="1" fill="#FFFCBC" />
<rect x="29" y="11" width="1" height="1" fill="#FFFCBC" />
<rect x="18" y="12" width="1" height="1" fill="#FFFCBC" />
<rect x="19" y="12" width="1" height="1" fill="#FFFCBC" />
<rect x="20" y="12" width="1" height="1" fill="#FFFCBC" opacity="0.086275" />
<rect x="21" y="12" width="1" height="1" fill="#FFFCBC" opacity="0.262745" />
<rect x="22" y="12" width="1" height="1" fill="#FFFCBC" opacity="0.647059" />
<rect x="23" y="12" width="1" height="1" fill="#FFFCBC" opacity="0.737255" />
<rect x="24" y="12" width="1" height="1" fill="#FFFCBC" opacity="0.647059" />
<rect x="25" y="12" width="1" height="1" fill="#FFFCBC" opacity="0.262745" />
<rect x="26" y="12" width="1" height="1" fill="#FFFCBC" opacity="0.086275" />
<rect x="11" y="13" width="1" height="1" fill="#FFFCBC" />
<rect x="12" y="13" width="1" height="1" fill="#FFFCBC" />
<rect x="18" y="13" width="1" height="1" fill="#FFFCBC" />
<rect x="19" y="13" width="1" height="1" fill="#FFFCBC" />
<rect x="21" y="13" width="1" height="1" fill="#FFFCBC" opacity="0.086275" />
<rect x="22" y="13" width="1" height="1" fill="#FFFCBC" opacity="0.172549" />
<rect x="23" y="13" width="1" height="1" fill="#FFFCBC" opacity="0.262745" />
<rect x="24" y="13" width="1" height="1" fill="#FFFCBC" opacity="0.172549" />
<rect x="25" y="13" width="1" height="1" fill="#FFFCBC" opacity="0.086275" />
<rect x="11" y="14" width="1" height="1" fill="#FFFCBC" />
<rect x="12" y="14" width="1" height="1" fill="#FFFCBC" />
<rect x="0" y="15" width="1" height="1" fill="#FFFCBC" />
<rect x="1" y="15" width="1" height="1" fill="#FFFCBC" />
<rect x="0" y="16" width="1" height="1" fill="#FFFCBC" />
<rect x="1" y="16" width="1" height="1" fill="#FFFCBC" />
<rect x="11" y="19" width="1" height="1" fill="#FFFCBC" />
<rect x="12" y="19" width="1" height="1" fill="#FFFCBC" />
<rect x="11" y="20" width="1" height="1" fill="#FFFCBC" />
<rect x="12" y="20" width="1" height="1" fill="#FFFCBC" />
<rect x="3" y="21" width="1" height="1" fill="#FFFCBC" />
<rect x="4" y="21" width="1" height="1" fill="#FFFCBC" />
<rect x="20" y="21" width="1" height="1" fill="#FFFCBC" />
<rect x="21" y="21" width="1" height="1" fill="#FFFCBC" />
<rect x="3" y="22" width="1" height="1" fill="#FFFCBC" />
<rect x="4" y="22" width="1" height="1" fill="#FFFCBC" />
<rect x="16" y="22" width="1" height="1" fill="#FFFCBC" />
<rect x="17" y="22" width="1" height="1" fill="#FFFCBC" />
<rect x="20" y="22" width="1" height="1" fill="#FFFCBC" />
<rect x="21" y="22" width="1" height="1" fill="#FFFCBC" />
<rect x="16" y="23" width="1" height="1" fill="#FFFCBC" />
<rect x="17" y="23" width="1" height="1" fill="#FFFCBC" />
<rect x="26" y="23" width="1" height="1" fill="#FFFCBC" />
<rect x="27" y="23" width="1" height="1" fill="#FFFCBC" />
<rect x="26" y="24" width="1" height="1" fill="#FFFCBC" />
<rect x="27" y="24" width="1" height="1" fill="#FFFCBC" />
<rect x="26" y="29" width="1" height="1" fill="#FFFCBC" />
<rect x="27" y="29" width="1" height="1" fill="#FFFCBC" />
<rect x="12" y="30" width="1" height="1" fill="#FFFCBC" />
<rect x="13" y="30" width="1" height="1" fill="#FFFCBC" />
<rect x="26" y="30" width="1" height="1" fill="#FFFCBC" />
<rect x="27" y="30" width="1" height="1" fill="#FFFCBC" />
<rect x="12" y="31" width="1" height="1" fill="#FFFCBC" />
<rect x="13" y="31" width="1" height="1" fill="#FFFCBC" />
<rect x="4" y="34" width="1" height="1" fill="#FFFCBC" opacity="0.086275" />
<rect x="5" y="34" width="1" height="1" fill="#FFFCBC" opacity="0.172549" />
<rect x="6" y="34" width="1" height="1" fill="#FFFCBC" opacity="0.262745" />
<rect x="7" y="34" width="1" height="1" fill="#FFFCBC" opacity="0.172549" />
<rect x="8" y="34" width="1" height="1" fill="#FFFCBC" opacity="0.086275" />
<rect x="3" y="35" width="1" height="1" fill="#FFFCBC" opacity="0.086275" />
<rect x="4" y="35" width="1" height="1" fill="#FFFCBC" opacity="0.262745" />
<rect x="5" y="35" width="1" height="1" fill="#FFFCBC" opacity="0.647059" />
<rect x="6" y="35" width="1" height="1" fill="#FFFCBC" opacity="0.737255" />
<rect x="7" y="35" width="1" height="1" fill="#FFFCBC" opacity="0.647059" />
<rect x="8" y="35" width="1" height="1" fill="#FFFCBC" opacity="0.262745" />
<rect x="9" y="35" width="1" height="1" fill="#FFFCBC" opacity="0.086275" />
<rect x="2" y="36" width="1" height="1" fill="#FFFCBC" opacity="0.086275" />
<rect x="3" y="36" width="1" height="1" fill="#FFFCBC" opacity="0.262745" />
<rect x="4" y="36" width="1" height="1" fill="#FFFCBC" opacity="0.737255" />
<rect x="5" y="36" width="1" height="1" fill="#FFFCBC" opacity="0.909804" />
<rect x="6" y="36" width="1" height="1" fill="#FFFCBC" />
<rect x="7" y="36" width="1" height="1" fill="#FFFCBC" opacity="0.909804" />
<rect x="8" y="36" width="1" height="1" fill="#FFFCBC" opacity="0.737255" />
<rect x="9" y="36" width="1" height="1" fill="#FFFCBC" opacity="0.262745" />
<rect x="10" y="36" width="1" height="1" fill="#FFFCBC" opacity="0.086275" />
<rect x="13" y="36" width="1" height="1" fill="#FFFCBC" />
<rect x="14" y="36" width="1" height="1" fill="#FFFCBC" />
<rect x="2" y="37" width="1" height="1" fill="#FFFCBC" opacity="0.172549" />
<rect x="3" y="37" width="1" height="1" fill="#FFFCBC" opacity="0.647059" />
<rect x="4" y="37" width="1" height="1" fill="#FFFCBC" opacity="0.909804" />
<rect x="5" y="37" width="1" height="1" fill="#FFFCBC" />
<rect x="6" y="37" width="1" height="1" fill="#FFFCBC" />
<rect x="7" y="37" width="1" height="1" fill="#FFFCBC" />
<rect x="8" y="37" width="1" height="1" fill="#FFFCBC" opacity="0.909804" />
<rect x="9" y="37" width="1" height="1" fill="#FFFCBC" opacity="0.647059" />
<rect x="10" y="37" width="1" height="1" fill="#FFFCBC" opacity="0.172549" />
<rect x="13" y="37" width="1" height="1" fill="#FFFCBC" />
<rect x="14" y="37" width="1" height="1" fill="#FFFCBC" />
<rect x="2" y="38" width="1" height="1" fill="#FFFCBC" opacity="0.262745" />
<rect x="3" y="38" width="1" height="1" fill="#FFFCBC" opacity="0.737255" />
<rect x="4" y="38" width="1" height="1" fill="#FFFCBC" />
<rect x="5" y="38" width="1" height="1" fill="#FFFCBC" />
<rect x="6" y="38" width="1" height="1" fill="#FFFCBC" />
<rect x="7" y="38" width="1" height="1" fill="#FFFCBC" />
<rect x="8" y="38" width="1" height="1" fill="#FFFCBC" />
<rect x="9" y="38" width="1" height="1" fill="#FFFCBC" opacity="0.737255" />
<rect x="10" y="38" width="1" height="1" fill="#FFFCBC" opacity="0.262745" />
<rect x="2" y="39" width="1" height="1" fill="#FFFCBC" opacity="0.172549" />
<rect x="3" y="39" width="1" height="1" fill="#FFFCBC" opacity="0.647059" />
<rect x="4" y="39" width="1" height="1" fill="#FFFCBC" opacity="0.909804" />
<rect x="5" y="39" width="1" height="1" fill="#FFFCBC" />
<rect x="6" y="39" width="1" height="1" fill="#FFFCBC" />
<rect x="7" y="39" width="1" height="1" fill="#FFFCBC" />
<rect x="8" y="39" width="1" height="1" fill="#FFFCBC" opacity="0.909804" />
<rect x="9" y="39" width="1" height="1" fill="#FFFCBC" opacity="0.647059" />
<rect x="10" y="39" width="1" height="1" fill="#FFFCBC" opacity="0.172549" />
<rect x="2" y="40" width="1" height="1" fill="#FFFCBC" opacity="0.086275" />
<rect x="3" y="40" width="1" height="1" fill="#FFFCBC" opacity="0.262745" />
<rect x="4" y="40" width="1" height="1" fill="#FFFCBC" opacity="0.737255" />
<rect x="5" y="40" width="1" height="1" fill="#FFFCBC" opacity="0.909804" />
<rect x="6" y="40" width="1" height="1" fill="#FFFCBC" />
<rect x="7" y="40" width="1" height="1" fill="#FFFCBC" opacity="0.909804" />
<rect x="8" y="40" width="1" height="1" fill="#FFFCBC" opacity="0.737255" />
<rect x="9" y="40" width="1" height="1" fill="#FFFCBC" opacity="0.262745" />
<rect x="10" y="40" width="1" height="1" fill="#FFFCBC" opacity="0.086275" />
<rect x="3" y="41" width="1" height="1" fill="#FFFCBC" opacity="0.086275" />
<rect x="4" y="41" width="1" height="1" fill="#FFFCBC" opacity="0.262745" />
<rect x="5" y="41" width="1" height="1" fill="#FFFCBC" opacity="0.647059" />
<rect x="6" y="41" width="1" height="1" fill="#FFFCBC" opacity="0.737255" />
<rect x="7" y="41" width="1" height="1" fill="#FFFCBC" opacity="0.647059" />
<rect x="8" y="41" width="1" height="1" fill="#FFFCBC" opacity="0.262745" />
<rect x="9" y="41" width="1" height="1" fill="#FFFCBC" opacity="0.086275" />
<rect x="4" y="42" width="1" height="1" fill="#FFFCBC" opacity="0.086275" />
<rect x="5" y="42" width="1" height="1" fill="#FFFCBC" opacity="0.172549" />
<rect x="6" y="42" width="1" height="1" fill="#FFFCBC" opacity="0.262745" />
<rect x="7" y="42" width="1" height="1" fill="#FFFCBC" opacity="0.172549" />
<rect x="8" y="42" width="1" height="1" fill="#FFFCBC" opacity="0.086275" />
<rect x="21" y="43" width="1" height="1" fill="#FFFCBC" opacity="0.086275" />
<rect x="22" y="43" width="1" height="1" fill="#FFFCBC" opacity="0.172549" />
<rect x="23" y="43" width="1" height="1" fill="#FFFCBC" opacity="0.262745" />
<rect x="24" y="43" width="1" height="1" fill="#FFFCBC" opacity="0.172549" />
<rect x="25" y="43" width="1" height="1" fill="#FFFCBC" opacity="0.086275" />
<rect x="20" y="44" width="1" height="1" fill="#FFFCBC" opacity="0.086275" />
<rect x="21" y="44" width="1" height="1" fill="#FFFCBC" opacity="0.262745" />
<rect x="22" y="44" width="1" height="1" fill="#FFFCBC" opacity="0.647059" />
<rect x="23" y="44" width="1" height="1" fill="#FFFCBC" opacity="0.737255" />
<rect x="24" y="44" width="1" height="1" fill="#FFFCBC" opacity="0.647059" />
<rect x="25" y="44" width="1" height="1" fill="#FFFCBC" opacity="0.262745" />
<rect x="26" y="44" width="1" height="1" fill="#FFFCBC" opacity="0.086275" />
<rect x="19" y="45" width="1" height="1" fill="#FFFCBC" opacity="0.086275" />
<rect x="20" y="45" width="1" height="1" fill="#FFFCBC" opacity="0.262745" />
<rect x="21" y="45" width="1" height="1" fill="#FFFCBC" opacity="0.737255" />
<rect x="22" y="45" width="1" height="1" fill="#FFFCBC" opacity="0.909804" />
<rect x="23" y="45" width="1" height="1" fill="#FFFCBC" />
<rect x="24" y="45" width="1" height="1" fill="#FFFCBC" opacity="0.909804" />
<rect x="25" y="45" width="1" height="1" fill="#FFFCBC" opacity="0.737255" />
<rect x="26" y="45" width="1" height="1" fill="#FFFCBC" opacity="0.262745" />
<rect x="27" y="45" width="1" height="1" fill="#FFFCBC" opacity="0.086275" />
<rect x="19" y="46" width="1" height="1" fill="#FFFCBC" opacity="0.172549" />
<rect x="20" y="46" width="1" height="1" fill="#FFFCBC" opacity="0.647059" />
<rect x="21" y="46" width="1" height="1" fill="#FFFCBC" opacity="0.909804" />
<rect x="22" y="46" width="1" height="1" fill="#FFFCBC" />
<rect x="23" y="46" width="1" height="1" fill="#FFFCBC" />
<rect x="24" y="46" width="1" height="1" fill="#FFFCBC" />
<rect x="25" y="46" width="1" height="1" fill="#FFFCBC" opacity="0.909804" />
<rect x="26" y="46" width="1" height="1" fill="#FFFCBC" opacity="0.647059" />
<rect x="27" y="46" width="1" height="1" fill="#FFFCBC" opacity="0.172549" />
<rect x="19" y="47" width="1" height="1" fill="#FFFCBC" opacity="0.262745" />
<rect x="20" y="47" width="1" height="1" fill="#FFFCBC" opacity="0.737255" />
<rect x="21" y="47" width="1" height="1" fill="#FFFCBC" />
<rect x="22" y="47" width="1" height="1" fill="#FFFCBC" />
<rect x="23" y="47" width="1" height="1" fill="#FFFCBC" />
<rect x="24" y="47" width="1" height="1" fill="#FFFCBC" />
<rect x="25" y="47" width="1" height="1" fill="#FFFCBC" />
<rect x="26" y="47" width="1" height="1" fill="#FFFCBC" opacity="0.737255" />
<rect x="27" y="47" width="1" height="1" fill="#FFFCBC" opacity="0.262745" />
<rect x="19" y="48" width="1" height="1" fill="#FFFCBC" opacity="0.172549" />
<rect x="20" y="48" width="1" height="1" fill="#FFFCBC" opacity="0.647059" />
<rect x="21" y="48" width="1" height="1" fill="#FFFCBC" opacity="0.909804" />
<rect x="22" y="48" width="1" height="1" fill="#FFFCBC" />
<rect x="23" y="48" width="1" height="1" fill="#FFFCBC" />
<rect x="24" y="48" width="1" height="1" fill="#FFFCBC" />
<rect x="25" y="48" width="1" height="1" fill="#FFFCBC" opacity="0.909804" />
<rect x="26" y="48" width="1" height="1" fill="#FFFCBC" opacity="0.647059" />
<rect x="27" y="48" width="1" height="1" fill="#FFFCBC" opacity="0.172549" />
<rect x="19" y="49" width="1" height="1" fill="#FFFCBC" opacity="0.086275" />
<rect x="20" y="49" width="1" height="1" fill="#FFFCBC" opacity="0.262745" />
<rect x="21" y="49" width="1" height="1" fill="#FFFCBC" opacity="0.737255" />
<rect x="22" y="49" width="1" height="1" fill="#FFFCBC" opacity="0.909804" />
<rect x="23" y="49" width="1" height="1" fill="#FFFCBC" />
<rect x="24" y="49" width="1" height="1" fill="#FFFCBC" opacity="0.909804" />
<rect x="25" y="49" width="1" height="1" fill="#FFFCBC" opacity="0.737255" />
<rect x="26" y="49" width="1" height="1" fill="#FFFCBC" opacity="0.262745" />
<rect x="27" y="49" width="1" height="1" fill="#FFFCBC" opacity="0.086275" />
<rect x="20" y="50" width="1" height="1" fill="#FFFCBC" opacity="0.086275" />
<rect x="21" y="50" width="1" height="1" fill="#FFFCBC" opacity="0.262745" />
<rect x="22" y="50" width="1" height="1" fill="#FFFCBC" opacity="0.647059" />
<rect x="23" y="50" width="1" height="1" fill="#FFFCBC" opacity="0.737255" />
<rect x="24" y="50" width="1" height="1" fill="#FFFCBC" opacity="0.647059" />
<rect x="25" y="50" width="1" height="1" fill="#FFFCBC" opacity="0.262745" />
<rect x="26" y="50" width="1" height="1" fill="#FFFCBC" opacity="0.086275" />
<rect x="1" y="51" width="1" height="1" fill="#FFFCBC" />
<rect x="21" y="51" width="1" height="1" fill="#FFFCBC" opacity="0.086275" />
<rect x="22" y="51" width="1" height="1" fill="#FFFCBC" opacity="0.172549" />
<rect x="23" y="51" width="1" height="1" fill="#FFFCBC" opacity="0.262745" />
<rect x="24" y="51" width="1" height="1" fill="#FFFCBC" opacity="0.172549" />
<rect x="25" y="51" width="1" height="1" fill="#FFFCBC" opacity="0.086275" />
<rect x="1" y="52" width="1" height="1" fill="#FFFCBC" />
<rect x="1" y="53" width="1" height="1" fill="#FFFCBC" />
<rect x="1" y="54" width="1" height="1" fill="#FFFCBC" />
<rect x="1" y="55" width="1" height="1" fill="#FFFCBC" />
<rect x="1" y="56" width="1" height="1" fill="#FFFCBC" />
<rect x="1" y="57" width="1" height="1" fill="#FFFCBC" />
<rect x="1" y="58" width="1" height="1" fill="#FFFCBC" />
<rect x="8" y="58" width="1" height="1" fill="#FFFCBC" />
<rect x="11" y="58" width="1" height="1" fill="#FFFCBC" />
<rect x="13" y="58" width="1" height="1" fill="#FFFCBC" />
<rect x="18" y="58" width="1" height="1" fill="#FFFCBC" />
<rect x="20" y="58" width="1" height="1" fill="#FFFCBC" />
<rect x="21" y="58" width="1" height="1" fill="#FFFCBC" />
<rect x="22" y="58" width="1" height="1" fill="#FFFCBC" />
<rect x="23" y="58" width="1" height="1" fill="#FFFCBC" />
<rect x="25" y="58" width="1" height="1" fill="#FFFCBC" />
<rect x="26" y="58" width="1" height="1" fill="#FFFCBC" />
<rect x="27" y="58" width="1" height="1" fill="#FFFCBC" />
<rect x="28" y="58" width="1" height="1" fill="#FFFCBC" />
<rect x="1" y="59" width="1" height="1" fill="#FFFCBC" />
<rect x="8" y="59" width="1" height="1" fill="#FFFCBC" />
<rect x="11" y="59" width="1" height="1" fill="#FFFCBC" />
<rect x="13" y="59" width="1" height="1" fill="#FFFCBC" />
<rect x="18" y="59" width="1" height="1" fill="#FFFCBC" />
<rect x="20" y="59" width="1" height="1" fill="#FFFCBC" />
<rect x="25" y="59" width="1" height="1" fill="#FFFCBC" />
<rect x="29" y="59" width="1" height="1" fill="#FFFCBC" />
<rect x="1" y="60" width="1" height="1" fill="#FFFCBC" />
<rect x="8" y="60" width="1" height="1" fill="#FFFCBC" />
<rect x="11" y="60" width="1" height="1" fill="#FFFCBC" />
<rect x="13" y="60" width="1" height="1" fill="#FFFCBC" />
<rect x="14" y="60" width="1" height="1" fill="#FFFCBC" />
<rect x="17" y="60" width="1" height="1" fill="#FFFCBC" />
<rect x="18" y="60" width="1" height="1" fill="#FFFCBC" />
<rect x="20" y="60" width="1" height="1" fill="#FFFCBC" />
<rect x="21" y="60" width="1" height="1" fill="#FFFCBC" />
<rect x="22" y="60" width="1" height="1" fill="#FFFCBC" />
<rect x="25" y="60" width="1" height="1" fill="#FFFCBC" />
<rect x="29" y="60" width="1" height="1" fill="#FFFCBC" />
<rect x="1" y="61" width="1" height="1" fill="#FFFCBC" />
<rect x="6" y="61" width="1" height="1" fill="#FFFCBC" />
<rect x="8" y="61" width="1" height="1" fill="#FFFCBC" />
<rect x="11" y="61" width="1" height="1" fill="#FFFCBC" />
<rect x="13" y="61" width="1" height="1" fill="#FFFCBC" />
<rect x="15" y="61" width="1" height="1" fill="#FFFCBC" />
<rect x="16" y="61" width="1" height="1" fill="#FFFCBC" />
<rect x="18" y="61" width="1" height="1" fill="#FFFCBC" />
<rect x="20" y="61" width="1" height="1" fill="#FFFCBC" />
<rect x="25" y="61" width="1" height="1" fill="#FFFCBC" />
<rect x="29" y="61" width="1" height="1" fill="#FFFCBC" />
<rect x="1" y="62" width="1" height="1" fill="#FFFCBC" />
<rect x="6" y="62" width="1" height="1" fill="#FFFCBC" />
<rect x="8" y="62" width="1" height="1" fill="#FFFCBC" />
<rect x="11" y="62" width="1" height="1" fill="#FFFCBC" />
<rect x="13" y="62" width="1" height="1" fill="#FFFCBC" />
<rect x="18" y="62" width="1" height="1" fill="#FFFCBC" />
<rect x="20" y="62" width="1" height="1" fill="#FFFCBC" />
<rect x="25" y="62" width="1" height="1" fill="#FFFCBC" />
<rect x="29" y="62" width="1" height="1" fill="#FFFCBC" />
<rect x="1" y="63" width="1" height="1" fill="#FFFCBC" />
<rect x="2" y="63" width="1" height="1" fill="#FFFCBC" />
<rect x="3" y="63" width="1" height="1" fill="#FFFCBC" />
<rect x="4" y="63" width="1" height="1" fill="#FFFCBC" />
<rect x="5" y="63" width="1" height="1" fill="#FFFCBC" />
<rect x="6" y="63" width="1" height="1" fill="#FFFCBC" />
<rect x="8" y="63" width="1" height="1" fill="#FFFCBC" />
<rect x="9" y="63" width="1" height="1" fill="#FFFCBC" />
<rect x="10" y="63" width="1" height="1" fill="#FFFCBC" />
<rect x="11" y="63" width="1" height="1" fill="#FFFCBC" />
<rect x="13" y="63" width="1" height="1" fill="#FFFCBC" />
<rect x="18" y="63" width="1" height="1" fill="#FFFCBC" />
<rect x="20" y="63" width="1" height="1" fill="#FFFCBC" />
<rect x="21" y="63" width="1" height="1" fill="#FFFCBC" />
<rect x="22" y="63" width="1" height="1" fill="#FFFCBC" />
<rect x="23" y="63" width="1" height="1" fill="#FFFCBC" />
<rect x="25" y="63" width="1" height="1" fill="#FFFCBC" />
<rect x="29" y="63" width="1" height="1" fill="#FFFCBC" />
<rect x="27" y="70" width="1" height="1" fill="#FFFCBC" />
<rect x="28" y="70" width="1" height="1" fill="#FFFCBC" />
<rect x="27" y="71" width="1" height="1" fill="#FFFCBC" />
<rect x="28" y="71" width="1" height="1" fill="#FFFCBC" />
<rect x="7" y="72" width="1" height="1" fill="#FFFCBC" />
<rect x="8" y="72" width="1" height="1" fill="#FFFCBC" />
<rect x="1" y="73" width="1" height="1" fill="#FFFCBC" />
<rect x="2" y="73" width="1" height="1" fill="#FFFCBC" />
<rect x="7" y="73" width="1" height="1" fill="#FFFCBC" />
<rect x="8" y="73" width="1" height="1" fill="#FFFCBC" />
<rect x="1" y="74" width="1" height="1" fill="#FFFCBC" />
<rect x="2" y="74" width="1" height="1" fill="#FFFCBC" />
<rect x="20" y="75" width="1" height="1" fill="#FFFCBC" />
<rect x="21" y="75" width="1" height="1" fill="#FFFCBC" />
<rect x="20" y="76" width="1" height="1" fill="#FFFCBC" />
<rect x="21" y="76" width="1" height="1" fill="#FFFCBC" />
<rect x="4" y="78" width="1" height="1" fill="#FFFCBC" />
<rect x="5" y="78" width="1" height="1" fill="#FFFCBC" />
<rect x="4" y="79" width="1" height="1" fill="#FFFCBC" />
<rect x="5" y="79" width="1" height="1" fill="#FFFCBC" />
<rect x="21" y="80" width="1" height="1" fill="#FFFCBC" />
<rect x="22" y="80" width="1" height="1" fill="#FFFCBC" />
<rect x="9" y="81" width="1" height="1" fill="#FFFCBC" opacity="0.086275" />
<rect x="10" y="81" width="1" height="1" fill="#FFFCBC" opacity="0.172549" />
<rect x="11" y="81" width="1" height="1" fill="#FFFCBC" opacity="0.262745" />
<rect x="12" y="81" width="1" height="1" fill="#FFFCBC" opacity="0.172549" />
<rect x="13" y="81" width="1" height="1" fill="#FFFCBC" opacity="0.086275" />
<rect x="21" y="81" width="1" height="1" fill="#FFFCBC" />
<rect x="22" y="81" width="1" height="1" fill="#FFFCBC" />
<rect x="8" y="82" width="1" height="1" fill="#FFFCBC" opacity="0.086275" />
<rect x="9" y="82" width="1" height="1" fill="#FFFCBC" opacity="0.262745" />
<rect x="10" y="82" width="1" height="1" fill="#FFFCBC" opacity="0.647059" />
<rect x="11" y="82" width="1" height="1" fill="#FFFCBC" opacity="0.737255" />
<rect x="12" y="82" width="1" height="1" fill="#FFFCBC" opacity="0.647059" />
<rect x="13" y="82" width="1" height="1" fill="#FFFCBC" opacity="0.262745" />
<rect x="14" y="82" width="1" height="1" fill="#FFFCBC" opacity="0.086275" />
<rect x="7" y="83" width="1" height="1" fill="#FFFCBC" opacity="0.086275" />
<rect x="8" y="83" width="1" height="1" fill="#FFFCBC" opacity="0.262745" />
<rect x="9" y="83" width="1" height="1" fill="#FFFCBC" opacity="0.737255" />
<rect x="10" y="83" width="1" height="1" fill="#FFFCBC" opacity="0.909804" />
<rect x="11" y="83" width="1" height="1" fill="#FFFCBC" />
<rect x="12" y="83" width="1" height="1" fill="#FFFCBC" opacity="0.909804" />
<rect x="13" y="83" width="1" height="1" fill="#FFFCBC" opacity="0.737255" />
<rect x="14" y="83" width="1" height="1" fill="#FFFCBC" opacity="0.262745" />
<rect x="15" y="83" width="1" height="1" fill="#FFFCBC" opacity="0.086275" />
<rect x="7" y="84" width="1" height="1" fill="#FFFCBC" opacity="0.172549" />
<rect x="8" y="84" width="1" height="1" fill="#FFFCBC" opacity="0.647059" />
<rect x="9" y="84" width="1" height="1" fill="#FFFCBC" opacity="0.909804" />
<rect x="10" y="84" width="1" height="1" fill="#FFFCBC" />
<rect x="11" y="84" width="1" height="1" fill="#FFFCBC" />
<rect x="12" y="84" width="1" height="1" fill="#FFFCBC" />
<rect x="13" y="84" width="1" height="1" fill="#FFFCBC" opacity="0.909804" />
<rect x="14" y="84" width="1" height="1" fill="#FFFCBC" opacity="0.647059" />
<rect x="15" y="84" width="1" height="1" fill="#FFFCBC" opacity="0.172549" />
<rect x="7" y="85" width="1" height="1" fill="#FFFCBC" opacity="0.262745" />
<rect x="8" y="85" width="1" height="1" fill="#FFFCBC" opacity="0.737255" />
<rect x="9" y="85" width="1" height="1" fill="#FFFCBC" />
<rect x="10" y="85" width="1" height="1" fill="#FFFCBC" />
<rect x="11" y="85" width="1" height="1" fill="#FFFCBC" />
<rect x="12" y="85" width="1" height="1" fill="#FFFCBC" />
<rect x="13" y="85" width="1" height="1" fill="#FFFCBC" />
<rect x="14" y="85" width="1" height="1" fill="#FFFCBC" opacity="0.737255" />
<rect x="15" y="85" width="1" height="1" fill="#FFFCBC" opacity="0.262745" />
<rect x="25" y="85" width="1" height="1" fill="#FFFCBC" />
<rect x="26" y="85" width="1" height="1" fill="#FFFCBC" />
<rect x="4" y="86" width="1" height="1" fill="#FFFCBC" />
<rect x="5" y="86" width="1" height="1" fill="#FFFCBC" />
<rect x="7" y="86" width="1" height="1" fill="#FFFCBC" opacity="0.172549" />
<rect x="8" y="86" width="1" height="1" fill="#FFFCBC" opacity="0.647059" />
<rect x="9" y="86" width="1" height="1" fill="#FFFCBC" opacity="0.909804" />
<rect x="10" y="86" width="1" height="1" fill="#FFFCBC" />
<rect x="11" y="86" width="1" height="1" fill="#FFFCBC" />
<rect x="12" y="86" width="1" height="1" fill="#FFFCBC" />
<rect x="13" y="86" width="1" height="1" fill="#FFFCBC" opacity="0.909804" />
<rect x="14" y="86" width="1" height="1" fill="#FFFCBC" opacity="0.647059" />
<rect x="15" y="86" width="1" height="1" fill="#FFFCBC" opacity="0.172549" />
<rect x="25" y="86" width="1" height="1" fill="#FFFCBC" />
<rect x="26" y="86" width="1" height="1" fill="#FFFCBC" />
<rect x="4" y="87" width="1" height="1" fill="#FFFCBC" />
<rect x="5" y="87" width="1" height="1" fill="#FFFCBC" />
<rect x="7" y="87" width="1" height="1" fill="#FFFCBC" opacity="0.086275" />
<rect x="8" y="87" width="1" height="1" fill="#FFFCBC" opacity="0.262745" />
<rect x="9" y="87" width="1" height="1" fill="#FFFCBC" opacity="0.737255" />
<rect x="10" y="87" width="1" height="1" fill="#FFFCBC" opacity="0.909804" />
<rect x="11" y="87" width="1" height="1" fill="#FFFCBC" />
<rect x="12" y="87" width="1" height="1" fill="#FFFCBC" opacity="0.909804" />
<rect x="13" y="87" width="1" height="1" fill="#FFFCBC" opacity="0.737255" />
<rect x="14" y="87" width="1" height="1" fill="#FFFCBC" opacity="0.262745" />
<rect x="15" y="87" width="1" height="1" fill="#FFFCBC" opacity="0.086275" />
<rect x="8" y="88" width="1" height="1" fill="#FFFCBC" opacity="0.086275" />
<rect x="9" y="88" width="1" height="1" fill="#FFFCBC" opacity="0.262745" />
<rect x="10" y="88" width="1" height="1" fill="#FFFCBC" opacity="0.647059" />
<rect x="11" y="88" width="1" height="1" fill="#FFFCBC" opacity="0.737255" />
<rect x="12" y="88" width="1" height="1" fill="#FFFCBC" opacity="0.647059" />
<rect x="13" y="88" width="1" height="1" fill="#FFFCBC" opacity="0.262745" />
<rect x="14" y="88" width="1" height="1" fill="#FFFCBC" opacity="0.086275" />
<rect x="9" y="89" width="1" height="1" fill="#FFFCBC" opacity="0.086275" />
<rect x="10" y="89" width="1" height="1" fill="#FFFCBC" opacity="0.172549" />
<rect x="11" y="89" width="1" height="1" fill="#FFFCBC" opacity="0.262745" />
<rect x="12" y="89" width="1" height="1" fill="#FFFCBC" opacity="0.172549" />
<rect x="13" y="89" width="1" height="1" fill="#FFFCBC" opacity="0.086275" />
<rect x="25" y="91" width="1" height="1" fill="#FFFCBC" />
<rect x="26" y="91" width="1" height="1" fill="#FFFCBC" />
<rect x="25" y="92" width="1" height="1" fill="#FFFCBC" />
<rect x="26" y="92" width="1" height="1" fill="#FFFCBC" />
<rect x="2" y="93" width="1" height="1" fill="#FFFCBC" />
<rect x="3" y="93" width="1" height="1" fill="#FFFCBC" />
<rect x="2" y="94" width="1" height="1" fill="#FFFCBC" />
<rect x="3" y="94" width="1" height="1" fill="#FFFCBC" />
<rect x="10" y="96" width="1" height="1" fill="#FFFCBC" />
<rect x="11" y="96" width="1" height="1" fill="#FFFCBC" />
<rect x="10" y="97" width="1" height="1" fill="#FFFCBC" />
<rect x="11" y="97" width="1" height="1" fill="#FFFCBC" />
<rect x="22" y="97" width="1" height="1" fill="#FFFCBC" />
<rect x="23" y="97" width="1" height="1" fill="#FFFCBC" />
<rect x="17" y="98" width="1" height="1" fill="#FFFCBC" />
<rect x="18" y="98" width="1" height="1" fill="#FFFCBC" />
<rect x="22" y="98" width="1" height="1" fill="#FFFCBC" />
<rect x="23" y="98" width="1" height="1" fill="#FFFCBC" />
<rect x="2" y="99" width="1" height="1" fill="#FFFCBC" />
<rect x="3" y="99" width="1" height="1" fill="#FFFCBC" />
<rect x="17" y="99" width="1" height="1" fill="#FFFCBC" />
<rect x="18" y="99" width="1" height="1" fill="#FFFCBC" />
<rect x="2" y="100" width="1" height="1" fill="#FFFCBC" />
<rect x="3" y="100" width="1" height="1" fill="#FFFCBC" />
<rect x="5" y="101" width="1" height="1" fill="#FFFCBC" />
<rect x="6" y="101" width="1" height="1" fill="#FFFCBC" />
<rect x="16" y="101" width="1" height="1" fill="#FFFCBC" />
<rect x="17" y="101" width="1" height="1" fill="#FFFCBC" />
<rect x="5" y="102" width="1" height="1" fill="#FFFCBC" />
<rect x="6" y="102" width="1" height="1" fill="#FFFCBC" />
<rect x="10" y="102" width="1" height="1" fill="#FFFCBC" />
<rect x="11" y="102" width="1" height="1" fill="#FFFCBC" />
<rect x="16" y="102" width="1" height="1" fill="#FFFCBC" />
<rect x="17" y="102" width="1" height="1" fill="#FFFCBC" />
<rect x="10" y="103" width="1" height="1" fill="#FFFCBC" />
<rect x="11" y="103" width="1" height="1" fill="#FFFCBC" />
<rect x="21" y="103" width="1" height="1" fill="#FFFCBC" />
<rect x="22" y="103" width="1" height="1" fill="#FFFCBC" />
<rect x="21" y="104" width="1" height="1" fill="#FFFCBC" />
<rect x="22" y="104" width="1" height="1" fill="#FFFCBC" />
<rect x="26" y="104" width="1" height="1" fill="#FFFCBC" />
<rect x="27" y="104" width="1" height="1" fill="#FFFCBC" />
<rect x="26" y="105" width="1" height="1" fill="#FFFCBC" />
<rect x="27" y="105" width="1" height="1" fill="#FFFCBC" />
<rect x="23" y="106" width="1" height="1" fill="#FFFCBC" />
<rect x="24" y="106" width="1" height="1" fill="#FFFCBC" />
<rect x="7" y="107" width="1" height="1" fill="#FFFCBC" />
<rect x="8" y="107" width="1" height="1" fill="#FFFCBC" />
<rect x="23" y="107" width="1" height="1" fill="#FFFCBC" />
<rect x="24" y="107" width="1" height="1" fill="#FFFCBC" />
<rect x="7" y="108" width="1" height="1" fill="#FFFCBC" />
<rect x="8" y="108" width="1" height="1" fill="#FFFCBC" />
<rect x="30" y="108" width="1" height="1" fill="#FFFCBC" />
<rect x="31" y="108" width="1" height="1" fill="#FFFCBC" />
<rect x="4" y="109" width="1" height="1" fill="#FFFCBC" />
<rect x="5" y="109" width="1" height="1" fill="#FFFCBC" />
<rect x="15" y="109" width="1" height="1" fill="#FFFCBC" />
<rect x="16" y="109" width="1" height="1" fill="#FFFCBC" />
<rect x="30" y="109" width="1" height="1" fill="#FFFCBC" />
<rect x="31" y="109" width="1" height="1" fill="#FFFCBC" />
<rect x="4" y="110" width="1" height="1" fill="#FFFCBC" />
<rect x="5" y="110" width="1" height="1" fill="#FFFCBC" />
<rect x="15" y="110" width="1" height="1" fill="#FFFCBC" />
<rect x="16" y="110" width="1" height="1" fill="#FFFCBC" />
<rect x="26" y="110" width="1" height="1" fill="#FFFCBC" />
<rect x="27" y="110" width="1" height="1" fill="#FFFCBC" />
<rect x="12" y="111" width="1" height="1" fill="#FFFCBC" />
<rect x="13" y="111" width="1" height="1" fill="#FFFCBC" />
<rect x="26" y="111" width="1" height="1" fill="#FFFCBC" />
<rect x="27" y="111" width="1" height="1" fill="#FFFCBC" />
<rect x="12" y="112" width="1" height="1" fill="#FFFCBC" />
<rect x="13" y="112" width="1" height="1" fill="#FFFCBC" />
<rect x="0" y="113" width="1" height="1" fill="#FFFCBC" />
<rect x="1" y="113" width="1" height="1" fill="#FFFCBC" />
<rect x="0" y="114" width="1" height="1" fill="#FFFCBC" />
<rect x="1" y="114" width="1" height="1" fill="#FFFCBC" />
<rect x="18" y="114" width="1" height="1" fill="#FFFCBC" />
<rect x="19" y="114" width="1" height="1" fill="#FFFCBC" />
<rect x="18" y="115" width="1" height="1" fill="#FFFCBC" />
<rect x="19" y="115" width="1" height="1" fill="#FFFCBC" />
<rect x="21" y="116" width="1" height="1" fill="#FFFCBC" opacity="0.086275" />
<rect x="22" y="116" width="1" height="1" fill="#FFFCBC" opacity="0.172549" />
<rect x="23" y="116" width="1" height="1" fill="#FFFCBC" opacity="0.262745" />
<rect x="24" y="116" width="1" height="1" fill="#FFFCBC" opacity="0.172549" />
<rect x="25" y="116" width="1" height="1" fill="#FFFCBC" opacity="0.086275" />
<rect x="20" y="117" width="1" height="1" fill="#FFFCBC" opacity="0.086275" />
<rect x="21" y="117" width="1" height="1" fill="#FFFCBC" opacity="0.262745" />
<rect x="22" y="117" width="1" height="1" fill="#FFFCBC" opacity="0.647059" />
<rect x="23" y="117" width="1" height="1" fill="#FFFCBC" opacity="0.737255" />
<rect x="24" y="117" width="1" height="1" fill="#FFFCBC" opacity="0.647059" />
<rect x="25" y="117" width="1" height="1" fill="#FFFCBC" opacity="0.262745" />
<rect x="26" y="117" width="1" height="1" fill="#FFFCBC" opacity="0.086275" />
<rect x="19" y="118" width="1" height="1" fill="#FFFCBC" opacity="0.086275" />
<rect x="20" y="118" width="1" height="1" fill="#FFFCBC" opacity="0.262745" />
<rect x="21" y="118" width="1" height="1" fill="#FFFCBC" opacity="0.737255" />
<rect x="22" y="118" width="1" height="1" fill="#FFFCBC" opacity="0.909804" />
<rect x="23" y="118" width="1" height="1" fill="#FFFCBC" />
<rect x="24" y="118" width="1" height="1" fill="#FFFCBC" opacity="0.909804" />
<rect x="25" y="118" width="1" height="1" fill="#FFFCBC" opacity="0.737255" />
<rect x="26" y="118" width="1" height="1" fill="#FFFCBC" opacity="0.262745" />
<rect x="27" y="118" width="1" height="1" fill="#FFFCBC" opacity="0.086275" />
<rect x="19" y="119" width="1" height="1" fill="#FFFCBC" opacity="0.172549" />
<rect x="20" y="119" width="1" height="1" fill="#FFFCBC" opacity="0.647059" />
<rect x="21" y="119" width="1" height="1" fill="#FFFCBC" opacity="0.909804" />
<rect x="22" y="119" width="1" height="1" fill="#FFFCBC" />
<rect x="23" y="119" width="1" height="1" fill="#FFFCBC" />
<rect x="24" y="119" width="1" height="1" fill="#FFFCBC" />
<rect x="25" y="119" width="1" height="1" fill="#FFFCBC" opacity="0.909804" />
<rect x="26" y="119" width="1" height="1" fill="#FFFCBC" opacity="0.647059" />
<rect x="27" y="119" width="1" height="1" fill="#FFFCBC" opacity="0.172549" />
<rect x="10" y="120" width="1" height="1" fill="#FFFCBC" />
<rect x="11" y="120" width="1" height="1" fill="#FFFCBC" />
<rect x="19" y="120" width="1" height="1" fill="#FFFCBC" opacity="0.262745" />
<rect x="20" y="120" width="1" height="1" fill="#FFFCBC" opacity="0.737255" />
<rect x="21" y="120" width="1" height="1" fill="#FFFCBC" />
<rect x="22" y="120" width="1" height="1" fill="#FFFCBC" />
<rect x="23" y="120" width="1" height="1" fill="#FFFCBC" />
<rect x="24" y="120" width="1" height="1" fill="#FFFCBC" />
<rect x="25" y="120" width="1" height="1" fill="#FFFCBC" />
<rect x="26" y="120" width="1" height="1" fill="#FFFCBC" opacity="0.737255" />
<rect x="27" y="120" width="1" height="1" fill="#FFFCBC" opacity="0.262745" />
<rect x="2" y="121" width="1" height="1" fill="#FFFCBC" />
<rect x="3" y="121" width="1" height="1" fill="#FFFCBC" />
<rect x="10" y="121" width="1" height="1" fill="#FFFCBC" />
<rect x="11" y="121" width="1" height="1" fill="#FFFCBC" />
<rect x="19" y="121" width="1" height="1" fill="#FFFCBC" opacity="0.172549" />
<rect x="20" y="121" width="1" height="1" fill="#FFFCBC" opacity="0.647059" />
<rect x="21" y="121" width="1" height="1" fill="#FFFCBC" opacity="0.909804" />
<rect x="22" y="121" width="1" height="1" fill="#FFFCBC" />
<rect x="23" y="121" width="1" height="1" fill="#FFFCBC" />
<rect x="24" y="121" width="1" height="1" fill="#FFFCBC" />
<rect x="25" y="121" width="1" height="1" fill="#FFFCBC" opacity="0.909804" />
<rect x="26" y="121" width="1" height="1" fill="#FFFCBC" opacity="0.647059" />
<rect x="27" y="121" width="1" height="1" fill="#FFFCBC" opacity="0.172549" />
<rect x="2" y="122" width="1" height="1" fill="#FFFCBC" />
<rect x="3" y="122" width="1" height="1" fill="#FFFCBC" />
<rect x="19" y="122" width="1" height="1" fill="#FFFCBC" opacity="0.086275" />
<rect x="20" y="122" width="1" height="1" fill="#FFFCBC" opacity="0.262745" />
<rect x="21" y="122" width="1" height="1" fill="#FFFCBC" opacity="0.737255" />
<rect x="22" y="122" width="1" height="1" fill="#FFFCBC" opacity="0.909804" />
<rect x="23" y="122" width="1" height="1" fill="#FFFCBC" />
<rect x="24" y="122" width="1" height="1" fill="#FFFCBC" opacity="0.909804" />
<rect x="25" y="122" width="1" height="1" fill="#FFFCBC" opacity="0.737255" />
<rect x="26" y="122" width="1" height="1" fill="#FFFCBC" opacity="0.262745" />
<rect x="27" y="122" width="1" height="1" fill="#FFFCBC" opacity="0.086275" />
<rect x="5" y="123" width="1" height="1" fill="#FFFCBC" />
<rect x="6" y="123" width="1" height="1" fill="#FFFCBC" />
<rect x="20" y="123" width="1" height="1" fill="#FFFCBC" opacity="0.086275" />
<rect x="21" y="123" width="1" height="1" fill="#FFFCBC" opacity="0.262745" />
<rect x="22" y="123" width="1" height="1" fill="#FFFCBC" opacity="0.647059" />
<rect x="23" y="123" width="1" height="1" fill="#FFFCBC" opacity="0.737255" />
<rect x="24" y="123" width="1" height="1" fill="#FFFCBC" opacity="0.647059" />
<rect x="25" y="123" width="1" height="1" fill="#FFFCBC" opacity="0.262745" />
<rect x="26" y="123" width="1" height="1" fill="#FFFCBC" opacity="0.086275" />
<rect x="5" y="124" width="1" height="1" fill="#FFFCBC" />
<rect x="6" y="124" width="1" height="1" fill="#FFFCBC" />
<rect x="21" y="124" width="1" height="1" fill="#FFFCBC" opacity="0.086275" />
<rect x="22" y="124" width="1" height="1" fill="#FFFCBC" opacity="0.172549" />
<rect x="23" y="124" width="1" height="1" fill="#FFFCBC" opacity="0.262745" />
<rect x="24" y="124" width="1" height="1" fill="#FFFCBC" opacity="0.172549" />
<rect x="25" y="124" width="1" height="1" fill="#FFFCBC" opacity="0.086275" />
</svg>