<?xml version="1.0" encoding="UTF-8" ?>
<svg version="1.1" width="8" height="8" xmlns="http://www.w3.org/2000/svg" shape-rendering="crispEdges">
<rect x="0" y="0" width="1" height="1" fill="#FEEBB1" opacity="0.105882" />
<rect x="1" y="0" width="1" height="1" fill="#FEECB2" opacity="0.235294" />
<rect x="2" y="0" width="1" height="1" fill="#FEEDB4" opacity="0.411765" />
<rect x="3" y="0" width="1" height="1" fill="#FDEEB8" opacity="0.541176" />
<rect x="4" y="0" width="1" height="1" fill="#FDEFBA" opacity="0.580392" />
<rect x="5" y="0" width="1" height="1" fill="#FEFEFC" />
<rect x="6" y="0" width="1" height="1" fill="#FEEEB7" opacity="0.419608" />
<rect x="7" y="0" width="1" height="1" fill="#FFEBB0" opacity="0.207843" />
<rect x="0" y="1" width="1" height="1" fill="#FEECB3" opacity="0.196078" />
<rect x="1" y="1" width="1" height="1" fill="#FEEDB7" opacity="0.305882" />
<rect x="2" y="1" width="1" height="1" fill="#FDEFBC" opacity="0.450980" />
<rect x="3" y="1" width="1" height="1" fill="#FEFEFC" />
<rect x="4" y="1" width="1" height="1" fill="#FEFEFC" />
<rect x="5" y="1" width="1" height="1" fill="#FEFEFC" />
<rect x="6" y="1" width="1" height="1" fill="#FDF0BE" opacity="0.466667" />
<rect x="7" y="1" width="1" height="1" fill="#FEEEB8" opacity="0.392157" />
<rect x="0" y="2" width="1" height="1" fill="#FEEDB5" opacity="0.341176" />
<rect x="1" y="2" width="1" height="1" fill="#FDEFBC" opacity="0.419608" />
<rect x="2" y="2" width="1" height="1" fill="#FEFEFC" />
<rect x="3" y="2" width="1" height="1" fill="#FEFEFC" />
<rect x="4" y="2" width="1" height="1" fill="#FEFEFC" />
<rect x="5" y="2" width="1" height="1" fill="#FEFEFC" />
<rect x="6" y="2" width="1" height="1" fill="#FEFEFC" />
<rect x="7" y="2" width="1" height="1" fill="#FDF1C0" opacity="0.501961" />
<rect x="0" y="3" width="1" height="1" fill="#FDEEB7" opacity="0.427451" />
<rect x="1" y="3" width="1" height="1" fill="#FEFEFC" />
<rect x="2" y="3" width="1" height="1" fill="#FEFEFC" />
<rect x="3" y="3" width="1" height="1" fill="#281410" />
<rect x="4" y="3" width="1" height="1" fill="#FEFEFC" />
<rect x="5" y="3" width="1" height="1" fill="#281410" />
<rect x="6" y="3" width="1" height="1" fill="#FEFEFC" />
<rect x="7" y="3" width="1" height="1" fill="#FEFEFC" />
<rect x="0" y="4" width="1" height="1" fill="#FDEEB8" opacity="0.407843" />
<rect x="1" y="4" width="1" height="1" fill="#FEFEFC" />
<rect x="2" y="4" width="1" height="1" fill="#FEFEFC" />
<rect x="3" y="4" width="1" height="1" fill="#281410" />
<rect x="4" y="4" width="1" height="1" fill="#FEFEFC" />
<rect x="5" y="4" width="1" height="1" fill="#281410" />
<rect x="6" y="4" width="1" height="1" fill="#FEFEFC" />
<rect x="7" y="4" width="1" height="1" fill="#FEFEFC" />
<rect x="0" y="5" width="1" height="1" fill="#FEEDB6" opacity="0.290196" />
<rect x="1" y="5" width="1" height="1" fill="#FDEFBD" opacity="0.392157" />
<rect x="2" y="5" width="1" height="1" fill="#FEFEFC" />
<rect x="3" y="5" width="1" height="1" fill="#FEFEFC" />
<rect x="4" y="5" width="1" height="1" fill="#FEFEFC" />
<rect x="5" y="5" width="1" height="1" fill="#FEFEFC" />
<rect x="6" y="5" width="1" height="1" fill="#FEFEFC" />
<rect x="7" y="5" width="1" height="1" fill="#FEEFBB" opacity="0.545098" />
<rect x="0" y="6" width="1" height="1" fill="#FEECB4" opacity="0.180392" />
<rect x="1" y="6" width="1" height="1" fill="#FDEEB8" opacity="0.309804" />
<rect x="2" y="6" width="1" height="1" fill="#FDF0BE" opacity="0.474510" />
<rect x="3" y="6" width="1" height="1" fill="#FEFEFC" />
<rect x="4" y="6" width="1" height="1" fill="#FDF6CB" />
<rect x="5" y="6" width="1" height="1" fill="#FDF6CB" />
<rect x="6" y="6" width="1" height="1" fill="#FEEFBC" opacity="0.498039" />
<rect x="7" y="6" width="1" height="1" fill="#FEECB4" opacity="0.431373" />
<rect x="0" y="7" width="1" height="1" fill="#FEEBB0" opacity="0.117647" />
<rect x="1" y="7" width="1" height="1" fill="#FEECB4" opacity="0.266667" />
<rect x="2" y="7" width="1" height="1" fill="#FDEDB7" opacity="0.454902" />
<rect x="3" y="7" width="1" height="1" fill="#FDF6CB" />
<rect x="4" y="7" width="1" height="1" fill="#FDEFBC" opacity="0.580392" />
<rect x="5" y="7" width="1" height="1" fill="#FFEBB0" />
<rect x="6" y="7" width="1" height="1" fill="#FEEDB7" opacity="0.423529" />
<rect x="7" y="7" width="1" height="1" fill="#FEECB3" opacity="0.317647" />
</svg>