<?xml version="1.0" encoding="UTF-8" ?>
<svg version="1.1" width="16" height="16" xmlns="http://www.w3.org/2000/svg" shape-rendering="crispEdges">
<rect x="5" y="0" width="1" height="1" fill="#B800FF" opacity="0.003922" />
<rect x="6" y="0" width="1" height="1" fill="#B800FF" opacity="0.007843" />
<rect x="7" y="0" width="1" height="1" fill="#B800FF" opacity="0.011765" />
<rect x="8" y="0" width="1" height="1" fill="#B800FF" opacity="0.011765" />
<rect x="9" y="0" width="1" height="1" fill="#B800FF" opacity="0.011765" />
<rect x="10" y="0" width="1" height="1" fill="#B800FF" opacity="0.007843" />
<rect x="11" y="0" width="1" height="1" fill="#B800FF" opacity="0.003922" />
<rect x="3" y="1" width="1" height="1" fill="#B800FF" opacity="0.003922" />
<rect x="4" y="1" width="1" height="1" fill="#B800FF" opacity="0.011765" />
<rect x="5" y="1" width="1" height="1" fill="#B800FF" opacity="0.023529" />
<rect x="6" y="1" width="1" height="1" fill="#B800FF" opacity="0.031373" />
<rect x="7" y="1" width="1" height="1" fill="#B800FF" opacity="0.039216" />
<rect x="8" y="1" width="1" height="1" fill="#B800FF" opacity="0.043137" />
<rect x="9" y="1" width="1" height="1" fill="#B800FF" opacity="0.035294" />
<rect x="10" y="1" width="1" height="1" fill="#B800FF" opacity="0.027451" />
<rect x="11" y="1" width="1" height="1" fill="#B800FF" opacity="0.015686" />
<rect x="12" y="1" width="1" height="1" fill="#B800FF" opacity="0.003922" />
<rect x="2" y="2" width="1" height="1" fill="#B800FF" opacity="0.003922" />
<rect x="3" y="2" width="1" height="1" fill="#B800FF" opacity="0.015686" />
<rect x="4" y="2" width="1" height="1" fill="#B800FF" opacity="0.035294" />
<rect x="5" y="2" width="1" height="1" fill="#B800FF" opacity="0.066667" />
<rect x="6" y="2" width="1" height="1" fill="#B800FF" opacity="0.098039" />
<rect x="7" y="2" width="1" height="1" fill="#B800FF" opacity="0.121569" />
<rect x="8" y="2" width="1" height="1" fill="#B800FF" opacity="0.129412" />
<rect x="9" y="2" width="1" height="1" fill="#B800FF" opacity="0.109804" />
<rect x="10" y="2" width="1" height="1" fill="#B800FF" opacity="0.074510" />
<rect x="11" y="2" width="1" height="1" fill="#B800FF" opacity="0.039216" />
<rect x="12" y="2" width="1" height="1" fill="#B800FF" opacity="0.015686" />
<rect x="13" y="2" width="1" height="1" fill="#B800FF" opacity="0.003922" />
<rect x="1" y="3" width="1" height="1" fill="#B800FF" opacity="0.003922" />
<rect x="2" y="3" width="1" height="1" fill="#B800FF" opacity="0.015686" />
<rect x="3" y="3" width="1" height="1" fill="#B800FF" opacity="0.043137" />
<rect x="4" y="3" width="1" height="1" fill="#B800FF" opacity="0.090196" />
<rect x="5" y="3" width="1" height="1" fill="#B800FF" opacity="0.156863" />
<rect x="6" y="3" width="1" height="1" fill="#B800FF" opacity="0.219608" />
<rect x="7" y="3" width="1" height="1" fill="#B800FF" opacity="0.266667" />
<rect x="8" y="3" width="1" height="1" fill="#B800FF" opacity="0.274510" />
<rect x="9" y="3" width="1" height="1" fill="#B800FF" opacity="0.235294" />
<rect x="10" y="3" width="1" height="1" fill="#B800FF" opacity="0.160784" />
<rect x="11" y="3" width="1" height="1" fill="#B800FF" opacity="0.090196" />
<rect x="12" y="3" width="1" height="1" fill="#B800FF" opacity="0.039216" />
<rect x="13" y="3" width="1" height="1" fill="#B800FF" opacity="0.011765" />
<rect x="1" y="4" width="1" height="1" fill="#B800FF" opacity="0.011765" />
<rect x="2" y="4" width="1" height="1" fill="#B800FF" opacity="0.035294" />
<rect x="3" y="4" width="1" height="1" fill="#B800FF" opacity="0.090196" />
<rect x="4" y="4" width="1" height="1" fill="#B800FF" opacity="0.176471" />
<rect x="5" y="4" width="1" height="1" fill="#B800FF" opacity="0.286275" />
<rect x="6" y="4" width="1" height="1" fill="#B800FF" opacity="0.388235" />
<rect x="7" y="4" width="1" height="1" fill="#B800FF" />
<rect x="8" y="4" width="1" height="1" fill="#B800FF" />
<rect x="9" y="4" width="1" height="1" fill="#B800FF" />
<rect x="10" y="4" width="1" height="1" fill="#B800FF" opacity="0.282353" />
<rect x="11" y="4" width="1" height="1" fill="#B800FF" opacity="0.168627" />
<rect x="12" y="4" width="1" height="1" fill="#B800FF" opacity="0.082353" />
<rect x="13" y="4" width="1" height="1" fill="#B800FF" opacity="0.027451" />
<rect x="14" y="4" width="1" height="1" fill="#B800FF" opacity="0.007843" />
<rect x="0" y="5" width="1" height="1" fill="#B800FF" opacity="0.003922" />
<rect x="1" y="5" width="1" height="1" fill="#B800FF" opacity="0.019608" />
<rect x="2" y="5" width="1" height="1" fill="#B800FF" opacity="0.062745" />
<rect x="3" y="5" width="1" height="1" fill="#B800FF" opacity="0.152941" />
<rect x="4" y="5" width="1" height="1" fill="#B800FF" opacity="0.286275" />
<rect x="5" y="5" width="1" height="1" fill="#B800FF" />
<rect x="6" y="5" width="1" height="1" fill="#B800FF" />
<rect x="7" y="5" width="1" height="1" fill="#B800FF" />
<rect x="8" y="5" width="1" height="1" fill="#B800FF" />
<rect x="9" y="5" width="1" height="1" fill="#B800FF" />
<rect x="10" y="5" width="1" height="1" fill="#B800FF" opacity="0.415686" />
<rect x="11" y="5" width="1" height="1" fill="#B800FF" opacity="0.262745" />
<rect x="12" y="5" width="1" height="1" fill="#B800FF" opacity="0.137255" />
<rect x="13" y="5" width="1" height="1" fill="#B800FF" opacity="0.054902" />
<rect x="14" y="5" width="1" height="1" fill="#B800FF" opacity="0.015686" />
<rect x="15" y="5" width="1" height="1" fill="#B800FF" opacity="0.003922" />
<rect x="0" y="6" width="1" height="1" fill="#B800FF" opacity="0.007843" />
<rect x="1" y="6" width="1" height="1" fill="#B800FF" opacity="0.027451" />
<rect x="2" y="6" width="1" height="1" fill="#B800FF" opacity="0.090196" />
<rect x="3" y="6" width="1" height="1" fill="#B800FF" opacity="0.211765" />
<rect x="4" y="6" width="1" height="1" fill="#B800FF" opacity="0.376471" />
<rect x="5" y="6" width="1" height="1" fill="#B800FF" />
<rect x="6" y="6" width="1" height="1" fill="#B800FF" />
<rect x="7" y="6" width="1" height="1" fill="#B800FF" />
<rect x="8" y="6" width="1" height="1" fill="#B800FF" />
<rect x="9" y="6" width="1" height="1" fill="#B800FF" />
<rect x="10" y="6" width="1" height="1" fill="#B800FF" />
<rect x="11" y="6" width="1" height="1" fill="#B800FF" opacity="0.352941" />
<rect x="12" y="6" width="1" height="1" fill="#B800FF" opacity="0.192157" />
<rect x="13" y="6" width="1" height="1" fill="#B800FF" opacity="0.082353" />
<rect x="14" y="6" width="1" height="1" fill="#B800FF" opacity="0.027451" />
<rect x="15" y="6" width="1" height="1" fill="#B800FF" opacity="0.003922" />
<rect x="0" y="7" width="1" height="1" fill="#B800FF" opacity="0.007843" />
<rect x="1" y="7" width="1" height="1" fill="#B800FF" opacity="0.035294" />
<rect x="2" y="7" width="1" height="1" fill="#B800FF" opacity="0.105882" />
<rect x="3" y="7" width="1" height="1" fill="#B800FF" opacity="0.243137" />
<rect x="4" y="7" width="1" height="1" fill="#B800FF" />
<rect x="5" y="7" width="1" height="1" fill="#B800FF" />
<rect x="6" y="7" width="1" height="1" fill="#B800FF" />
<rect x="7" y="7" width="1" height="1" fill="#B800FF" />
<rect x="8" y="7" width="1" height="1" fill="#B800FF" />
<rect x="9" y="7" width="1" height="1" fill="#B800FF" />
<rect x="10" y="7" width="1" height="1" fill="#B800FF" />
<rect x="11" y="7" width="1" height="1" fill="#B800FF" />
<rect x="12" y="7" width="1" height="1" fill="#B800FF" opacity="0.231373" />
<rect x="13" y="7" width="1" height="1" fill="#B800FF" opacity="0.101961" />
<rect x="14" y="7" width="1" height="1" fill="#B800FF" opacity="0.031373" />
<rect x="15" y="7" width="1" height="1" fill="#B800FF" opacity="0.007843" />
<rect x="0" y="8" width="1" height="1" fill="#B800FF" opacity="0.007843" />
<rect x="1" y="8" width="1" height="1" fill="#B800FF" opacity="0.031373" />
<rect x="2" y="8" width="1" height="1" fill="#B800FF" opacity="0.101961" />
<rect x="3" y="8" width="1" height="1" fill="#B800FF" opacity="0.235294" />
<rect x="4" y="8" width="1" height="1" fill="#B800FF" />
<rect x="5" y="8" width="1" height="1" fill="#B800FF" />
<rect x="6" y="8" width="1" height="1" fill="#B800FF" />
<rect x="7" y="8" width="1" height="1" fill="#B800FF" />
<rect x="8" y="8" width="1" height="1" fill="#B800FF" />
<rect x="9" y="8" width="1" height="1" fill="#B800FF" />
<rect x="10" y="8" width="1" height="1" fill="#B800FF" />
<rect x="11" y="8" width="1" height="1" fill="#B800FF" />
<rect x="12" y="8" width="1" height="1" fill="#B800FF" opacity="0.223529" />
<rect x="13" y="8" width="1" height="1" fill="#B800FF" opacity="0.098039" />
<rect x="14" y="8" width="1" height="1" fill="#B800FF" opacity="0.031373" />
<rect x="15" y="8" width="1" height="1" fill="#B800FF" opacity="0.007843" />
<rect x="0" y="9" width="1" height="1" fill="#B800FF" opacity="0.003922" />
<rect x="1" y="9" width="1" height="1" fill="#B800FF" opacity="0.027451" />
<rect x="2" y="9" width="1" height="1" fill="#B800FF" opacity="0.082353" />
<rect x="3" y="9" width="1" height="1" fill="#B800FF" opacity="0.184314" />
<rect x="4" y="9" width="1" height="1" fill="#B800FF" opacity="0.333333" />
<rect x="5" y="9" width="1" height="1" fill="#B800FF" />
<rect x="6" y="9" width="1" height="1" fill="#B800FF" />
<rect x="7" y="9" width="1" height="1" fill="#B800FF" />
<rect x="8" y="9" width="1" height="1" fill="#B800FF" />
<rect x="9" y="9" width="1" height="1" fill="#B800FF" />
<rect x="10" y="9" width="1" height="1" fill="#B800FF" />
<rect x="11" y="9" width="1" height="1" fill="#B800FF" opacity="0.317647" />
<rect x="12" y="9" width="1" height="1" fill="#B800FF" opacity="0.176471" />
<rect x="13" y="9" width="1" height="1" fill="#B800FF" opacity="0.078431" />
<rect x="14" y="9" width="1" height="1" fill="#B800FF" opacity="0.027451" />
<rect x="15" y="9" width="1" height="1" fill="#B800FF" opacity="0.003922" />
<rect x="0" y="10" width="1" height="1" fill="#B800FF" opacity="0.003922" />
<rect x="1" y="10" width="1" height="1" fill="#B800FF" opacity="0.015686" />
<rect x="2" y="10" width="1" height="1" fill="#B800FF" opacity="0.050980" />
<rect x="3" y="10" width="1" height="1" fill="#B800FF" opacity="0.125490" />
<rect x="4" y="10" width="1" height="1" fill="#B800FF" opacity="0.235294" />
<rect x="5" y="10" width="1" height="1" fill="#B800FF" opacity="0.372549" />
<rect x="6" y="10" width="1" height="1" fill="#B800FF" opacity="0.494118" />
<rect x="7" y="10" width="1" height="1" fill="#B800FF" />
<rect x="8" y="10" width="1" height="1" fill="#B800FF" />
<rect x="9" y="10" width="1" height="1" fill="#B800FF" opacity="0.462745" />
<rect x="10" y="10" width="1" height="1" fill="#B800FF" opacity="0.341176" />
<rect x="11" y="10" width="1" height="1" fill="#B800FF" opacity="0.211765" />
<rect x="12" y="10" width="1" height="1" fill="#B800FF" opacity="0.113725" />
<rect x="13" y="10" width="1" height="1" fill="#B800FF" opacity="0.047059" />
<rect x="14" y="10" width="1" height="1" fill="#B800FF" opacity="0.015686" />
<rect x="15" y="10" width="1" height="1" fill="#B800FF" opacity="0.003922" />
<rect x="1" y="11" width="1" height="1" fill="#B800FF" opacity="0.007843" />
<rect x="2" y="11" width="1" height="1" fill="#B800FF" opacity="0.027451" />
<rect x="3" y="11" width="1" height="1" fill="#B800FF" opacity="0.070588" />
<rect x="4" y="11" width="1" height="1" fill="#B800FF" opacity="0.145098" />
<rect x="5" y="11" width="1" height="1" fill="#B800FF" opacity="0.243137" />
<rect x="6" y="11" width="1" height="1" fill="#B800FF" />
<rect x="7" y="11" width="1" height="1" fill="#B800FF" />
<rect x="8" y="11" width="1" height="1" fill="#B800FF" />
<rect x="9" y="11" width="1" height="1" fill="#B800FF" opacity="0.301961" />
<rect x="10" y="11" width="1" height="1" fill="#B800FF" opacity="0.203922" />
<rect x="11" y="11" width="1" height="1" fill="#B800FF" opacity="0.117647" />
<rect x="12" y="11" width="1" height="1" fill="#B800FF" opacity="0.054902" />
<rect x="13" y="11" width="1" height="1" fill="#B800FF" opacity="0.023529" />
<rect x="14" y="11" width="1" height="1" fill="#B800FF" opacity="0.007843" />
<rect x="2" y="12" width="1" height="1" fill="#B800FF" opacity="0.011765" />
<rect x="3" y="12" width="1" height="1" fill="#B800FF" opacity="0.031373" />
<rect x="4" y="12" width="1" height="1" fill="#B800FF" opacity="0.074510" />
<rect x="5" y="12" width="1" height="1" fill="#B800FF" opacity="0.137255" />
<rect x="6" y="12" width="1" height="1" fill="#B800FF" opacity="0.196078" />
<rect x="7" y="12" width="1" height="1" fill="#B800FF" opacity="0.227451" />
<rect x="8" y="12" width="1" height="1" fill="#B800FF" opacity="0.215686" />
<rect x="9" y="12" width="1" height="1" fill="#B800FF" opacity="0.164706" />
<rect x="10" y="12" width="1" height="1" fill="#B800FF" opacity="0.101961" />
<rect x="11" y="12" width="1" height="1" fill="#B800FF" opacity="0.054902" />
<rect x="12" y="12" width="1" height="1" fill="#B800FF" opacity="0.023529" />
<rect x="13" y="12" width="1" height="1" fill="#B800FF" opacity="0.007843" />
<rect x="2" y="13" width="1" height="1" fill="#B800FF" opacity="0.003922" />
<rect x="3" y="13" width="1" height="1" fill="#B800FF" opacity="0.011765" />
<rect x="4" y="13" width="1" height="1" fill="#B800FF" opacity="0.035294" />
<rect x="5" y="13" width="1" height="1" fill="#B800FF" opacity="0.062745" />
<rect x="6" y="13" width="1" height="1" fill="#B800FF" opacity="0.094118" />
<rect x="7" y="13" width="1" height="1" fill="#B800FF" opacity="0.109804" />
<rect x="8" y="13" width="1" height="1" fill="#B800FF" opacity="0.098039" />
<rect x="9" y="13" width="1" height="1" fill="#B800FF" opacity="0.070588" />
<rect x="10" y="13" width="1" height="1" fill="#B800FF" opacity="0.043137" />
<rect x="11" y="13" width="1" height="1" fill="#B800FF" opacity="0.019608" />
<rect x="12" y="13" width="1" height="1" fill="#B800FF" opacity="0.007843" />
<rect x="3" y="14" width="1" height="1" fill="#B800FF" opacity="0.003922" />
<rect x="4" y="14" width="1" height="1" fill="#B800FF" opacity="0.011765" />
<rect x="5" y="14" width="1" height="1" fill="#B800FF" opacity="0.023529" />
<rect x="6" y="14" width="1" height="1" fill="#B800FF" opacity="0.031373" />
<rect x="7" y="14" width="1" height="1" fill="#B800FF" opacity="0.035294" />
<rect x="8" y="14" width="1" height="1" fill="#B800FF" opacity="0.031373" />
<rect x="9" y="14" width="1" height="1" fill="#B800FF" opacity="0.023529" />
<rect x="10" y="14" width="1" height="1" fill="#B800FF" opacity="0.011765" />
<rect x="11" y="14" width="1" height="1" fill="#B800FF" opacity="0.003922" />
<rect x="5" y="15" width="1" height="1" fill="#B800FF" opacity="0.003922" />
<rect x="6" y="15" width="1" height="1" fill="#B800FF" opacity="0.007843" />
<rect x="7" y="15" width="1" height="1" fill="#B800FF" opacity="0.007843" />
<rect x="8" y="15" width="1" height="1" fill="#B800FF" opacity="0.007843" />
<rect x="9" y="15" width="1" height="1" fill="#B800FF" opacity="0.003922" />
</svg>