<?xml version="1.0" encoding="UTF-8" ?>
<svg version="1.1" width="32" height="128" xmlns="http://www.w3.org/2000/svg" shape-rendering="crispEdges">
<rect x="9" y="0" width="1" height="1" fill="#FFFCBC" />
<rect x="10" y="0" width="1" height="1" fill="#FFFCBC" />
<rect x="9" y="1" width="1" height="1" fill="#FFFCBC" />
<rect x="10" y="1" width="1" height="1" fill="#FFFCBC" />
<rect x="19" y="1" width="1" height="1" fill="#FFFCBC" />
<rect x="20" y="1" width="1" height="1" fill="#FFFCBC" />
<rect x="25" y="1" width="1" height="1" fill="#FFFCBC" />
<rect x="26" y="1" width="1" height="1" fill="#FFFCBC" />
<rect x="19" y="2" width="1" height="1" fill="#FFFCBC" />
<rect x="20" y="2" width="1" height="1" fill="#FFFCBC" />
<rect x="25" y="2" width="1" height="1" fill="#FFFCBC" />
<rect x="26" y="2" width="1" height="1" fill="#FFFCBC" />
<rect x="5" y="4" width="1" height="1" fill="#FFFCBC" />
<rect x="6" y="4" width="1" height="1" fill="#FFFCBC" />
<rect x="17" y="4" width="1" height="1" fill="#FFFCBC" />
<rect x="18" y="4" width="1" height="1" fill="#FFFCBC" />
<rect x="5" y="5" width="1" height="1" fill="#FFFCBC" />
<rect x="6" y="5" width="1" height="1" fill="#FFFCBC" />
<rect x="17" y="5" width="1" height="1" fill="#FFFCBC" />
<rect x="18" y="5" width="1" height="1" fill="#FFFCBC" />
<rect x="10" y="7" width="1" height="1" fill="#FFFCBC" />
<rect x="11" y="7" width="1" height="1" fill="#FFFCBC" />
<rect x="19" y="7" width="1" height="1" fill="#FFFCBC" />
<rect x="20" y="7" width="1" height="1" fill="#FFFCBC" />
<rect x="10" y="8" width="1" height="1" fill="#FFFCBC" />
<rect x="11" y="8" width="1" height="1" fill="#FFFCBC" />
<rect x="19" y="8" width="1" height="1" fill="#FFFCBC" />
<rect x="20" y="8" width="1" height="1" fill="#FFFCBC" />
<rect x="24" y="8" width="1" height="1" fill="#FFFCBC" />
<rect x="25" y="8" width="1" height="1" fill="#FFFCBC" />
<rect x="16" y="9" width="1" height="1" fill="#FFFCBC" />
<rect x="17" y="9" width="1" height="1" fill="#FFFCBC" />
<rect x="24" y="9" width="1" height="1" fill="#FFFCBC" />
<rect x="25" y="9" width="1" height="1" fill="#FFFCBC" />
<rect x="6" y="10" width="1" height="1" fill="#FFFCBC" opacity="0.086275" />
<rect x="7" y="10" width="1" height="1" fill="#FFFCBC" opacity="0.172549" />
<rect x="8" y="10" width="1" height="1" fill="#FFFCBC" opacity="0.262745" />
<rect x="9" y="10" width="1" height="1" fill="#FFFCBC" opacity="0.172549" />
<rect x="10" y="10" width="1" height="1" fill="#FFFCBC" opacity="0.086275" />
<rect x="16" y="10" width="1" height="1" fill="#FFFCBC" />
<rect x="17" y="10" width="1" height="1" fill="#FFFCBC" />
<rect x="5" y="11" width="1" height="1" fill="#FFFCBC" opacity="0.086275" />
<rect x="6" y="11" width="1" height="1" fill="#FFFCBC" opacity="0.262745" />
<rect x="7" y="11" width="1" height="1" fill="#FFFCBC" opacity="0.647059" />
<rect x="8" y="11" width="1" height="1" fill="#FFFCBC" opacity="0.737255" />
<rect x="9" y="11" width="1" height="1" fill="#FFFCBC" opacity="0.647059" />
<rect x="10" y="11" width="1" height="1" fill="#FFFCBC" opacity="0.262745" />
<rect x="11" y="11" width="1" height="1" fill="#FFFCBC" opacity="0.086275" />
<rect x="4" y="12" width="1" height="1" fill="#FFFCBC" opacity="0.086275" />
<rect x="5" y="12" width="1" height="1" fill="#FFFCBC" opacity="0.262745" />
<rect x="6" y="12" width="1" height="1" fill="#FFFCBC" opacity="0.737255" />
<rect x="7" y="12" width="1" height="1" fill="#FFFCBC" opacity="0.909804" />
<rect x="8" y="12" width="1" height="1" fill="#FFFCBC" />
<rect x="9" y="12" width="1" height="1" fill="#FFFCBC" opacity="0.909804" />
<rect x="10" y="12" width="1" height="1" fill="#FFFCBC" opacity="0.737255" />
<rect x="11" y="12" width="1" height="1" fill="#FFFCBC" opacity="0.262745" />
<rect x="12" y="12" width="1" height="1" fill="#FFFCBC" opacity="0.086275" />
<rect x="4" y="13" width="1" height="1" fill="#FFFCBC" opacity="0.172549" />
<rect x="5" y="13" width="1" height="1" fill="#FFFCBC" opacity="0.647059" />
<rect x="6" y="13" width="1" height="1" fill="#FFFCBC" opacity="0.909804" />
<rect x="7" y="13" width="1" height="1" fill="#FFFCBC" />
<rect x="8" y="13" width="1" height="1" fill="#FFFCBC" />
<rect x="9" y="13" width="1" height="1" fill="#FFFCBC" />
<rect x="10" y="13" width="1" height="1" fill="#FFFCBC" opacity="0.909804" />
<rect x="11" y="13" width="1" height="1" fill="#FFFCBC" opacity="0.647059" />
<rect x="12" y="13" width="1" height="1" fill="#FFFCBC" opacity="0.172549" />
<rect x="14" y="13" width="1" height="1" fill="#FFFCBC" />
<rect x="15" y="13" width="1" height="1" fill="#FFFCBC" />
<rect x="22" y="13" width="1" height="1" fill="#FFFCBC" />
<rect x="23" y="13" width="1" height="1" fill="#FFFCBC" />
<rect x="4" y="14" width="1" height="1" fill="#FFFCBC" opacity="0.262745" />
<rect x="5" y="14" width="1" height="1" fill="#FFFCBC" opacity="0.737255" />
<rect x="6" y="14" width="1" height="1" fill="#FFFCBC" />
<rect x="7" y="14" width="1" height="1" fill="#FFFCBC" />
<rect x="8" y="14" width="1" height="1" fill="#FFFCBC" />
<rect x="9" y="14" width="1" height="1" fill="#FFFCBC" />
<rect x="10" y="14" width="1" height="1" fill="#FFFCBC" />
<rect x="11" y="14" width="1" height="1" fill="#FFFCBC" opacity="0.737255" />
<rect x="12" y="14" width="1" height="1" fill="#FFFCBC" opacity="0.262745" />
<rect x="14" y="14" width="1" height="1" fill="#FFFCBC" />
<rect x="15" y="14" width="1" height="1" fill="#FFFCBC" />
<rect x="22" y="14" width="1" height="1" fill="#FFFCBC" />
<rect x="23" y="14" width="1" height="1" fill="#FFFCBC" />
<rect x="2" y="15" width="1" height="1" fill="#FFFCBC" />
<rect x="3" y="15" width="1" height="1" fill="#FFFCBC" />
<rect x="4" y="15" width="1" height="1" fill="#FFFCBC" opacity="0.172549" />
<rect x="5" y="15" width="1" height="1" fill="#FFFCBC" opacity="0.647059" />
<rect x="6" y="15" width="1" height="1" fill="#FFFCBC" opacity="0.909804" />
<rect x="7" y="15" width="1" height="1" fill="#FFFCBC" />
<rect x="8" y="15" width="1" height="1" fill="#FFFCBC" />
<rect x="9" y="15" width="1" height="1" fill="#FFFCBC" />
<rect x="10" y="15" width="1" height="1" fill="#FFFCBC" opacity="0.909804" />
<rect x="11" y="15" width="1" height="1" fill="#FFFCBC" opacity="0.647059" />
<rect x="12" y="15" width="1" height="1" fill="#FFFCBC" opacity="0.172549" />
<rect x="2" y="16" width="1" height="1" fill="#FFFCBC" />
<rect x="3" y="16" width="1" height="1" fill="#FFFCBC" />
<rect x="4" y="16" width="1" height="1" fill="#FFFCBC" opacity="0.086275" />
<rect x="5" y="16" width="1" height="1" fill="#FFFCBC" opacity="0.262745" />
<rect x="6" y="16" width="1" height="1" fill="#FFFCBC" opacity="0.737255" />
<rect x="7" y="16" width="1" height="1" fill="#FFFCBC" opacity="0.909804" />
<rect x="8" y="16" width="1" height="1" fill="#FFFCBC" />
<rect x="9" y="16" width="1" height="1" fill="#FFFCBC" opacity="0.909804" />
<rect x="10" y="16" width="1" height="1" fill="#FFFCBC" opacity="0.737255" />
<rect x="11" y="16" width="1" height="1" fill="#FFFCBC" opacity="0.262745" />
<rect x="12" y="16" width="1" height="1" fill="#FFFCBC" opacity="0.086275" />
<rect x="26" y="16" width="1" height="1" fill="#FFFCBC" />
<rect x="27" y="16" width="1" height="1" fill="#FFFCBC" />
<rect x="5" y="17" width="1" height="1" fill="#FFFCBC" opacity="0.086275" />
<rect x="6" y="17" width="1" height="1" fill="#FFFCBC" opacity="0.262745" />
<rect x="7" y="17" width="1" height="1" fill="#FFFCBC" opacity="0.647059" />
<rect x="8" y="17" width="1" height="1" fill="#FFFCBC" opacity="0.737255" />
<rect x="9" y="17" width="1" height="1" fill="#FFFCBC" opacity="0.647059" />
<rect x="10" y="17" width="1" height="1" fill="#FFFCBC" opacity="0.262745" />
<rect x="11" y="17" width="1" height="1" fill="#FFFCBC" opacity="0.086275" />
<rect x="26" y="17" width="1" height="1" fill="#FFFCBC" />
<rect x="27" y="17" width="1" height="1" fill="#FFFCBC" />
<rect x="6" y="18" width="1" height="1" fill="#FFFCBC" opacity="0.086275" />
<rect x="7" y="18" width="1" height="1" fill="#FFFCBC" opacity="0.172549" />
<rect x="8" y="18" width="1" height="1" fill="#FFFCBC" opacity="0.262745" />
<rect x="9" y="18" width="1" height="1" fill="#FFFCBC" opacity="0.172549" />
<rect x="10" y="18" width="1" height="1" fill="#FFFCBC" opacity="0.086275" />
<rect x="24" y="20" width="1" height="1" fill="#FFFCBC" />
<rect x="25" y="20" width="1" height="1" fill="#FFFCBC" />
<rect x="24" y="21" width="1" height="1" fill="#FFFCBC" />
<rect x="25" y="21" width="1" height="1" fill="#FFFCBC" />
<rect x="12" y="23" width="1" height="1" fill="#FFFCBC" />
<rect x="13" y="23" width="1" height="1" fill="#FFFCBC" />
<rect x="12" y="24" width="1" height="1" fill="#FFFCBC" />
<rect x="13" y="24" width="1" height="1" fill="#FFFCBC" />
<rect x="11" y="27" width="1" height="1" fill="#FFFCBC" />
<rect x="12" y="27" width="1" height="1" fill="#FFFCBC" />
<rect x="11" y="28" width="1" height="1" fill="#FFFCBC" />
<rect x="12" y="28" width="1" height="1" fill="#FFFCBC" />
<rect x="22" y="30" width="1" height="1" fill="#FFFCBC" opacity="0.086275" />
<rect x="23" y="30" width="1" height="1" fill="#FFFCBC" opacity="0.172549" />
<rect x="24" y="30" width="1" height="1" fill="#FFFCBC" opacity="0.262745" />
<rect x="25" y="30" width="1" height="1" fill="#FFFCBC" opacity="0.172549" />
<rect x="26" y="30" width="1" height="1" fill="#FFFCBC" opacity="0.086275" />
<rect x="21" y="31" width="1" height="1" fill="#FFFCBC" opacity="0.086275" />
<rect x="22" y="31" width="1" height="1" fill="#FFFCBC" opacity="0.262745" />
<rect x="23" y="31" width="1" height="1" fill="#FFFCBC" opacity="0.647059" />
<rect x="24" y="31" width="1" height="1" fill="#FFFCBC" opacity="0.737255" />
<rect x="25" y="31" width="1" height="1" fill="#FFFCBC" opacity="0.647059" />
<rect x="26" y="31" width="1" height="1" fill="#FFFCBC" opacity="0.262745" />
<rect x="27" y="31" width="1" height="1" fill="#FFFCBC" opacity="0.086275" />
<rect x="20" y="32" width="1" height="1" fill="#FFFCBC" opacity="0.086275" />
<rect x="21" y="32" width="1" height="1" fill="#FFFCBC" opacity="0.262745" />
<rect x="22" y="32" width="1" height="1" fill="#FFFCBC" opacity="0.737255" />
<rect x="23" y="32" width="1" height="1" fill="#FFFCBC" opacity="0.909804" />
<rect x="24" y="32" width="1" height="1" fill="#FFFCBC" />
<rect x="25" y="32" width="1" height="1" fill="#FFFCBC" opacity="0.909804" />
<rect x="26" y="32" width="1" height="1" fill="#FFFCBC" opacity="0.737255" />
<rect x="27" y="32" width="1" height="1" fill="#FFFCBC" opacity="0.262745" />
<rect x="28" y="32" width="1" height="1" fill="#FFFCBC" opacity="0.086275" />
<rect x="20" y="33" width="1" height="1" fill="#FFFCBC" opacity="0.172549" />
<rect x="21" y="33" width="1" height="1" fill="#FFFCBC" opacity="0.647059" />
<rect x="22" y="33" width="1" height="1" fill="#FFFCBC" opacity="0.909804" />
<rect x="23" y="33" width="1" height="1" fill="#FFFCBC" />
<rect x="24" y="33" width="1" height="1" fill="#FFFCBC" />
<rect x="25" y="33" width="1" height="1" fill="#FFFCBC" />
<rect x="26" y="33" width="1" height="1" fill="#FFFCBC" opacity="0.909804" />
<rect x="27" y="33" width="1" height="1" fill="#FFFCBC" opacity="0.647059" />
<rect x="28" y="33" width="1" height="1" fill="#FFFCBC" opacity="0.172549" />
<rect x="20" y="34" width="1" height="1" fill="#FFFCBC" opacity="0.262745" />
<rect x="21" y="34" width="1" height="1" fill="#FFFCBC" opacity="0.737255" />
<rect x="22" y="34" width="1" height="1" fill="#FFFCBC" />
<rect x="23" y="34" width="1" height="1" fill="#FFFCBC" />
<rect x="24" y="34" width="1" height="1" fill="#FFFCBC" />
<rect x="25" y="34" width="1" height="1" fill="#FFFCBC" />
<rect x="26" y="34" width="1" height="1" fill="#FFFCBC" />
<rect x="27" y="34" width="1" height="1" fill="#FFFCBC" opacity="0.737255" />
<rect x="28" y="34" width="1" height="1" fill="#FFFCBC" opacity="0.262745" />
<rect x="4" y="35" width="1" height="1" fill="#FFFCBC" />
<rect x="5" y="35" width="1" height="1" fill="#FFFCBC" />
<rect x="20" y="35" width="1" height="1" fill="#FFFCBC" opacity="0.172549" />
<rect x="21" y="35" width="1" height="1" fill="#FFFCBC" opacity="0.647059" />
<rect x="22" y="35" width="1" height="1" fill="#FFFCBC" opacity="0.909804" />
<rect x="23" y="35" width="1" height="1" fill="#FFFCBC" />
<rect x="24" y="35" width="1" height="1" fill="#FFFCBC" />
<rect x="25" y="35" width="1" height="1" fill="#FFFCBC" />
<rect x="26" y="35" width="1" height="1" fill="#FFFCBC" opacity="0.909804" />
<rect x="27" y="35" width="1" height="1" fill="#FFFCBC" opacity="0.647059" />
<rect x="28" y="35" width="1" height="1" fill="#FFFCBC" opacity="0.172549" />
<rect x="4" y="36" width="1" height="1" fill="#FFFCBC" />
<rect x="5" y="36" width="1" height="1" fill="#FFFCBC" />
<rect x="20" y="36" width="1" height="1" fill="#FFFCBC" opacity="0.086275" />
<rect x="21" y="36" width="1" height="1" fill="#FFFCBC" opacity="0.262745" />
<rect x="22" y="36" width="1" height="1" fill="#FFFCBC" opacity="0.737255" />
<rect x="23" y="36" width="1" height="1" fill="#FFFCBC" opacity="0.909804" />
<rect x="24" y="36" width="1" height="1" fill="#FFFCBC" />
<rect x="25" y="36" width="1" height="1" fill="#FFFCBC" opacity="0.909804" />
<rect x="26" y="36" width="1" height="1" fill="#FFFCBC" opacity="0.737255" />
<rect x="27" y="36" width="1" height="1" fill="#FFFCBC" opacity="0.262745" />
<rect x="28" y="36" width="1" height="1" fill="#FFFCBC" opacity="0.086275" />
<rect x="21" y="37" width="1" height="1" fill="#FFFCBC" opacity="0.086275" />
<rect x="22" y="37" width="1" height="1" fill="#FFFCBC" opacity="0.262745" />
<rect x="23" y="37" width="1" height="1" fill="#FFFCBC" opacity="0.647059" />
<rect x="24" y="37" width="1" height="1" fill="#FFFCBC" opacity="0.737255" />
<rect x="25" y="37" width="1" height="1" fill="#FFFCBC" opacity="0.647059" />
<rect x="26" y="37" width="1" height="1" fill="#FFFCBC" opacity="0.262745" />
<rect x="27" y="37" width="1" height="1" fill="#FFFCBC" opacity="0.086275" />
<rect x="22" y="38" width="1" height="1" fill="#FFFCBC" opacity="0.086275" />
<rect x="23" y="38" width="1" height="1" fill="#FFFCBC" opacity="0.172549" />
<rect x="24" y="38" width="1" height="1" fill="#FFFCBC" opacity="0.262745" />
<rect x="25" y="38" width="1" height="1" fill="#FFFCBC" opacity="0.172549" />
<rect x="26" y="38" width="1" height="1" fill="#FFFCBC" opacity="0.086275" />
<rect x="14" y="42" width="1" height="1" fill="#FFFCBC" />
<rect x="15" y="42" width="1" height="1" fill="#FFFCBC" />
<rect x="14" y="43" width="1" height="1" fill="#FFFCBC" />
<rect x="15" y="43" width="1" height="1" fill="#FFFCBC" />
<rect x="3" y="45" width="1" height="1" fill="#FFFCBC" />
<rect x="4" y="45" width="1" height="1" fill="#FFFCBC" />
<rect x="3" y="46" width="1" height="1" fill="#FFFCBC" />
<rect x="4" y="46" width="1" height="1" fill="#FFFCBC" />
<rect x="10" y="46" width="1" height="1" fill="#FFFCBC" />
<rect x="11" y="46" width="1" height="1" fill="#FFFCBC" />
<rect x="10" y="47" width="1" height="1" fill="#FFFCBC" />
<rect x="11" y="47" width="1" height="1" fill="#FFFCBC" />
<rect x="22" y="48" width="1" height="1" fill="#FFFCBC" />
<rect x="23" y="48" width="1" height="1" fill="#FFFCBC" />
<rect x="13" y="49" width="1" height="1" fill="#FFFCBC" />
<rect x="14" y="49" width="1" height="1" fill="#FFFCBC" />
<rect x="22" y="49" width="1" height="1" fill="#FFFCBC" />
<rect x="23" y="49" width="1" height="1" fill="#FFFCBC" />
<rect x="13" y="50" width="1" height="1" fill="#FFFCBC" />
<rect x="14" y="50" width="1" height="1" fill="#FFFCBC" />
<rect x="7" y="55" width="1" height="1" fill="#FFFCBC" />
<rect x="8" y="55" width="1" height="1" fill="#FFFCBC" />
<rect x="15" y="55" width="1" height="1" fill="#FFFCBC" />
<rect x="16" y="55" width="1" height="1" fill="#FFFCBC" />
<rect x="0" y="56" width="1" height="1" fill="#FFFCBC" />
<rect x="1" y="56" width="1" height="1" fill="#FFFCBC" />
<rect x="7" y="56" width="1" height="1" fill="#FFFCBC" />
<rect x="8" y="56" width="1" height="1" fill="#FFFCBC" />
<rect x="15" y="56" width="1" height="1" fill="#FFFCBC" />
<rect x="16" y="56" width="1" height="1" fill="#FFFCBC" />
<rect x="18" y="56" width="1" height="1" fill="#FFFCBC" />
<rect x="19" y="56" width="1" height="1" fill="#FFFCBC" />
<rect x="0" y="57" width="1" height="1" fill="#FFFCBC" />
<rect x="1" y="57" width="1" height="1" fill="#FFFCBC" />
<rect x="18" y="57" width="1" height="1" fill="#FFFCBC" />
<rect x="19" y="57" width="1" height="1" fill="#FFFCBC" />
<rect x="8" y="60" width="1" height="1" fill="#FFFCBC" />
<rect x="9" y="60" width="1" height="1" fill="#FFFCBC" />
<rect x="26" y="60" width="1" height="1" fill="#FFFCBC" />
<rect x="27" y="60" width="1" height="1" fill="#FFFCBC" />
<rect x="8" y="61" width="1" height="1" fill="#FFFCBC" />
<rect x="9" y="61" width="1" height="1" fill="#FFFCBC" />
<rect x="26" y="61" width="1" height="1" fill="#FFFCBC" />
<rect x="27" y="61" width="1" height="1" fill="#FFFCBC" />
<rect x="21" y="63" width="1" height="1" fill="#FFFCBC" />
<rect x="22" y="63" width="1" height="1" fill="#FFFCBC" />
<rect x="6" y="64" width="1" height="1" fill="#FFFCBC" />
<rect x="7" y="64" width="1" height="1" fill="#FFFCBC" />
<rect x="21" y="64" width="1" height="1" fill="#FFFCBC" />
<rect x="22" y="64" width="1" height="1" fill="#FFFCBC" />
<rect x="6" y="65" width="1" height="1" fill="#FFFCBC" />
<rect x="7" y="65" width="1" height="1" fill="#FFFCBC" />
<rect x="17" y="65" width="1" height="1" fill="#FFFCBC" />
<rect x="18" y="65" width="1" height="1" fill="#FFFCBC" />
<rect x="17" y="66" width="1" height="1" fill="#FFFCBC" />
<rect x="18" y="66" width="1" height="1" fill="#FFFCBC" />
<rect x="1" y="67" width="1" height="1" fill="#FFFCBC" />
<rect x="2" y="67" width="1" height="1" fill="#FFFCBC" />
<rect x="1" y="68" width="1" height="1" fill="#FFFCBC" />
<rect x="2" y="68" width="1" height="1" fill="#FFFCBC" />
<rect x="24" y="72" width="1" height="1" fill="#FFFCBC" />
<rect x="25" y="72" width="1" height="1" fill="#FFFCBC" />
<rect x="24" y="73" width="1" height="1" fill="#FFFCBC" />
<rect x="25" y="73" width="1" height="1" fill="#FFFCBC" />
<rect x="27" y="73" width="1" height="1" fill="#FFFCBC" />
<rect x="28" y="73" width="1" height="1" fill="#FFFCBC" />
<rect x="27" y="74" width="1" height="1" fill="#FFFCBC" />
<rect x="28" y="74" width="1" height="1" fill="#FFFCBC" />
<rect x="15" y="78" width="1" height="1" fill="#FFFCBC" />
<rect x="16" y="78" width="1" height="1" fill="#FFFCBC" />
<rect x="15" y="79" width="1" height="1" fill="#FFFCBC" />
<rect x="16" y="79" width="1" height="1" fill="#FFFCBC" />
<rect x="5" y="80" width="1" height="1" fill="#FFFCBC" opacity="0.086275" />
<rect x="6" y="80" width="1" height="1" fill="#FFFCBC" opacity="0.172549" />
<rect x="7" y="80" width="1" height="1" fill="#FFFCBC" opacity="0.262745" />
<rect x="8" y="80" width="1" height="1" fill="#FFFCBC" opacity="0.172549" />
<rect x="9" y="80" width="1" height="1" fill="#FFFCBC" opacity="0.086275" />
<rect x="4" y="81" width="1" height="1" fill="#FFFCBC" opacity="0.086275" />
<rect x="5" y="81" width="1" height="1" fill="#FFFCBC" opacity="0.262745" />
<rect x="6" y="81" width="1" height="1" fill="#FFFCBC" opacity="0.647059" />
<rect x="7" y="81" width="1" height="1" fill="#FFFCBC" opacity="0.737255" />
<rect x="8" y="81" width="1" height="1" fill="#FFFCBC" opacity="0.647059" />
<rect x="9" y="81" width="1" height="1" fill="#FFFCBC" opacity="0.262745" />
<rect x="10" y="81" width="1" height="1" fill="#FFFCBC" opacity="0.086275" />
<rect x="3" y="82" width="1" height="1" fill="#FFFCBC" opacity="0.086275" />
<rect x="4" y="82" width="1" height="1" fill="#FFFCBC" opacity="0.262745" />
<rect x="5" y="82" width="1" height="1" fill="#FFFCBC" opacity="0.737255" />
<rect x="6" y="82" width="1" height="1" fill="#FFFCBC" opacity="0.909804" />
<rect x="7" y="82" width="1" height="1" fill="#FFFCBC" />
<rect x="8" y="82" width="1" height="1" fill="#FFFCBC" opacity="0.909804" />
<rect x="9" y="82" width="1" height="1" fill="#FFFCBC" opacity="0.737255" />
<rect x="10" y="82" width="1" height="1" fill="#FFFCBC" opacity="0.262745" />
<rect x="11" y="82" width="1" height="1" fill="#FFFCBC" opacity="0.086275" />
<rect x="3" y="83" width="1" height="1" fill="#FFFCBC" opacity="0.172549" />
<rect x="4" y="83" width="1" height="1" fill="#FFFCBC" opacity="0.647059" />
<rect x="5" y="83" width="1" height="1" fill="#FFFCBC" opacity="0.909804" />
<rect x="6" y="83" width="1" height="1" fill="#FFFCBC" />
<rect x="7" y="83" width="1" height="1" fill="#FFFCBC" />
<rect x="8" y="83" width="1" height="1" fill="#FFFCBC" />
<rect x="9" y="83" width="1" height="1" fill="#FFFCBC" opacity="0.909804" />
<rect x="10" y="83" width="1" height="1" fill="#FFFCBC" opacity="0.647059" />
<rect x="11" y="83" width="1" height="1" fill="#FFFCBC" opacity="0.172549" />
<rect x="3" y="84" width="1" height="1" fill="#FFFCBC" opacity="0.262745" />
<rect x="4" y="84" width="1" height="1" fill="#FFFCBC" opacity="0.737255" />
<rect x="5" y="84" width="1" height="1" fill="#FFFCBC" />
<rect x="6" y="84" width="1" height="1" fill="#FFFCBC" />
<rect x="7" y="84" width="1" height="1" fill="#FFFCBC" />
<rect x="8" y="84" width="1" height="1" fill="#FFFCBC" />
<rect x="9" y="84" width="1" height="1" fill="#FFFCBC" />
<rect x="10" y="84" width="1" height="1" fill="#FFFCBC" opacity="0.737255" />
<rect x="11" y="84" width="1" height="1" fill="#FFFCBC" opacity="0.262745" />
<rect x="3" y="85" width="1" height="1" fill="#FFFCBC" opacity="0.172549" />
<rect x="4" y="85" width="1" height="1" fill="#FFFCBC" opacity="0.647059" />
<rect x="5" y="85" width="1" height="1" fill="#FFFCBC" opacity="0.909804" />
<rect x="6" y="85" width="1" height="1" fill="#FFFCBC" />
<rect x="7" y="85" width="1" height="1" fill="#FFFCBC" />
<rect x="8" y="85" width="1" height="1" fill="#FFFCBC" />
<rect x="9" y="85" width="1" height="1" fill="#FFFCBC" opacity="0.909804" />
<rect x="10" y="85" width="1" height="1" fill="#FFFCBC" opacity="0.647059" />
<rect x="11" y="85" width="1" height="1" fill="#FFFCBC" opacity="0.172549" />
<rect x="17" y="85" width="1" height="1" fill="#FFFCBC" />
<rect x="18" y="85" width="1" height="1" fill="#FFFCBC" />
<rect x="3" y="86" width="1" height="1" fill="#FFFCBC" opacity="0.086275" />
<rect x="4" y="86" width="1" height="1" fill="#FFFCBC" opacity="0.262745" />
<rect x="5" y="86" width="1" height="1" fill="#FFFCBC" opacity="0.737255" />
<rect x="6" y="86" width="1" height="1" fill="#FFFCBC" opacity="0.909804" />
<rect x="7" y="86" width="1" height="1" fill="#FFFCBC" />
<rect x="8" y="86" width="1" height="1" fill="#FFFCBC" opacity="0.909804" />
<rect x="9" y="86" width="1" height="1" fill="#FFFCBC" opacity="0.737255" />
<rect x="10" y="86" width="1" height="1" fill="#FFFCBC" opacity="0.262745" />
<rect x="11" y="86" width="1" height="1" fill="#FFFCBC" opacity="0.086275" />
<rect x="17" y="86" width="1" height="1" fill="#FFFCBC" />
<rect x="18" y="86" width="1" height="1" fill="#FFFCBC" />
<rect x="4" y="87" width="1" height="1" fill="#FFFCBC" opacity="0.086275" />
<rect x="5" y="87" width="1" height="1" fill="#FFFCBC" opacity="0.262745" />
<rect x="6" y="87" width="1" height="1" fill="#FFFCBC" opacity="0.647059" />
<rect x="7" y="87" width="1" height="1" fill="#FFFCBC" opacity="0.737255" />
<rect x="8" y="87" width="1" height="1" fill="#FFFCBC" opacity="0.647059" />
<rect x="9" y="87" width="1" height="1" fill="#FFFCBC" opacity="0.262745" />
<rect x="10" y="87" width="1" height="1" fill="#FFFCBC" opacity="0.086275" />
<rect x="5" y="88" width="1" height="1" fill="#FFFCBC" opacity="0.086275" />
<rect x="6" y="88" width="1" height="1" fill="#FFFCBC" opacity="0.172549" />
<rect x="7" y="88" width="1" height="1" fill="#FFFCBC" opacity="0.262745" />
<rect x="8" y="88" width="1" height="1" fill="#FFFCBC" opacity="0.172549" />
<rect x="9" y="88" width="1" height="1" fill="#FFFCBC" opacity="0.086275" />
<rect x="27" y="92" width="1" height="1" fill="#FFFCBC" />
<rect x="28" y="92" width="1" height="1" fill="#FFFCBC" />
<rect x="27" y="93" width="1" height="1" fill="#FFFCBC" />
<rect x="28" y="93" width="1" height="1" fill="#FFFCBC" />
<rect x="2" y="97" width="1" height="1" fill="#FFFCBC" />
<rect x="3" y="97" width="1" height="1" fill="#FFFCBC" />
<rect x="2" y="98" width="1" height="1" fill="#FFFCBC" />
<rect x="3" y="98" width="1" height="1" fill="#FFFCBC" />
<rect x="21" y="98" width="1" height="1" fill="#FFFCBC" />
<rect x="22" y="98" width="1" height="1" fill="#FFFCBC" />
<rect x="26" y="98" width="1" height="1" fill="#FFFCBC" />
<rect x="27" y="98" width="1" height="1" fill="#FFFCBC" />
<rect x="21" y="99" width="1" height="1" fill="#FFFCBC" />
<rect x="22" y="99" width="1" height="1" fill="#FFFCBC" />
<rect x="26" y="99" width="1" height="1" fill="#FFFCBC" />
<rect x="27" y="99" width="1" height="1" fill="#FFFCBC" />
<rect x="15" y="103" width="1" height="1" fill="#FFFCBC" />
<rect x="16" y="103" width="1" height="1" fill="#FFFCBC" />
<rect x="24" y="103" width="1" height="1" fill="#FFFCBC" />
<rect x="25" y="103" width="1" height="1" fill="#FFFCBC" />
<rect x="3" y="104" width="1" height="1" fill="#FFFCBC" />
<rect x="4" y="104" width="1" height="1" fill="#FFFCBC" />
<rect x="8" y="104" width="1" height="1" fill="#FFFCBC" />
<rect x="9" y="104" width="1" height="1" fill="#FFFCBC" />
<rect x="15" y="104" width="1" height="1" fill="#FFFCBC" />
<rect x="16" y="104" width="1" height="1" fill="#FFFCBC" />
<rect x="20" y="104" width="1" height="1" fill="#FFFCBC" />
<rect x="21" y="104" width="1" height="1" fill="#FFFCBC" />
<rect x="24" y="104" width="1" height="1" fill="#FFFCBC" />
<rect x="25" y="104" width="1" height="1" fill="#FFFCBC" />
<rect x="3" y="105" width="1" height="1" fill="#FFFCBC" />
<rect x="4" y="105" width="1" height="1" fill="#FFFCBC" />
<rect x="8" y="105" width="1" height="1" fill="#FFFCBC" />
<rect x="9" y="105" width="1" height="1" fill="#FFFCBC" />
<rect x="20" y="105" width="1" height="1" fill="#FFFCBC" />
<rect x="21" y="105" width="1" height="1" fill="#FFFCBC" />
<rect x="16" y="109" width="1" height="1" fill="#FFFCBC" />
<rect x="17" y="109" width="1" height="1" fill="#FFFCBC" />
<rect x="31" y="109" width="1" height="1" fill="#FFFCBC" />
<rect x="16" y="110" width="1" height="1" fill="#FFFCBC" />
<rect x="17" y="110" width="1" height="1" fill="#FFFCBC" />
<rect x="22" y="110" width="1" height="1" fill="#FFFCBC" opacity="0.086275" />
<rect x="23" y="110" width="1" height="1" fill="#FFFCBC" opacity="0.172549" />
<rect x="24" y="110" width="1" height="1" fill="#FFFCBC" opacity="0.262745" />
<rect x="25" y="110" width="1" height="1" fill="#FFFCBC" opacity="0.172549" />
<rect x="26" y="110" width="1" height="1" fill="#FFFCBC" opacity="0.086275" />
<rect x="31" y="110" width="1" height="1" fill="#FFFCBC" />
<rect x="1" y="111" width="1" height="1" fill="#FFFCBC" />
<rect x="2" y="111" width="1" height="1" fill="#FFFCBC" />
<rect x="21" y="111" width="1" height="1" fill="#FFFCBC" opacity="0.086275" />
<rect x="22" y="111" width="1" height="1" fill="#FFFCBC" opacity="0.262745" />
<rect x="23" y="111" width="1" height="1" fill="#FFFCBC" opacity="0.647059" />
<rect x="24" y="111" width="1" height="1" fill="#FFFCBC" opacity="0.737255" />
<rect x="25" y="111" width="1" height="1" fill="#FFFCBC" opacity="0.647059" />
<rect x="26" y="111" width="1" height="1" fill="#FFFCBC" opacity="0.262745" />
<rect x="27" y="111" width="1" height="1" fill="#FFFCBC" opacity="0.086275" />
<rect x="1" y="112" width="1" height="1" fill="#FFFCBC" />
<rect x="2" y="112" width="1" height="1" fill="#FFFCBC" />
<rect x="13" y="112" width="1" height="1" fill="#FFFCBC" />
<rect x="14" y="112" width="1" height="1" fill="#FFFCBC" />
<rect x="17" y="112" width="1" height="1" fill="#FFFCBC" />
<rect x="18" y="112" width="1" height="1" fill="#FFFCBC" />
<rect x="20" y="112" width="1" height="1" fill="#FFFCBC" opacity="0.086275" />
<rect x="21" y="112" width="1" height="1" fill="#FFFCBC" opacity="0.262745" />
<rect x="22" y="112" width="1" height="1" fill="#FFFCBC" opacity="0.737255" />
<rect x="23" y="112" width="1" height="1" fill="#FFFCBC" opacity="0.909804" />
<rect x="24" y="112" width="1" height="1" fill="#FFFCBC" />
<rect x="25" y="112" width="1" height="1" fill="#FFFCBC" opacity="0.909804" />
<rect x="26" y="112" width="1" height="1" fill="#FFFCBC" opacity="0.737255" />
<rect x="27" y="112" width="1" height="1" fill="#FFFCBC" opacity="0.262745" />
<rect x="28" y="112" width="1" height="1" fill="#FFFCBC" opacity="0.086275" />
<rect x="13" y="113" width="1" height="1" fill="#FFFCBC" />
<rect x="14" y="113" width="1" height="1" fill="#FFFCBC" />
<rect x="17" y="113" width="1" height="1" fill="#FFFCBC" />
<rect x="18" y="113" width="1" height="1" fill="#FFFCBC" />
<rect x="20" y="113" width="1" height="1" fill="#FFFCBC" opacity="0.172549" />
<rect x="21" y="113" width="1" height="1" fill="#FFFCBC" opacity="0.647059" />
<rect x="22" y="113" width="1" height="1" fill="#FFFCBC" opacity="0.909804" />
<rect x="23" y="113" width="1" height="1" fill="#FFFCBC" />
<rect x="24" y="113" width="1" height="1" fill="#FFFCBC" />
<rect x="25" y="113" width="1" height="1" fill="#FFFCBC" />
<rect x="26" y="113" width="1" height="1" fill="#FFFCBC" opacity="0.909804" />
<rect x="27" y="113" width="1" height="1" fill="#FFFCBC" opacity="0.647059" />
<rect x="28" y="113" width="1" height="1" fill="#FFFCBC" opacity="0.172549" />
<rect x="3" y="114" width="1" height="1" fill="#FFFCBC" />
<rect x="4" y="114" width="1" height="1" fill="#FFFCBC" />
<rect x="20" y="114" width="1" height="1" fill="#FFFCBC" opacity="0.262745" />
<rect x="21" y="114" width="1" height="1" fill="#FFFCBC" opacity="0.737255" />
<rect x="22" y="114" width="1" height="1" fill="#FFFCBC" />
<rect x="23" y="114" width="1" height="1" fill="#FFFCBC" />
<rect x="24" y="114" width="1" height="1" fill="#FFFCBC" />
<rect x="25" y="114" width="1" height="1" fill="#FFFCBC" />
<rect x="26" y="114" width="1" height="1" fill="#FFFCBC" />
<rect x="27" y="114" width="1" height="1" fill="#FFFCBC" opacity="0.737255" />
<rect x="28" y="114" width="1" height="1" fill="#FFFCBC" opacity="0.262745" />
<rect x="3" y="115" width="1" height="1" fill="#FFFCBC" />
<rect x="4" y="115" width="1" height="1" fill="#FFFCBC" />
<rect x="20" y="115" width="1" height="1" fill="#FFFCBC" opacity="0.172549" />
<rect x="21" y="115" width="1" height="1" fill="#FFFCBC" opacity="0.647059" />
<rect x="22" y="115" width="1" height="1" fill="#FFFCBC" opacity="0.909804" />
<rect x="23" y="115" width="1" height="1" fill="#FFFCBC" />
<rect x="24" y="115" width="1" height="1" fill="#FFFCBC" />
<rect x="25" y="115" width="1" height="1" fill="#FFFCBC" />
<rect x="26" y="115" width="1" height="1" fill="#FFFCBC" opacity="0.909804" />
<rect x="27" y="115" width="1" height="1" fill="#FFFCBC" opacity="0.647059" />
<rect x="28" y="115" width="1" height="1" fill="#FFFCBC" opacity="0.172549" />
<rect x="20" y="116" width="1" height="1" fill="#FFFCBC" opacity="0.086275" />
<rect x="21" y="116" width="1" height="1" fill="#FFFCBC" opacity="0.262745" />
<rect x="22" y="116" width="1" height="1" fill="#FFFCBC" opacity="0.737255" />
<rect x="23" y="116" width="1" height="1" fill="#FFFCBC" opacity="0.909804" />
<rect x="24" y="116" width="1" height="1" fill="#FFFCBC" />
<rect x="25" y="116" width="1" height="1" fill="#FFFCBC" opacity="0.909804" />
<rect x="26" y="116" width="1" height="1" fill="#FFFCBC" opacity="0.737255" />
<rect x="27" y="116" width="1" height="1" fill="#FFFCBC" opacity="0.262745" />
<rect x="28" y="116" width="1" height="1" fill="#FFFCBC" opacity="0.086275" />
<rect x="14" y="117" width="1" height="1" fill="#FFFCBC" />
<rect x="15" y="117" width="1" height="1" fill="#FFFCBC" />
<rect x="21" y="117" width="1" height="1" fill="#FFFCBC" opacity="0.086275" />
<rect x="22" y="117" width="1" height="1" fill="#FFFCBC" opacity="0.262745" />
<rect x="23" y="117" width="1" height="1" fill="#FFFCBC" opacity="0.647059" />
<rect x="24" y="117" width="1" height="1" fill="#FFFCBC" opacity="0.737255" />
<rect x="25" y="117" width="1" height="1" fill="#FFFCBC" opacity="0.647059" />
<rect x="26" y="117" width="1" height="1" fill="#FFFCBC" opacity="0.262745" />
<rect x="27" y="117" width="1" height="1" fill="#FFFCBC" opacity="0.086275" />
<rect x="14" y="118" width="1" height="1" fill="#FFFCBC" />
<rect x="15" y="118" width="1" height="1" fill="#FFFCBC" />
<rect x="22" y="118" width="1" height="1" fill="#FFFCBC" opacity="0.086275" />
<rect x="23" y="118" width="1" height="1" fill="#FFFCBC" opacity="0.172549" />
<rect x="24" y="118" width="1" height="1" fill="#FFFCBC" opacity="0.262745" />
<rect x="25" y="118" width="1" height="1" fill="#FFFCBC" opacity="0.172549" />
<rect x="26" y="118" width="1" height="1" fill="#FFFCBC" opacity="0.086275" />
<rect x="30" y="119" width="1" height="1" fill="#FFFCBC" />
<rect x="31" y="119" width="1" height="1" fill="#FFFCBC" />
<rect x="16" y="120" width="1" height="1" fill="#FFFCBC" />
<rect x="17" y="120" width="1" height="1" fill="#FFFCBC" />
<rect x="24" y="120" width="1" height="1" fill="#FFFCBC" />
<rect x="25" y="120" width="1" height="1" fill="#FFFCBC" />
<rect x="30" y="120" width="1" height="1" fill="#FFFCBC" />
<rect x="31" y="120" width="1" height="1" fill="#FFFCBC" />
<rect x="16" y="121" width="1" height="1" fill="#FFFCBC" />
<rect x="17" y="121" width="1" height="1" fill="#FFFCBC" />
<rect x="24" y="121" width="1" height="1" fill="#FFFCBC" />
<rect x="25" y="121" width="1" height="1" fill="#FFFCBC" />
<rect x="1" y="122" width="1" height="1" fill="#FFFCBC" />
<rect x="2" y="122" width="1" height="1" fill="#FFFCBC" />
<rect x="1" y="123" width="1" height="1" fill="#FFFCBC" />
<rect x="2" y="123" width="1" height="1" fill="#FFFCBC" />
<rect x="24" y="123" width="1" height="1" fill="#FFFCBC" />
<rect x="25" y="123" width="1" height="1" fill="#FFFCBC" />
<rect x="24" y="124" width="1" height="1" fill="#FFFCBC" />
<rect x="25" y="124" width="1" height="1" fill="#FFFCBC" />
<rect x="5" y="125" width="1" height="1" fill="#FFFCBC" />
<rect x="6" y="125" width="1" height="1" fill="#FFFCBC" />
<rect x="13" y="125" width="1" height="1" fill="#FFFCBC" />
<rect x="14" y="125" width="1" height="1" fill="#FFFCBC" />
<rect x="18" y="125" width="1" height="1" fill="#FFFCBC" />
<rect x="19" y="125" width="1" height="1" fill="#FFFCBC" />
<rect x="28" y="125" width="1" height="1" fill="#FFFCBC" />
<rect x="29" y="125" width="1" height="1" fill="#FFFCBC" />
<rect x="5" y="126" width="1" height="1" fill="#FFFCBC" />
<rect x="6" y="126" width="1" height="1" fill="#FFFCBC" />
<rect x="13" y="126" width="1" height="1" fill="#FFFCBC" />
<rect x="14" y="126" width="1" height="1" fill="#FFFCBC" />
<rect x="18" y="126" width="1" height="1" fill="#FFFCBC" />
<rect x="19" y="126" width="1" height="1" fill="#FFFCBC" />
<rect x="28" y="126" width="1" height="1" fill="#FFFCBC" />
<rect x="29" y="126" width="1" height="1" fill="#FFFCBC" />
</svg>